<svg width="8" height="8" viewBox="0 0 8 8" fill="none" xmlns="http://www.w3.org/2000/svg">
<g id="Edit">
<path id="Edit_2" fill-rule="evenodd" clip-rule="evenodd" d="M2.65683 7.09496L6.31783 2.3606C6.51679 2.10529 6.58754 1.81012 6.52121 1.50958C6.46374 1.23636 6.29572 0.976572 6.04369 0.779493L5.42911 0.291277C4.89411 -0.134234 4.23088 -0.0894431 3.85063 0.398774L3.43944 0.932229C3.38638 0.998967 3.39964 1.09751 3.46597 1.15125C3.46597 1.15125 4.50501 1.98436 4.52712 2.00227C4.59787 2.06946 4.65092 2.15904 4.66419 2.26654C4.6863 2.47705 4.54039 2.67413 4.32373 2.70101C4.22204 2.71444 4.12477 2.68309 4.05402 2.62486L2.96192 1.75593C2.90886 1.71606 2.82927 1.72457 2.78506 1.77832L0.189641 5.13761C0.0216244 5.34813 -0.035855 5.62135 0.0216244 5.88561L0.353236 7.32339C0.370922 7.39953 0.437244 7.45328 0.516831 7.45328L1.97592 7.43537C2.24121 7.43089 2.48882 7.30995 2.65683 7.09496ZM4.69983 6.64712H7.07904C7.31116 6.64712 7.49996 6.83838 7.49996 7.07352C7.49996 7.30912 7.31116 7.49993 7.07904 7.49993H4.69983C4.4677 7.49993 4.27891 7.30912 4.27891 7.07352C4.27891 6.83838 4.4677 6.64712 4.69983 6.64712Z" fill="#5B93FF"/>
</g>
</svg>
