<svg width="25" height="15" viewBox="0 0 25 15" fill="none" xmlns="http://www.w3.org/2000/svg">
<g id="Frame 1000005309">
<g id="Group 55190">
<path id="Vector" d="M16.4766 0.147949C15.4942 0.147949 14.5119 0.2995 13.5295 0.602601C15.9854 2.11811 17.4589 4.69447 17.4589 7.57393C17.4589 10.4534 15.8217 13.0298 13.5295 14.5453C14.5119 14.8484 15.4942 14.9999 16.4766 14.9999C20.8972 14.9999 24.4991 11.6658 24.4991 7.57393C24.4991 3.48206 20.8972 0.147949 16.4766 0.147949Z" fill="#F1C52F"/>
<path id="Vector_2" d="M16.4874 7.57753C16.4874 4.84962 14.8501 2.42481 12.3942 1.06085C11.2481 0.454652 9.77462 0 8.3011 0C3.88052 0 0.278564 3.33411 0.278564 7.42598C0.278564 11.5178 3.88052 14.852 8.3011 14.852C9.77462 14.852 11.0844 14.5489 12.3942 13.7911C14.8501 12.4272 16.4874 10.1539 16.4874 7.27443V7.57753Z" fill="#E75547"/>
</g>
</g>
</svg>
