<svg width="92" height="92" viewBox="0 0 92 92" fill="none" xmlns="http://www.w3.org/2000/svg">
<g id="Frame 33">
<path id="Vector" d="M10 15.6664C10 16.0664 18.2667 30.1997 28.2667 47.1331C44.5333 74.5997 46.6667 77.6664 48.2667 75.5331C49.2 74.1997 50 72.4664 50 71.7997C50 70.9997 43.7333 59.7997 36 46.9997C23.2 25.6664 21.6 21.5331 26.5333 23.3997C27.4667 23.7997 33.7333 33.3997 40.6667 44.8664C47.4667 56.4664 53.4667 65.2664 54 64.7331C56.9333 61.3997 82.9333 16.4664 82.2667 15.7997C81.8667 15.3997 80.2667 14.9997 78.6667 14.9997C76.5333 14.9997 73.6 18.8664 65.3333 33.1331C59.4667 43.1331 54 51.3997 53.3333 51.3997C52.1333 51.2664 47.8667 44.8664 38.8 29.2664L35.0667 22.9997H46.5333H58.1333L56 27.1331C54 30.9997 53.6 31.1331 51.4667 29.1331C49.3333 27.2664 43.3333 26.0664 43.3333 27.5331C43.3333 28.3331 52.9333 44.3331 53.3333 44.3331C54 44.3331 70 16.8664 70 15.9331C70 15.3997 56.5333 14.9997 40 14.9997C23.4667 14.9997 10 15.2664 10 15.6664Z" fill="#392D7C"/>
</g>
</svg>
