<svg width="92" height="92" viewBox="0 0 92 92" fill="none" xmlns="http://www.w3.org/2000/svg">
<path d="M10 15.6666C10 16.0666 18.2667 30.2 28.2667 47.1333C44.5333 74.6 46.6667 77.6666 48.2667 75.5333C49.2 74.2 50 72.4666 50 71.8C50 71 43.7333 59.8 36 47C23.2 25.6666 21.6 21.5333 26.5333 23.4C27.4667 23.8 33.7333 33.4 40.6667 44.8666C47.4667 56.4666 53.4667 65.2666 54 64.7333C56.9333 61.4 82.9333 16.4666 82.2667 15.8C81.8667 15.4 80.2667 15 78.6667 15C76.5333 15 73.6 18.8666 65.3333 33.1333C59.4667 43.1333 54 51.4 53.3333 51.4C52.1333 51.2666 47.8667 44.8666 38.8 29.2666L35.0667 23H46.5333H58.1333L56 27.1333C54 31 53.6 31.1333 51.4667 29.1333C49.3333 27.2666 43.3333 26.0666 43.3333 27.5333C43.3333 28.3333 52.9333 44.3333 53.3333 44.3333C54 44.3333 70 16.8666 70 15.9333C70 15.4 56.5333 15 40 15C23.4667 15 10 15.2666 10 15.6666Z" fill="#392D7C"/>
</svg>
