<svg width="28" height="24" viewBox="0 0 28 24" fill="none" xmlns="http://www.w3.org/2000/svg">
<g id="Iconly/Bold/Category" opacity="0.4">
<g id="Category">
<path id="Category_2" fill-rule="evenodd" clip-rule="evenodd" d="M5.77124 2H9.48689C11.0369 2 12.2791 3.15 12.2791 4.561V7.97C12.2791 9.39 11.0369 10.53 9.48689 10.53H5.77124C4.23221 10.53 2.979 9.39 2.979 7.97V4.561C2.979 3.15 4.23221 2 5.77124 2ZM5.77124 13.4697H9.48689C11.0369 13.4697 12.2791 14.6107 12.2791 16.0307V19.4397C12.2791 20.8497 11.0369 21.9997 9.48689 21.9997H5.77124C4.23221 21.9997 2.979 20.8497 2.979 19.4397V16.0307C2.979 14.6107 4.23221 13.4697 5.77124 13.4697ZM22.173 2H18.4573C16.9073 2 15.6651 3.15 15.6651 4.561V7.97C15.6651 9.39 16.9073 10.53 18.4573 10.53H22.173C23.712 10.53 24.9652 9.39 24.9652 7.97V4.561C24.9652 3.15 23.712 2 22.173 2ZM18.4573 13.4697H22.173C23.712 13.4697 24.9652 14.6107 24.9652 16.0307V19.4397C24.9652 20.8497 23.712 21.9997 22.173 21.9997H18.4573C16.9073 21.9997 15.6651 20.8497 15.6651 19.4397V16.0307C15.6651 14.6107 16.9073 13.4697 18.4573 13.4697Z" fill="#030229"/>
</g>
</g>
</svg>
