<svg width="24" height="24" viewBox="0 0 24 24" fill="none" xmlns="http://www.w3.org/2000/svg">
<g id="exchange 1">
<g id="Group">
<path id="Vector" d="M3.33745 2.83124C2.36714 3.0703 1.51401 3.94218 1.31714 4.91249C1.24683 5.25936 1.24683 18.7406 1.31714 19.0875C1.34526 19.2234 1.45308 19.5094 1.55151 19.7203C1.8937 20.4375 2.6437 21.0234 3.41245 21.1828C3.76401 21.2531 20.2359 21.2531 20.5874 21.1828C21.0468 21.0891 21.5906 20.7891 21.9374 20.4375C22.2843 20.0859 22.5937 19.5281 22.6828 19.0875C22.7531 18.7406 22.7531 8.25936 22.6828 7.91249C22.5328 7.18593 21.9609 6.42655 21.3046 6.08436C20.714 5.77968 20.9531 5.79374 16.7343 5.76561L12.8671 5.74218L12.6046 5.6203C12.3093 5.47968 12.2296 5.39061 11.5265 4.38749C10.9874 3.61405 10.6499 3.27186 10.2046 3.05624C9.60932 2.76093 9.64214 2.76561 6.4687 2.7703C4.29839 2.7703 3.52495 2.78905 3.33745 2.83124ZM13.9453 9.28593C14.0953 9.32811 14.2968 9.50155 14.9906 10.1859C15.464 10.6547 15.8812 11.0953 15.9187 11.1656C15.9984 11.3156 16.0031 11.6109 15.9328 11.7984C15.8718 11.9672 14.2781 13.5703 14.0812 13.6641C13.3171 14.025 12.6468 13.0781 13.2374 12.4734C13.3312 12.3797 13.4062 12.2859 13.4062 12.2672C13.4062 12.2484 12.6562 12.2344 11.7374 12.2344C10.2937 12.2344 10.0453 12.225 9.90932 12.1594C9.67495 12.0469 9.54839 11.8406 9.52495 11.5359C9.50151 11.2078 9.62807 10.9969 9.93745 10.8375C10.139 10.7344 10.1765 10.7344 11.7796 10.7344H13.4156L13.2515 10.5516C12.7828 10.0312 13.0218 9.37499 13.7343 9.23905C13.7484 9.23905 13.8421 9.2578 13.9453 9.28593ZM10.5937 13.3359C11.0343 13.5656 11.1187 14.1609 10.7624 14.5266C10.6687 14.6203 10.5937 14.7141 10.5937 14.7328C10.5937 14.7516 11.3437 14.7656 12.2624 14.7656C13.7062 14.7656 13.9546 14.775 14.0906 14.8406C14.3249 14.9531 14.4515 15.1594 14.4749 15.4641C14.4937 15.7734 14.3812 15.9844 14.1093 16.1437C13.9546 16.2375 13.8609 16.2422 12.2671 16.2562L10.589 16.2703L10.7531 16.4531C11.0624 16.7953 11.0671 17.2172 10.7671 17.5172C10.5749 17.7141 10.3171 17.7844 10.0546 17.7141C9.89995 17.6719 9.70776 17.5078 9.00932 16.8141C8.53589 16.3453 8.1187 15.9047 8.0812 15.8344C7.99682 15.6703 7.99682 15.3562 8.08589 15.1687C8.17026 14.9906 9.71714 13.4391 9.91401 13.3406C10.0921 13.2469 10.4203 13.2469 10.5937 13.3359Z" fill="black"/>
</g>
</g>
</svg>
