<svg width="36" height="36" viewBox="0 0 36 36" fill="none" xmlns="http://www.w3.org/2000/svg">
<g clip-path="url(#clip0_1_1603)">
<path d="M18 35.7097C27.7808 35.7097 35.7097 27.7808 35.7097 18.0001C35.7097 8.21929 27.7808 0.290405 18 0.290405C8.21922 0.290405 0.290344 8.21929 0.290344 18.0001C0.290344 27.7808 8.21922 35.7097 18 35.7097Z" fill="white"/>
<path fill-rule="evenodd" clip-rule="evenodd" d="M16.8934 18L11.9684 13.0751C11.8258 12.9275 11.747 12.7298 11.7487 12.5246C11.7505 12.3194 11.8328 12.1231 11.9779 11.978C12.123 11.8329 12.3193 11.7506 12.5245 11.7488C12.7297 11.747 12.9274 11.8259 13.075 11.9685L18 16.8934L22.9249 11.9685C23.0725 11.8259 23.2702 11.747 23.4754 11.7488C23.6806 11.7506 23.8769 11.8329 24.022 11.978C24.1671 12.1231 24.2494 12.3194 24.2512 12.5246C24.253 12.7298 24.1741 12.9275 24.0315 13.0751L19.1066 18L24.0315 22.925C24.1741 23.0726 24.253 23.2703 24.2512 23.4755C24.2494 23.6807 24.1671 23.877 24.022 24.0221C23.8769 24.1672 23.6806 24.2495 23.4754 24.2513C23.2702 24.253 23.0725 24.1742 22.9249 24.0316L18 19.1066L13.075 24.0316C12.9274 24.1742 12.7297 24.253 12.5245 24.2513C12.3193 24.2495 12.123 24.1672 11.9779 24.0221C11.8328 23.877 11.7505 23.6807 11.7487 23.4755C11.747 23.2703 11.8258 23.0726 11.9684 22.925L16.8934 18Z" fill="black"/>
</g>
<defs>
<clipPath id="clip0_1_1603">
<rect width="36" height="36" fill="white"/>
</clipPath>
</defs>
</svg>
