<svg width="31" height="21" viewBox="0 0 31 21" fill="none" xmlns="http://www.w3.org/2000/svg">
<g clip-path="url(#clip0_1_1485)">
<path d="M17.3442 0.656134V4.87838C17.3267 5.35729 17.1218 5.81018 16.7738 6.1396C16.4257 6.46902 15.9622 6.64864 15.4831 6.63983H0.240845V2.6507C0.262602 2.10254 0.500231 1.58522 0.901903 1.21157C1.30358 0.837921 1.8367 0.63826 2.385 0.656134H17.3442Z" fill="#FFBB54"/>
<path d="M30.1593 2.65073V18.591C30.1529 18.8632 30.0926 19.1314 29.9819 19.3801C29.8712 19.6288 29.7124 19.8531 29.5145 20.04C29.3167 20.227 29.0837 20.3729 28.8292 20.4693C28.5746 20.5658 28.3034 20.6108 28.0314 20.6018H2.385C1.83408 20.6193 1.29877 20.4173 0.896706 20.0403C0.494645 19.6632 0.258743 19.1419 0.240845 18.591L0.240845 6.63986H15.4831C15.9622 6.64867 16.4257 6.46905 16.7738 6.13963C17.1218 5.81021 17.3267 5.35732 17.3442 4.87841V0.656163H28.0314C28.3021 0.647179 28.572 0.691666 28.8255 0.78708C29.079 0.882494 29.3113 1.02696 29.5089 1.21222C29.7066 1.39747 29.8657 1.61988 29.9773 1.86672C30.0889 2.11355 30.1508 2.37997 30.1593 2.65073Z" fill="#465693"/>
<path d="M25.571 11.7761H5.42586C5.18335 11.7761 4.95077 11.8725 4.77929 12.0439C4.60781 12.2154 4.51147 12.448 4.51147 12.6905C4.51147 12.933 4.60781 13.1656 4.77929 13.3371C4.95077 13.5086 5.18335 13.6049 5.42586 13.6049H25.571C25.8135 13.6049 26.046 13.5086 26.2175 13.3371C26.389 13.1656 26.4853 12.933 26.4853 12.6905C26.4853 12.448 26.389 12.2154 26.2175 12.0439C26.046 11.8725 25.8135 11.7761 25.571 11.7761Z" fill="white"/>
</g>
<defs>
<clipPath id="clip0_1_1485">
<rect width="29.9185" height="19.9456" fill="white" transform="translate(0.240845 0.65625)"/>
</clipPath>
</defs>
</svg>
