<svg width="57" height="56" viewBox="0 0 57 56" fill="none" xmlns="http://www.w3.org/2000/svg">
<mask id="mask0_1_1526" style="mask-type:luminance" maskUnits="userSpaceOnUse" x="0" y="0" width="57" height="56">
<path d="M0.935059 0.081543H56.793V55.9395H0.935059V0.081543Z" fill="white"/>
</mask>
<g mask="url(#mask0_1_1526)">
<path d="M28.8652 55.9395C44.2892 55.9395 56.793 43.4357 56.793 28.0105C56.793 12.5878 44.2892 0.081543 28.8652 0.081543C13.4413 0.081543 0.935059 12.5854 0.935059 28.0117C0.935059 43.4357 13.4389 55.9395 28.8652 55.9395Z" fill="#382C7C"/>
</g>
<g clip-path="url(#clip0_1_1526)">
<path d="M39.7646 22.8622V21.9047C39.7646 21.2015 39.1923 20.6294 38.4889 20.6294H19.2751C18.5717 20.6294 17.9995 21.2015 17.9995 21.9047V22.8622H39.7646Z" fill="white"/>
<path d="M32.07 29.6685C31.3678 29.6685 30.7966 30.2396 30.7966 30.9416C30.7966 31.6437 31.3678 32.2148 32.07 32.2148C32.7721 32.2148 33.3434 31.6436 33.3434 30.9416C33.3434 30.2396 32.7721 29.6685 32.07 29.6685Z" fill="white"/>
<path d="M38.2108 28.3892H28.8829V34.6077H38.2108V28.3892Z" fill="white"/>
<path d="M17.9995 24.1379H39.7646V25.8383H17.9995V24.1379Z" fill="white"/>
<path d="M34.3003 29.7096C34.721 30.468 34.7294 31.4001 34.3003 32.1735C35.1127 32.3846 35.8944 31.7671 35.8944 30.9416C35.8944 30.1156 35.1122 29.4988 34.3003 29.7096Z" fill="#D2DCE8"/>
<path d="M17.9995 27.1138V34.8729C17.9995 35.5761 18.5717 36.1482 19.2751 36.1482H38.4889C39.1923 36.1482 39.7646 35.5761 39.7646 34.8729V27.1138H17.9995ZM21.2592 29.5995H25.0533C25.4055 29.5995 25.6911 29.885 25.6911 30.2372C25.6911 30.5893 25.4055 30.8748 25.0533 30.8748H21.2592C20.907 30.8748 20.6214 30.5893 20.6214 30.2372C20.6214 29.885 20.907 29.5995 21.2592 29.5995ZM26.9687 33.4255H21.2592C20.907 33.4255 20.6214 33.1399 20.6214 32.7878C20.6214 32.4356 20.907 32.1501 21.2592 32.1501H26.9687C27.3209 32.1501 27.6065 32.4356 27.6065 32.7878C27.6065 33.1399 27.3209 33.4255 26.9687 33.4255ZM33.3456 33.1472C31.6613 34.1242 29.5219 32.9079 29.5219 30.9418C29.5219 28.9791 31.6579 27.7574 33.3456 28.7363C35.035 27.7582 37.1709 28.9785 37.1709 30.9418C37.1709 32.902 35.038 34.1272 33.3456 33.1472Z" fill="white"/>
</g>
<defs>
<clipPath id="clip0_1_1526">
<rect width="22.4389" height="16.2058" fill="white" transform="translate(17.9995 19.9995)"/>
</clipPath>
</defs>
</svg>
