<svg width="30" height="21" viewBox="0 0 30 21" fill="none" xmlns="http://www.w3.org/2000/svg">
<g clip-path="url(#clip0_1_1500)">
<path d="M29.9182 3.02617V18.1525C29.9006 18.8064 29.625 19.4268 29.1516 19.8782C28.6782 20.3297 28.0454 20.5755 27.3914 20.5621H2.4593C1.81689 20.5578 1.20126 20.3041 0.742366 19.8545C0.28347 19.4049 0.0172007 18.7946 -0.000244141 18.1525L-0.000244141 3.02617C0.0173964 2.37225 0.292999 1.75185 0.766409 1.30039C1.23982 0.848937 1.87259 0.603081 2.52662 0.616488H27.4587C28.1011 0.620777 28.7167 0.874492 29.1756 1.32409C29.6345 1.77368 29.9008 2.38398 29.9182 3.02617Z" fill="#465693"/>
<path d="M29.9182 4.48975H-0.000244141V10.5894H29.9182V4.48975Z" fill="#FFBB54"/>
<path d="M24.6335 14.6624H20.2454C20.1123 14.6624 19.9805 14.6886 19.8576 14.7395C19.7346 14.7904 19.6229 14.8651 19.5288 14.9592C19.4347 15.0533 19.36 15.165 19.3091 15.288C19.2581 15.411 19.2319 15.5427 19.2319 15.6758C19.2319 15.8089 19.2581 15.9407 19.3091 16.0637C19.36 16.1866 19.4347 16.2984 19.5288 16.3925C19.6229 16.4866 19.7346 16.5612 19.8576 16.6122C19.9805 16.6631 20.1123 16.6893 20.2454 16.6893H24.6335C24.7666 16.6893 24.8983 16.6631 25.0213 16.6122C25.1443 16.5612 25.256 16.4866 25.3501 16.3925C25.4442 16.2984 25.5189 16.1866 25.5698 16.0637C25.6207 15.9407 25.647 15.8089 25.647 15.6758C25.647 15.5427 25.6207 15.411 25.5698 15.288C25.5189 15.165 25.4442 15.0533 25.3501 14.9592C25.256 14.8651 25.1443 14.7904 25.0213 14.7395C24.8983 14.6886 24.7666 14.6624 24.6335 14.6624Z" fill="white"/>
</g>
<defs>
<clipPath id="clip0_1_1500">
<rect width="29.9185" height="19.9456" fill="white" transform="translate(0 0.616455)"/>
</clipPath>
</defs>
</svg>
