<svg width="533" height="294" viewBox="0 0 533 294" fill="none" xmlns="http://www.w3.org/2000/svg">
<path d="M274.5 89L266.5 81L258.5 89" stroke="#382C7C" stroke-width="2" stroke-linecap="round" stroke-linejoin="round"/>
<path d="M266.5 81V99" stroke="#382C7C" stroke-width="2" stroke-linecap="round" stroke-linejoin="round"/>
<path d="M283.28 93.78C285.231 92.7165 286.772 91.0337 287.66 88.9972C288.548 86.9607 288.732 84.6864 288.184 82.5334C287.636 80.3803 286.387 78.471 284.633 77.1069C282.88 75.7427 280.722 75.0014 278.5 75H275.98C275.375 72.6585 274.246 70.4846 272.68 68.642C271.114 66.7993 269.15 65.3357 266.936 64.3612C264.723 63.3867 262.317 62.9267 259.9 63.0157C257.483 63.1048 255.118 63.7406 252.982 64.8753C250.847 66.01 248.996 67.6142 247.569 69.5671C246.143 71.5201 245.177 73.771 244.746 76.1508C244.315 78.5305 244.428 80.977 245.078 83.3065C245.729 85.636 246.899 87.7877 248.5 89.6" stroke="#382C7C" stroke-width="2" stroke-linecap="round" stroke-linejoin="round"/>
<path d="M274.5 89L266.5 81L258.5 89" stroke="#382C7C" stroke-width="2" stroke-linecap="round" stroke-linejoin="round"/>
<path d="M171.595 142.117C171.188 142.117 170.789 142.082 170.399 142.013C170.009 141.944 169.645 141.844 169.307 141.714C168.978 141.584 168.679 141.419 168.41 141.22C168.306 141.142 168.232 141.055 168.189 140.96C168.154 140.856 168.146 140.756 168.163 140.661C168.189 140.557 168.232 140.47 168.293 140.401C168.362 140.332 168.445 140.293 168.54 140.284C168.635 140.275 168.739 140.306 168.852 140.375C169.242 140.652 169.658 140.856 170.1 140.986C170.542 141.107 171.04 141.168 171.595 141.168C172.375 141.168 172.951 141.025 173.324 140.739C173.705 140.444 173.896 140.059 173.896 139.582C173.896 139.192 173.757 138.889 173.48 138.672C173.211 138.447 172.756 138.269 172.115 138.139L170.763 137.866C169.948 137.693 169.337 137.411 168.93 137.021C168.531 136.622 168.332 136.094 168.332 135.435C168.332 135.028 168.414 134.659 168.579 134.33C168.744 133.992 168.973 133.706 169.268 133.472C169.563 133.229 169.914 133.043 170.321 132.913C170.728 132.783 171.179 132.718 171.673 132.718C172.219 132.718 172.726 132.796 173.194 132.952C173.671 133.099 174.1 133.325 174.481 133.628C174.576 133.706 174.641 133.797 174.676 133.901C174.711 133.996 174.715 134.092 174.689 134.187C174.663 134.274 174.615 134.347 174.546 134.408C174.485 134.469 174.403 134.503 174.299 134.512C174.204 134.521 174.095 134.486 173.974 134.408C173.627 134.148 173.268 133.962 172.895 133.849C172.522 133.728 172.111 133.667 171.66 133.667C171.201 133.667 170.802 133.736 170.464 133.875C170.135 134.014 169.875 134.217 169.684 134.486C169.502 134.746 169.411 135.049 169.411 135.396C169.411 135.812 169.537 136.141 169.788 136.384C170.048 136.627 170.468 136.804 171.049 136.917L172.401 137.203C173.276 137.385 173.922 137.662 174.338 138.035C174.763 138.399 174.975 138.897 174.975 139.53C174.975 139.911 174.897 140.262 174.741 140.583C174.585 140.904 174.36 141.181 174.065 141.415C173.77 141.64 173.415 141.814 172.999 141.935C172.583 142.056 172.115 142.117 171.595 142.117ZM179.333 142.117C178.666 142.117 178.089 141.987 177.604 141.727C177.127 141.458 176.755 141.081 176.486 140.596C176.226 140.111 176.096 139.53 176.096 138.854C176.096 138.195 176.226 137.623 176.486 137.138C176.746 136.644 177.101 136.258 177.552 135.981C178.011 135.704 178.54 135.565 179.138 135.565C179.563 135.565 179.944 135.639 180.282 135.786C180.62 135.925 180.906 136.128 181.14 136.397C181.383 136.666 181.565 136.991 181.686 137.372C181.816 137.753 181.881 138.182 181.881 138.659C181.881 138.798 181.842 138.902 181.764 138.971C181.686 139.032 181.573 139.062 181.426 139.062H176.902V138.373H181.179L180.971 138.542C180.971 138.074 180.902 137.68 180.763 137.359C180.624 137.03 180.421 136.778 180.152 136.605C179.892 136.432 179.563 136.345 179.164 136.345C178.722 136.345 178.345 136.449 178.033 136.657C177.73 136.856 177.5 137.138 177.344 137.502C177.188 137.857 177.11 138.273 177.11 138.75V138.828C177.11 139.625 177.301 140.232 177.682 140.648C178.072 141.064 178.622 141.272 179.333 141.272C179.628 141.272 179.918 141.233 180.204 141.155C180.499 141.077 180.785 140.947 181.062 140.765C181.183 140.687 181.292 140.652 181.387 140.661C181.491 140.661 181.573 140.691 181.634 140.752C181.695 140.804 181.734 140.873 181.751 140.96C181.777 141.038 181.768 141.125 181.725 141.22C181.69 141.315 181.617 141.398 181.504 141.467C181.218 141.675 180.88 141.835 180.49 141.948C180.1 142.061 179.714 142.117 179.333 142.117ZM185.329 142.117C184.705 142.117 184.228 141.926 183.899 141.545C183.57 141.164 183.405 140.618 183.405 139.907V133.277C183.405 133.104 183.448 132.974 183.535 132.887C183.622 132.792 183.752 132.744 183.925 132.744C184.09 132.744 184.22 132.792 184.315 132.887C184.41 132.974 184.458 133.104 184.458 133.277V139.829C184.458 140.297 184.549 140.648 184.731 140.882C184.922 141.107 185.199 141.22 185.563 141.22C185.641 141.22 185.71 141.216 185.771 141.207C185.832 141.198 185.892 141.194 185.953 141.194C186.048 141.185 186.113 141.207 186.148 141.259C186.191 141.311 186.213 141.415 186.213 141.571C186.213 141.727 186.178 141.844 186.109 141.922C186.04 142 185.927 142.052 185.771 142.078C185.702 142.087 185.628 142.095 185.55 142.104C185.472 142.113 185.398 142.117 185.329 142.117ZM190.035 142.117C189.368 142.117 188.792 141.987 188.306 141.727C187.83 141.458 187.457 141.081 187.188 140.596C186.928 140.111 186.798 139.53 186.798 138.854C186.798 138.195 186.928 137.623 187.188 137.138C187.448 136.644 187.804 136.258 188.254 135.981C188.714 135.704 189.242 135.565 189.84 135.565C190.265 135.565 190.646 135.639 190.984 135.786C191.322 135.925 191.608 136.128 191.842 136.397C192.085 136.666 192.267 136.991 192.388 137.372C192.518 137.753 192.583 138.182 192.583 138.659C192.583 138.798 192.544 138.902 192.466 138.971C192.388 139.032 192.276 139.062 192.128 139.062H187.604V138.373H191.881L191.673 138.542C191.673 138.074 191.604 137.68 191.465 137.359C191.327 137.03 191.123 136.778 190.854 136.605C190.594 136.432 190.265 136.345 189.866 136.345C189.424 136.345 189.047 136.449 188.735 136.657C188.432 136.856 188.202 137.138 188.046 137.502C187.89 137.857 187.812 138.273 187.812 138.75V138.828C187.812 139.625 188.003 140.232 188.384 140.648C188.774 141.064 189.325 141.272 190.035 141.272C190.33 141.272 190.62 141.233 190.906 141.155C191.201 141.077 191.487 140.947 191.764 140.765C191.886 140.687 191.994 140.652 192.089 140.661C192.193 140.661 192.276 140.691 192.336 140.752C192.397 140.804 192.436 140.873 192.453 140.96C192.479 141.038 192.471 141.125 192.427 141.22C192.393 141.315 192.319 141.398 192.206 141.467C191.92 141.675 191.582 141.835 191.192 141.948C190.802 142.061 190.417 142.117 190.035 142.117ZM196.785 142.117C196.152 142.117 195.606 141.978 195.147 141.701C194.688 141.424 194.332 141.038 194.081 140.544C193.838 140.041 193.717 139.461 193.717 138.802C193.717 138.299 193.786 137.849 193.925 137.45C194.064 137.051 194.267 136.713 194.536 136.436C194.805 136.15 195.125 135.933 195.498 135.786C195.879 135.639 196.308 135.565 196.785 135.565C197.097 135.565 197.422 135.613 197.76 135.708C198.098 135.803 198.406 135.968 198.683 136.202C198.77 136.263 198.826 136.336 198.852 136.423C198.878 136.51 198.878 136.596 198.852 136.683C198.826 136.761 198.783 136.83 198.722 136.891C198.661 136.943 198.583 136.973 198.488 136.982C198.401 136.991 198.31 136.96 198.215 136.891C197.99 136.718 197.76 136.596 197.526 136.527C197.292 136.458 197.067 136.423 196.85 136.423C196.512 136.423 196.217 136.479 195.966 136.592C195.715 136.696 195.502 136.848 195.329 137.047C195.156 137.246 195.021 137.493 194.926 137.788C194.839 138.083 194.796 138.425 194.796 138.815C194.796 139.569 194.974 140.167 195.329 140.609C195.684 141.042 196.191 141.259 196.85 141.259C197.067 141.259 197.288 141.224 197.513 141.155C197.747 141.086 197.981 140.964 198.215 140.791C198.31 140.722 198.401 140.691 198.488 140.7C198.575 140.709 198.648 140.743 198.709 140.804C198.77 140.856 198.809 140.925 198.826 141.012C198.852 141.099 198.852 141.185 198.826 141.272C198.8 141.35 198.744 141.419 198.657 141.48C198.38 141.705 198.076 141.87 197.747 141.974C197.418 142.069 197.097 142.117 196.785 142.117ZM202.66 142.117C202.166 142.117 201.75 142.03 201.412 141.857C201.082 141.675 200.835 141.415 200.671 141.077C200.506 140.73 200.424 140.31 200.424 139.816V136.501H199.553C199.405 136.501 199.293 136.466 199.215 136.397C199.137 136.319 199.098 136.215 199.098 136.085C199.098 135.955 199.137 135.855 199.215 135.786C199.293 135.717 199.405 135.682 199.553 135.682H200.424V134.187C200.424 134.014 200.471 133.884 200.567 133.797C200.662 133.702 200.792 133.654 200.957 133.654C201.121 133.654 201.247 133.702 201.334 133.797C201.429 133.884 201.477 134.014 201.477 134.187V135.682H203.115C203.262 135.682 203.375 135.717 203.453 135.786C203.531 135.855 203.57 135.955 203.57 136.085C203.57 136.215 203.531 136.319 203.453 136.397C203.375 136.466 203.262 136.501 203.115 136.501H201.477V139.712C201.477 140.206 201.581 140.583 201.789 140.843C201.997 141.094 202.335 141.22 202.803 141.22C202.967 141.22 203.106 141.203 203.219 141.168C203.34 141.133 203.44 141.116 203.518 141.116C203.596 141.107 203.661 141.133 203.713 141.194C203.765 141.255 203.791 141.359 203.791 141.506C203.791 141.61 203.769 141.705 203.726 141.792C203.691 141.879 203.626 141.939 203.531 141.974C203.427 142.009 203.288 142.039 203.115 142.065C202.95 142.1 202.798 142.117 202.66 142.117ZM210.01 142.117C209.577 142.117 209.187 142.035 208.84 141.87C208.502 141.697 208.234 141.463 208.034 141.168C207.835 140.873 207.735 140.544 207.735 140.18C207.735 139.712 207.852 139.344 208.086 139.075C208.329 138.806 208.723 138.616 209.269 138.503C209.824 138.39 210.578 138.334 211.531 138.334H212.116V139.023H211.544C210.842 139.023 210.288 139.058 209.88 139.127C209.482 139.188 209.2 139.296 209.035 139.452C208.879 139.608 208.801 139.829 208.801 140.115C208.801 140.47 208.923 140.761 209.165 140.986C209.417 141.211 209.755 141.324 210.179 141.324C210.526 141.324 210.829 141.242 211.089 141.077C211.358 140.912 211.566 140.687 211.713 140.401C211.869 140.115 211.947 139.786 211.947 139.413V137.931C211.947 137.394 211.839 137.008 211.622 136.774C211.406 136.531 211.05 136.41 210.556 136.41C210.253 136.41 209.95 136.449 209.646 136.527C209.343 136.605 209.022 136.731 208.684 136.904C208.563 136.965 208.459 136.986 208.372 136.969C208.286 136.943 208.216 136.895 208.164 136.826C208.112 136.757 208.082 136.679 208.073 136.592C208.065 136.497 208.082 136.406 208.125 136.319C208.177 136.232 208.255 136.163 208.359 136.111C208.741 135.92 209.118 135.782 209.49 135.695C209.863 135.608 210.218 135.565 210.556 135.565C211.102 135.565 211.553 135.656 211.908 135.838C212.264 136.011 212.528 136.28 212.701 136.644C212.875 136.999 212.961 137.459 212.961 138.022V141.545C212.961 141.718 212.918 141.853 212.831 141.948C212.753 142.043 212.636 142.091 212.48 142.091C212.316 142.091 212.19 142.043 212.103 141.948C212.017 141.853 211.973 141.718 211.973 141.545V140.531H212.09C212.021 140.86 211.887 141.142 211.687 141.376C211.497 141.61 211.258 141.792 210.972 141.922C210.686 142.052 210.366 142.117 210.01 142.117ZM219.124 142.091C218.96 142.091 218.83 142.043 218.734 141.948C218.648 141.853 218.604 141.718 218.604 141.545V136.501H217.772C217.634 136.501 217.521 136.466 217.434 136.397C217.356 136.319 217.317 136.215 217.317 136.085C217.317 135.955 217.356 135.855 217.434 135.786C217.521 135.717 217.634 135.682 217.772 135.682H218.89L218.604 135.955V135.461C218.604 134.646 218.799 134.022 219.189 133.589C219.588 133.156 220.173 132.909 220.944 132.848L221.334 132.809C221.464 132.8 221.568 132.822 221.646 132.874C221.724 132.917 221.772 132.978 221.789 133.056C221.815 133.134 221.82 133.216 221.802 133.303C221.785 133.39 221.746 133.463 221.685 133.524C221.633 133.585 221.568 133.619 221.49 133.628L221.1 133.654C220.589 133.689 220.221 133.849 219.995 134.135C219.77 134.412 219.657 134.811 219.657 135.331V135.877L219.501 135.682H223.037C223.202 135.682 223.328 135.73 223.414 135.825C223.51 135.92 223.557 136.059 223.557 136.241V141.493C223.557 141.675 223.514 141.818 223.427 141.922C223.341 142.017 223.211 142.065 223.037 142.065C222.864 142.065 222.73 142.017 222.634 141.922C222.548 141.818 222.504 141.675 222.504 141.493V136.501H219.657V141.545C219.657 141.909 219.48 142.091 219.124 142.091ZM223.05 134.161C222.834 134.161 222.665 134.105 222.543 133.992C222.431 133.871 222.374 133.71 222.374 133.511C222.374 133.303 222.431 133.147 222.543 133.043C222.665 132.93 222.834 132.874 223.05 132.874C223.267 132.874 223.432 132.93 223.544 133.043C223.666 133.147 223.726 133.303 223.726 133.511C223.726 133.71 223.666 133.871 223.544 133.992C223.432 134.105 223.267 134.161 223.05 134.161ZM227.452 142.117C226.828 142.117 226.351 141.926 226.022 141.545C225.693 141.164 225.528 140.618 225.528 139.907V133.277C225.528 133.104 225.571 132.974 225.658 132.887C225.745 132.792 225.875 132.744 226.048 132.744C226.213 132.744 226.343 132.792 226.438 132.887C226.533 132.974 226.581 133.104 226.581 133.277V139.829C226.581 140.297 226.672 140.648 226.854 140.882C227.045 141.107 227.322 141.22 227.686 141.22C227.764 141.22 227.833 141.216 227.894 141.207C227.955 141.198 228.015 141.194 228.076 141.194C228.171 141.185 228.236 141.207 228.271 141.259C228.314 141.311 228.336 141.415 228.336 141.571C228.336 141.727 228.301 141.844 228.232 141.922C228.163 142 228.05 142.052 227.894 142.078C227.825 142.087 227.751 142.095 227.673 142.104C227.595 142.113 227.521 142.117 227.452 142.117ZM232.158 142.117C231.491 142.117 230.915 141.987 230.429 141.727C229.953 141.458 229.58 141.081 229.311 140.596C229.051 140.111 228.921 139.53 228.921 138.854C228.921 138.195 229.051 137.623 229.311 137.138C229.571 136.644 229.927 136.258 230.377 135.981C230.837 135.704 231.365 135.565 231.963 135.565C232.388 135.565 232.769 135.639 233.107 135.786C233.445 135.925 233.731 136.128 233.965 136.397C234.208 136.666 234.39 136.991 234.511 137.372C234.641 137.753 234.706 138.182 234.706 138.659C234.706 138.798 234.667 138.902 234.589 138.971C234.511 139.032 234.399 139.062 234.251 139.062H229.727V138.373H234.004L233.796 138.542C233.796 138.074 233.727 137.68 233.588 137.359C233.45 137.03 233.246 136.778 232.977 136.605C232.717 136.432 232.388 136.345 231.989 136.345C231.547 136.345 231.17 136.449 230.858 136.657C230.555 136.856 230.325 137.138 230.169 137.502C230.013 137.857 229.935 138.273 229.935 138.75V138.828C229.935 139.625 230.126 140.232 230.507 140.648C230.897 141.064 231.448 141.272 232.158 141.272C232.453 141.272 232.743 141.233 233.029 141.155C233.324 141.077 233.61 140.947 233.887 140.765C234.009 140.687 234.117 140.652 234.212 140.661C234.316 140.661 234.399 140.691 234.459 140.752C234.52 140.804 234.559 140.873 234.576 140.96C234.602 141.038 234.594 141.125 234.55 141.22C234.516 141.315 234.442 141.398 234.329 141.467C234.043 141.675 233.705 141.835 233.315 141.948C232.925 142.061 232.54 142.117 232.158 142.117ZM242.208 142.117C241.592 142.117 241.059 141.983 240.609 141.714C240.158 141.445 239.807 141.068 239.556 140.583C239.313 140.089 239.192 139.508 239.192 138.841C239.192 138.338 239.261 137.888 239.4 137.489C239.538 137.082 239.742 136.735 240.011 136.449C240.279 136.163 240.596 135.946 240.96 135.799C241.332 135.643 241.748 135.565 242.208 135.565C242.823 135.565 243.356 135.699 243.807 135.968C244.257 136.237 244.604 136.618 244.847 137.112C245.098 137.597 245.224 138.174 245.224 138.841C245.224 139.344 245.154 139.794 245.016 140.193C244.877 140.592 244.673 140.938 244.405 141.233C244.136 141.519 243.815 141.74 243.443 141.896C243.079 142.043 242.667 142.117 242.208 142.117ZM242.208 141.272C242.598 141.272 242.94 141.177 243.235 140.986C243.529 140.795 243.755 140.518 243.911 140.154C244.075 139.79 244.158 139.352 244.158 138.841C244.158 138.052 243.98 137.45 243.625 137.034C243.278 136.618 242.806 136.41 242.208 136.41C241.809 136.41 241.462 136.505 241.168 136.696C240.882 136.878 240.656 137.151 240.492 137.515C240.336 137.87 240.258 138.312 240.258 138.841C240.258 139.621 240.435 140.223 240.791 140.648C241.146 141.064 241.618 141.272 242.208 141.272ZM247.338 142.091C247.165 142.091 247.031 142.043 246.935 141.948C246.849 141.853 246.805 141.718 246.805 141.545V136.124C246.805 135.951 246.849 135.821 246.935 135.734C247.022 135.639 247.148 135.591 247.312 135.591C247.477 135.591 247.603 135.639 247.689 135.734C247.785 135.821 247.832 135.951 247.832 136.124V137.177H247.702C247.841 136.666 248.105 136.271 248.495 135.994C248.885 135.717 249.366 135.569 249.938 135.552C250.068 135.543 250.172 135.574 250.25 135.643C250.328 135.704 250.372 135.812 250.38 135.968C250.389 136.115 250.354 136.232 250.276 136.319C250.198 136.406 250.077 136.458 249.912 136.475L249.704 136.501C249.115 136.553 248.66 136.744 248.339 137.073C248.027 137.394 247.871 137.836 247.871 138.399V141.545C247.871 141.718 247.824 141.853 247.728 141.948C247.642 142.043 247.512 142.091 247.338 142.091ZM257.221 142.117C256.658 142.117 256.164 141.983 255.739 141.714C255.323 141.445 254.998 141.068 254.764 140.583C254.539 140.089 254.426 139.508 254.426 138.841C254.426 138.165 254.539 137.584 254.764 137.099C254.998 136.605 255.323 136.228 255.739 135.968C256.164 135.699 256.658 135.565 257.221 135.565C257.793 135.565 258.283 135.708 258.69 135.994C259.097 136.28 259.37 136.666 259.509 137.151H259.366V133.277C259.366 133.104 259.409 132.974 259.496 132.887C259.591 132.792 259.726 132.744 259.899 132.744C260.064 132.744 260.189 132.792 260.276 132.887C260.371 132.974 260.419 133.104 260.419 133.277V141.545C260.419 141.718 260.376 141.853 260.289 141.948C260.202 142.043 260.072 142.091 259.899 142.091C259.734 142.091 259.604 142.043 259.509 141.948C259.422 141.853 259.379 141.718 259.379 141.545V140.31L259.522 140.492C259.383 140.986 259.106 141.38 258.69 141.675C258.283 141.97 257.793 142.117 257.221 142.117ZM257.442 141.272C257.832 141.272 258.174 141.177 258.469 140.986C258.764 140.795 258.989 140.518 259.145 140.154C259.31 139.79 259.392 139.352 259.392 138.841C259.392 138.052 259.214 137.45 258.859 137.034C258.512 136.618 258.04 136.41 257.442 136.41C257.043 136.41 256.697 136.505 256.402 136.696C256.116 136.878 255.891 137.151 255.726 137.515C255.57 137.87 255.492 138.312 255.492 138.841C255.492 139.621 255.67 140.223 256.025 140.648C256.38 141.064 256.853 141.272 257.442 141.272ZM262.928 142.091C262.755 142.091 262.621 142.043 262.525 141.948C262.439 141.853 262.395 141.718 262.395 141.545V136.124C262.395 135.951 262.439 135.821 262.525 135.734C262.612 135.639 262.738 135.591 262.902 135.591C263.067 135.591 263.193 135.639 263.279 135.734C263.375 135.821 263.422 135.951 263.422 136.124V137.177H263.292C263.431 136.666 263.695 136.271 264.085 135.994C264.475 135.717 264.956 135.569 265.528 135.552C265.658 135.543 265.762 135.574 265.84 135.643C265.918 135.704 265.962 135.812 265.97 135.968C265.979 136.115 265.944 136.232 265.866 136.319C265.788 136.406 265.667 136.458 265.502 136.475L265.294 136.501C264.705 136.553 264.25 136.744 263.929 137.073C263.617 137.394 263.461 137.836 263.461 138.399V141.545C263.461 141.718 263.414 141.853 263.318 141.948C263.232 142.043 263.102 142.091 262.928 142.091ZM268.98 142.117C268.547 142.117 268.157 142.035 267.81 141.87C267.472 141.697 267.203 141.463 267.004 141.168C266.805 140.873 266.705 140.544 266.705 140.18C266.705 139.712 266.822 139.344 267.056 139.075C267.299 138.806 267.693 138.616 268.239 138.503C268.794 138.39 269.548 138.334 270.501 138.334H271.086V139.023H270.514C269.812 139.023 269.257 139.058 268.85 139.127C268.451 139.188 268.17 139.296 268.005 139.452C267.849 139.608 267.771 139.829 267.771 140.115C267.771 140.47 267.892 140.761 268.135 140.986C268.386 141.211 268.724 141.324 269.149 141.324C269.496 141.324 269.799 141.242 270.059 141.077C270.328 140.912 270.536 140.687 270.683 140.401C270.839 140.115 270.917 139.786 270.917 139.413V137.931C270.917 137.394 270.809 137.008 270.592 136.774C270.375 136.531 270.02 136.41 269.526 136.41C269.223 136.41 268.919 136.449 268.616 136.527C268.313 136.605 267.992 136.731 267.654 136.904C267.533 136.965 267.429 136.986 267.342 136.969C267.255 136.943 267.186 136.895 267.134 136.826C267.082 136.757 267.052 136.679 267.043 136.592C267.034 136.497 267.052 136.406 267.095 136.319C267.147 136.232 267.225 136.163 267.329 136.111C267.71 135.92 268.087 135.782 268.46 135.695C268.833 135.608 269.188 135.565 269.526 135.565C270.072 135.565 270.523 135.656 270.878 135.838C271.233 136.011 271.498 136.28 271.671 136.644C271.844 136.999 271.931 137.459 271.931 138.022V141.545C271.931 141.718 271.888 141.853 271.801 141.948C271.723 142.043 271.606 142.091 271.45 142.091C271.285 142.091 271.16 142.043 271.073 141.948C270.986 141.853 270.943 141.718 270.943 141.545V140.531H271.06C270.991 140.86 270.856 141.142 270.657 141.376C270.466 141.61 270.228 141.792 269.942 141.922C269.656 142.052 269.335 142.117 268.98 142.117ZM276.679 144.457C276.22 144.457 275.769 144.401 275.327 144.288C274.894 144.184 274.5 144.015 274.144 143.781C274.04 143.72 273.971 143.647 273.936 143.56C273.91 143.473 273.906 143.387 273.923 143.3C273.941 143.222 273.98 143.148 274.04 143.079C274.101 143.018 274.17 142.979 274.248 142.962C274.335 142.945 274.422 142.958 274.508 143.001C274.89 143.235 275.254 143.395 275.6 143.482C275.947 143.569 276.289 143.612 276.627 143.612C277.243 143.612 277.706 143.447 278.018 143.118C278.339 142.789 278.499 142.312 278.499 141.688V140.219H278.629C278.499 140.722 278.222 141.12 277.797 141.415C277.381 141.71 276.892 141.857 276.328 141.857C275.748 141.857 275.245 141.727 274.82 141.467C274.396 141.198 274.066 140.826 273.832 140.349C273.607 139.872 273.494 139.322 273.494 138.698C273.494 138.23 273.559 137.805 273.689 137.424C273.819 137.034 274.006 136.705 274.248 136.436C274.5 136.159 274.799 135.946 275.145 135.799C275.501 135.643 275.895 135.565 276.328 135.565C276.9 135.565 277.394 135.712 277.81 136.007C278.226 136.293 278.495 136.683 278.616 137.177L278.486 137.333V136.124C278.486 135.951 278.53 135.821 278.616 135.734C278.712 135.639 278.842 135.591 279.006 135.591C279.18 135.591 279.31 135.639 279.396 135.734C279.483 135.821 279.526 135.951 279.526 136.124V141.545C279.526 142.507 279.284 143.231 278.798 143.716C278.322 144.21 277.615 144.457 276.679 144.457ZM276.523 140.999C276.931 140.999 277.282 140.908 277.576 140.726C277.871 140.535 278.096 140.267 278.252 139.92C278.417 139.573 278.499 139.166 278.499 138.698C278.499 137.996 278.322 137.441 277.966 137.034C277.611 136.618 277.13 136.41 276.523 136.41C276.125 136.41 275.778 136.505 275.483 136.696C275.189 136.878 274.959 137.142 274.794 137.489C274.638 137.827 274.56 138.23 274.56 138.698C274.56 139.4 274.738 139.959 275.093 140.375C275.449 140.791 275.925 140.999 276.523 140.999ZM286.842 142.117C286.409 142.117 286.019 142.035 285.672 141.87C285.334 141.697 285.066 141.463 284.866 141.168C284.667 140.873 284.567 140.544 284.567 140.18C284.567 139.712 284.684 139.344 284.918 139.075C285.161 138.806 285.555 138.616 286.101 138.503C286.656 138.39 287.41 138.334 288.363 138.334H288.948V139.023H288.376C287.674 139.023 287.12 139.058 286.712 139.127C286.314 139.188 286.032 139.296 285.867 139.452C285.711 139.608 285.633 139.829 285.633 140.115C285.633 140.47 285.755 140.761 285.997 140.986C286.249 141.211 286.587 141.324 287.011 141.324C287.358 141.324 287.661 141.242 287.921 141.077C288.19 140.912 288.398 140.687 288.545 140.401C288.701 140.115 288.779 139.786 288.779 139.413V137.931C288.779 137.394 288.671 137.008 288.454 136.774C288.238 136.531 287.882 136.41 287.388 136.41C287.085 136.41 286.782 136.449 286.478 136.527C286.175 136.605 285.854 136.731 285.516 136.904C285.395 136.965 285.291 136.986 285.204 136.969C285.118 136.943 285.048 136.895 284.996 136.826C284.944 136.757 284.914 136.679 284.905 136.592C284.897 136.497 284.914 136.406 284.957 136.319C285.009 136.232 285.087 136.163 285.191 136.111C285.573 135.92 285.95 135.782 286.322 135.695C286.695 135.608 287.05 135.565 287.388 135.565C287.934 135.565 288.385 135.656 288.74 135.838C289.096 136.011 289.36 136.28 289.533 136.644C289.707 136.999 289.793 137.459 289.793 138.022V141.545C289.793 141.718 289.75 141.853 289.663 141.948C289.585 142.043 289.468 142.091 289.312 142.091C289.148 142.091 289.022 142.043 288.935 141.948C288.849 141.853 288.805 141.718 288.805 141.545V140.531H288.922C288.853 140.86 288.719 141.142 288.519 141.376C288.329 141.61 288.09 141.792 287.804 141.922C287.518 142.052 287.198 142.117 286.842 142.117ZM292.267 142.091C292.093 142.091 291.963 142.043 291.877 141.948C291.79 141.853 291.747 141.718 291.747 141.545V136.124C291.747 135.951 291.79 135.821 291.877 135.734C291.963 135.639 292.089 135.591 292.254 135.591C292.418 135.591 292.544 135.639 292.631 135.734C292.726 135.821 292.774 135.951 292.774 136.124V137.242L292.631 137.086C292.813 136.583 293.107 136.206 293.515 135.955C293.931 135.695 294.407 135.565 294.945 135.565C295.447 135.565 295.863 135.656 296.193 135.838C296.531 136.02 296.782 136.297 296.947 136.67C297.111 137.034 297.194 137.498 297.194 138.061V141.545C297.194 141.718 297.146 141.853 297.051 141.948C296.964 142.043 296.838 142.091 296.674 142.091C296.5 142.091 296.366 142.043 296.271 141.948C296.184 141.853 296.141 141.718 296.141 141.545V138.126C296.141 137.537 296.024 137.108 295.79 136.839C295.564 136.562 295.2 136.423 294.698 136.423C294.117 136.423 293.653 136.605 293.307 136.969C292.969 137.324 292.8 137.801 292.8 138.399V141.545C292.8 141.909 292.622 142.091 292.267 142.091ZM301.54 142.117C300.977 142.117 300.483 141.983 300.058 141.714C299.642 141.445 299.317 141.068 299.083 140.583C298.858 140.089 298.745 139.508 298.745 138.841C298.745 138.165 298.858 137.584 299.083 137.099C299.317 136.605 299.642 136.228 300.058 135.968C300.483 135.699 300.977 135.565 301.54 135.565C302.112 135.565 302.602 135.708 303.009 135.994C303.417 136.28 303.69 136.666 303.828 137.151H303.685V133.277C303.685 133.104 303.729 132.974 303.815 132.887C303.911 132.792 304.045 132.744 304.218 132.744C304.383 132.744 304.509 132.792 304.595 132.887C304.691 132.974 304.738 133.104 304.738 133.277V141.545C304.738 141.718 304.695 141.853 304.608 141.948C304.522 142.043 304.392 142.091 304.218 142.091C304.054 142.091 303.924 142.043 303.828 141.948C303.742 141.853 303.698 141.718 303.698 141.545V140.31L303.841 140.492C303.703 140.986 303.425 141.38 303.009 141.675C302.602 141.97 302.112 142.117 301.54 142.117ZM301.761 141.272C302.151 141.272 302.494 141.177 302.788 140.986C303.083 140.795 303.308 140.518 303.464 140.154C303.629 139.79 303.711 139.352 303.711 138.841C303.711 138.052 303.534 137.45 303.178 137.034C302.832 136.618 302.359 136.41 301.761 136.41C301.363 136.41 301.016 136.505 300.721 136.696C300.435 136.878 300.21 137.151 300.045 137.515C299.889 137.87 299.811 138.312 299.811 138.841C299.811 139.621 299.989 140.223 300.344 140.648C300.7 141.064 301.172 141.272 301.761 141.272ZM312.471 142.117C311.908 142.117 311.414 141.983 310.989 141.714C310.573 141.445 310.248 141.068 310.014 140.583C309.789 140.089 309.676 139.508 309.676 138.841C309.676 138.165 309.789 137.584 310.014 137.099C310.248 136.605 310.573 136.228 310.989 135.968C311.414 135.699 311.908 135.565 312.471 135.565C313.043 135.565 313.533 135.708 313.94 135.994C314.347 136.28 314.62 136.666 314.759 137.151H314.616V133.277C314.616 133.104 314.659 132.974 314.746 132.887C314.841 132.792 314.976 132.744 315.149 132.744C315.314 132.744 315.439 132.792 315.526 132.887C315.621 132.974 315.669 133.104 315.669 133.277V141.545C315.669 141.718 315.626 141.853 315.539 141.948C315.452 142.043 315.322 142.091 315.149 142.091C314.984 142.091 314.854 142.043 314.759 141.948C314.672 141.853 314.629 141.718 314.629 141.545V140.31L314.772 140.492C314.633 140.986 314.356 141.38 313.94 141.675C313.533 141.97 313.043 142.117 312.471 142.117ZM312.692 141.272C313.082 141.272 313.424 141.177 313.719 140.986C314.014 140.795 314.239 140.518 314.395 140.154C314.56 139.79 314.642 139.352 314.642 138.841C314.642 138.052 314.464 137.45 314.109 137.034C313.762 136.618 313.29 136.41 312.692 136.41C312.293 136.41 311.947 136.505 311.652 136.696C311.366 136.878 311.141 137.151 310.976 137.515C310.82 137.87 310.742 138.312 310.742 138.841C310.742 139.621 310.92 140.223 311.275 140.648C311.63 141.064 312.103 141.272 312.692 141.272ZM318.178 142.091C318.005 142.091 317.871 142.043 317.775 141.948C317.689 141.853 317.645 141.718 317.645 141.545V136.124C317.645 135.951 317.689 135.821 317.775 135.734C317.862 135.639 317.988 135.591 318.152 135.591C318.317 135.591 318.443 135.639 318.529 135.734C318.625 135.821 318.672 135.951 318.672 136.124V137.177H318.542C318.681 136.666 318.945 136.271 319.335 135.994C319.725 135.717 320.206 135.569 320.778 135.552C320.908 135.543 321.012 135.574 321.09 135.643C321.168 135.704 321.212 135.812 321.22 135.968C321.229 136.115 321.194 136.232 321.116 136.319C321.038 136.406 320.917 136.458 320.752 136.475L320.544 136.501C319.955 136.553 319.5 136.744 319.179 137.073C318.867 137.394 318.711 137.836 318.711 138.399V141.545C318.711 141.718 318.664 141.853 318.568 141.948C318.482 142.043 318.352 142.091 318.178 142.091ZM324.854 142.117C324.239 142.117 323.706 141.983 323.255 141.714C322.805 141.445 322.454 141.068 322.202 140.583C321.96 140.089 321.838 139.508 321.838 138.841C321.838 138.338 321.908 137.888 322.046 137.489C322.185 137.082 322.389 136.735 322.657 136.449C322.926 136.163 323.242 135.946 323.606 135.799C323.979 135.643 324.395 135.565 324.854 135.565C325.47 135.565 326.003 135.699 326.453 135.968C326.904 136.237 327.251 136.618 327.493 137.112C327.745 137.597 327.87 138.174 327.87 138.841C327.87 139.344 327.801 139.794 327.662 140.193C327.524 140.592 327.32 140.938 327.051 141.233C326.783 141.519 326.462 141.74 326.089 141.896C325.725 142.043 325.314 142.117 324.854 142.117ZM324.854 141.272C325.244 141.272 325.587 141.177 325.881 140.986C326.176 140.795 326.401 140.518 326.557 140.154C326.722 139.79 326.804 139.352 326.804 138.841C326.804 138.052 326.627 137.45 326.271 137.034C325.925 136.618 325.452 136.41 324.854 136.41C324.456 136.41 324.109 136.505 323.814 136.696C323.528 136.878 323.303 137.151 323.138 137.515C322.982 137.87 322.904 138.312 322.904 138.841C322.904 139.621 323.082 140.223 323.437 140.648C323.793 141.064 324.265 141.272 324.854 141.272ZM329.972 144.431C329.799 144.431 329.669 144.383 329.582 144.288C329.495 144.201 329.452 144.071 329.452 143.898V136.124C329.452 135.951 329.495 135.821 329.582 135.734C329.669 135.639 329.794 135.591 329.959 135.591C330.132 135.591 330.262 135.639 330.349 135.734C330.444 135.821 330.492 135.951 330.492 136.124V137.359L330.349 137.177C330.488 136.683 330.761 136.293 331.168 136.007C331.584 135.712 332.078 135.565 332.65 135.565C333.213 135.565 333.703 135.699 334.119 135.968C334.544 136.228 334.869 136.605 335.094 137.099C335.328 137.584 335.445 138.165 335.445 138.841C335.445 139.508 335.328 140.089 335.094 140.583C334.869 141.068 334.548 141.445 334.132 141.714C333.716 141.983 333.222 142.117 332.65 142.117C332.078 142.117 331.588 141.974 331.181 141.688C330.774 141.393 330.496 141.003 330.349 140.518H330.505V143.898C330.505 144.071 330.457 144.201 330.362 144.288C330.267 144.383 330.137 144.431 329.972 144.431ZM332.429 141.272C332.828 141.272 333.17 141.177 333.456 140.986C333.751 140.795 333.976 140.518 334.132 140.154C334.297 139.79 334.379 139.352 334.379 138.841C334.379 138.052 334.201 137.45 333.846 137.034C333.499 136.618 333.027 136.41 332.429 136.41C332.039 136.41 331.697 136.505 331.402 136.696C331.107 136.878 330.878 137.151 330.713 137.515C330.557 137.87 330.479 138.312 330.479 138.841C330.479 139.621 330.657 140.223 331.012 140.648C331.367 141.064 331.84 141.272 332.429 141.272ZM340.903 142.091C340.729 142.091 340.599 142.043 340.513 141.948C340.426 141.853 340.383 141.718 340.383 141.545V133.277C340.383 133.104 340.426 132.974 340.513 132.887C340.599 132.792 340.729 132.744 340.903 132.744C341.067 132.744 341.197 132.792 341.293 132.887C341.388 132.974 341.436 133.104 341.436 133.277V137.086H341.267C341.449 136.583 341.743 136.206 342.151 135.955C342.567 135.695 343.043 135.565 343.581 135.565C344.083 135.565 344.499 135.656 344.829 135.838C345.167 136.02 345.418 136.297 345.583 136.67C345.747 137.034 345.83 137.498 345.83 138.061V141.545C345.83 141.718 345.782 141.853 345.687 141.948C345.6 142.043 345.474 142.091 345.31 142.091C345.136 142.091 345.002 142.043 344.907 141.948C344.82 141.853 344.777 141.718 344.777 141.545V138.126C344.777 137.537 344.66 137.108 344.426 136.839C344.2 136.562 343.836 136.423 343.334 136.423C342.753 136.423 342.289 136.605 341.943 136.969C341.605 137.324 341.436 137.801 341.436 138.399V141.545C341.436 141.909 341.258 142.091 340.903 142.091ZM350.618 142.117C349.951 142.117 349.375 141.987 348.889 141.727C348.413 141.458 348.04 141.081 347.771 140.596C347.511 140.111 347.381 139.53 347.381 138.854C347.381 138.195 347.511 137.623 347.771 137.138C348.031 136.644 348.387 136.258 348.837 135.981C349.297 135.704 349.825 135.565 350.423 135.565C350.848 135.565 351.229 135.639 351.567 135.786C351.905 135.925 352.191 136.128 352.425 136.397C352.668 136.666 352.85 136.991 352.971 137.372C353.101 137.753 353.166 138.182 353.166 138.659C353.166 138.798 353.127 138.902 353.049 138.971C352.971 139.032 352.859 139.062 352.711 139.062H348.187V138.373H352.464L352.256 138.542C352.256 138.074 352.187 137.68 352.048 137.359C351.91 137.03 351.706 136.778 351.437 136.605C351.177 136.432 350.848 136.345 350.449 136.345C350.007 136.345 349.63 136.449 349.318 136.657C349.015 136.856 348.785 137.138 348.629 137.502C348.473 137.857 348.395 138.273 348.395 138.75V138.828C348.395 139.625 348.586 140.232 348.967 140.648C349.357 141.064 349.908 141.272 350.618 141.272C350.913 141.272 351.203 141.233 351.489 141.155C351.784 141.077 352.07 140.947 352.347 140.765C352.469 140.687 352.577 140.652 352.672 140.661C352.776 140.661 352.859 140.691 352.919 140.752C352.98 140.804 353.019 140.873 353.036 140.96C353.062 141.038 353.054 141.125 353.01 141.22C352.976 141.315 352.902 141.398 352.789 141.467C352.503 141.675 352.165 141.835 351.775 141.948C351.385 142.061 351 142.117 350.618 142.117ZM355.223 142.091C355.05 142.091 354.915 142.043 354.82 141.948C354.733 141.853 354.69 141.718 354.69 141.545V136.124C354.69 135.951 354.733 135.821 354.82 135.734C354.907 135.639 355.032 135.591 355.197 135.591C355.362 135.591 355.487 135.639 355.574 135.734C355.669 135.821 355.717 135.951 355.717 136.124V137.177H355.587C355.726 136.666 355.99 136.271 356.38 135.994C356.77 135.717 357.251 135.569 357.823 135.552C357.953 135.543 358.057 135.574 358.135 135.643C358.213 135.704 358.256 135.812 358.265 135.968C358.274 136.115 358.239 136.232 358.161 136.319C358.083 136.406 357.962 136.458 357.797 136.475L357.589 136.501C357 136.553 356.545 136.744 356.224 137.073C355.912 137.394 355.756 137.836 355.756 138.399V141.545C355.756 141.718 355.708 141.853 355.613 141.948C355.526 142.043 355.396 142.091 355.223 142.091ZM362.12 142.117C361.453 142.117 360.876 141.987 360.391 141.727C359.914 141.458 359.542 141.081 359.273 140.596C359.013 140.111 358.883 139.53 358.883 138.854C358.883 138.195 359.013 137.623 359.273 137.138C359.533 136.644 359.888 136.258 360.339 135.981C360.798 135.704 361.327 135.565 361.925 135.565C362.35 135.565 362.731 135.639 363.069 135.786C363.407 135.925 363.693 136.128 363.927 136.397C364.17 136.666 364.352 136.991 364.473 137.372C364.603 137.753 364.668 138.182 364.668 138.659C364.668 138.798 364.629 138.902 364.551 138.971C364.473 139.032 364.36 139.062 364.213 139.062H359.689V138.373H363.966L363.758 138.542C363.758 138.074 363.689 137.68 363.55 137.359C363.411 137.03 363.208 136.778 362.939 136.605C362.679 136.432 362.35 136.345 361.951 136.345C361.509 136.345 361.132 136.449 360.82 136.657C360.517 136.856 360.287 137.138 360.131 137.502C359.975 137.857 359.897 138.273 359.897 138.75V138.828C359.897 139.625 360.088 140.232 360.469 140.648C360.859 141.064 361.409 141.272 362.12 141.272C362.415 141.272 362.705 141.233 362.991 141.155C363.286 141.077 363.572 140.947 363.849 140.765C363.97 140.687 364.079 140.652 364.174 140.661C364.278 140.661 364.36 140.691 364.421 140.752C364.482 140.804 364.521 140.873 364.538 140.96C364.564 141.038 364.555 141.125 364.512 141.22C364.477 141.315 364.404 141.398 364.291 141.467C364.005 141.675 363.667 141.835 363.277 141.948C362.887 142.061 362.501 142.117 362.12 142.117Z" fill="#030229"/>
<path d="M142.836 171.072C142.684 171.08 142.568 171.04 142.488 170.952C142.4 170.864 142.356 170.756 142.356 170.628C142.356 170.532 142.388 170.444 142.452 170.364C142.508 170.284 142.6 170.24 142.728 170.232L143.1 170.208C143.508 170.176 143.82 170.036 144.036 169.788C144.252 169.532 144.36 169.184 144.36 168.744V162.96C144.36 162.792 144.4 162.668 144.48 162.588C144.568 162.5 144.692 162.456 144.852 162.456C145.012 162.456 145.132 162.5 145.212 162.588C145.3 162.668 145.344 162.792 145.344 162.96V168.756C145.344 169.212 145.264 169.608 145.104 169.944C144.944 170.272 144.704 170.528 144.384 170.712C144.072 170.896 143.688 171.004 143.232 171.036L142.836 171.072ZM147.927 171.084C147.767 171.084 147.643 171.04 147.555 170.952C147.475 170.856 147.435 170.728 147.435 170.568V163.044C147.435 162.876 147.479 162.752 147.567 162.672C147.655 162.584 147.779 162.54 147.939 162.54H150.783C151.687 162.54 152.383 162.764 152.871 163.212C153.359 163.652 153.603 164.276 153.603 165.084C153.603 165.884 153.359 166.508 152.871 166.956C152.383 167.404 151.687 167.628 150.783 167.628H148.419V170.568C148.419 170.728 148.379 170.856 148.299 170.952C148.219 171.04 148.095 171.084 147.927 171.084ZM148.419 166.8H150.663C151.311 166.8 151.799 166.656 152.127 166.368C152.463 166.072 152.631 165.644 152.631 165.084C152.631 164.516 152.463 164.088 152.127 163.8C151.799 163.504 151.311 163.356 150.663 163.356H148.419V166.8ZM158.799 171.108C157.895 171.108 157.131 170.936 156.507 170.592C155.891 170.248 155.423 169.752 155.103 169.104C154.783 168.456 154.623 167.68 154.623 166.776C154.623 166.104 154.711 165.5 154.887 164.964C155.071 164.428 155.335 163.976 155.679 163.608C156.031 163.232 156.455 162.944 156.951 162.744C157.455 162.536 158.023 162.432 158.655 162.432C159.159 162.432 159.647 162.504 160.119 162.648C160.591 162.784 161.011 163.004 161.379 163.308C161.475 163.38 161.535 163.46 161.559 163.548C161.583 163.636 161.579 163.724 161.547 163.812C161.523 163.9 161.479 163.976 161.415 164.04C161.359 164.096 161.283 164.128 161.187 164.136C161.099 164.144 161.007 164.116 160.911 164.052C160.583 163.796 160.235 163.612 159.867 163.5C159.499 163.38 159.091 163.32 158.643 163.32C158.003 163.32 157.459 163.456 157.011 163.728C156.571 164 156.235 164.392 156.003 164.904C155.779 165.416 155.667 166.04 155.667 166.776C155.667 167.896 155.927 168.752 156.447 169.344C156.975 169.936 157.767 170.232 158.823 170.232C159.207 170.232 159.583 170.196 159.951 170.124C160.319 170.044 160.667 169.936 160.995 169.8L160.779 170.364V167.376H159.063C158.919 167.376 158.811 167.34 158.739 167.268C158.667 167.196 158.631 167.1 158.631 166.98C158.631 166.852 158.667 166.756 158.739 166.692C158.811 166.628 158.919 166.596 159.063 166.596H161.211C161.347 166.596 161.451 166.632 161.523 166.704C161.595 166.776 161.631 166.88 161.631 167.016V170.148C161.631 170.268 161.611 170.368 161.571 170.448C161.531 170.528 161.463 170.588 161.367 170.628C161.031 170.764 160.627 170.88 160.155 170.976C159.691 171.064 159.239 171.108 158.799 171.108ZM164.086 172.14C164.006 172.244 163.922 172.304 163.834 172.32C163.746 172.336 163.67 172.32 163.606 172.272C163.542 172.224 163.506 172.156 163.498 172.068C163.498 171.98 163.538 171.884 163.618 171.78C163.746 171.612 163.834 171.44 163.882 171.264C163.93 171.096 163.954 170.94 163.954 170.796L164.002 171.048C163.794 171.048 163.626 170.988 163.498 170.868C163.378 170.74 163.318 170.58 163.318 170.388C163.318 170.196 163.374 170.04 163.486 169.92C163.606 169.792 163.762 169.728 163.954 169.728C164.162 169.728 164.326 169.8 164.446 169.944C164.566 170.08 164.626 170.28 164.626 170.544C164.626 170.712 164.61 170.884 164.578 171.06C164.546 171.244 164.49 171.428 164.41 171.612C164.33 171.796 164.222 171.972 164.086 172.14ZM169.958 171.084C169.798 171.084 169.674 171.04 169.586 170.952C169.506 170.856 169.466 170.728 169.466 170.568V163.044C169.466 162.876 169.51 162.752 169.598 162.672C169.686 162.584 169.81 162.54 169.97 162.54H172.814C173.718 162.54 174.414 162.764 174.902 163.212C175.39 163.652 175.634 164.276 175.634 165.084C175.634 165.884 175.39 166.508 174.902 166.956C174.414 167.404 173.718 167.628 172.814 167.628H170.45V170.568C170.45 170.728 170.41 170.856 170.33 170.952C170.25 171.04 170.126 171.084 169.958 171.084ZM170.45 166.8H172.694C173.342 166.8 173.83 166.656 174.158 166.368C174.494 166.072 174.662 165.644 174.662 165.084C174.662 164.516 174.494 164.088 174.158 163.8C173.83 163.504 173.342 163.356 172.694 163.356H170.45V166.8ZM177.528 171.084C177.376 171.084 177.26 171.044 177.18 170.964C177.1 170.876 177.06 170.752 177.06 170.592V162.96C177.06 162.8 177.1 162.676 177.18 162.588C177.26 162.5 177.364 162.456 177.492 162.456C177.62 162.456 177.712 162.48 177.768 162.528C177.832 162.568 177.904 162.644 177.984 162.756L183.216 169.728H182.928V162.936C182.928 162.784 182.968 162.668 183.048 162.588C183.128 162.5 183.244 162.456 183.396 162.456C183.54 162.456 183.648 162.5 183.72 162.588C183.8 162.668 183.84 162.784 183.84 162.936V170.604C183.84 170.756 183.804 170.876 183.732 170.964C183.668 171.044 183.572 171.084 183.444 171.084C183.324 171.084 183.228 171.06 183.156 171.012C183.084 170.964 183.008 170.888 182.928 170.784L177.708 163.812H177.984V170.592C177.984 170.752 177.944 170.876 177.864 170.964C177.784 171.044 177.672 171.084 177.528 171.084ZM189.806 171.108C188.902 171.108 188.138 170.936 187.514 170.592C186.898 170.248 186.43 169.752 186.11 169.104C185.79 168.456 185.63 167.68 185.63 166.776C185.63 166.104 185.718 165.5 185.894 164.964C186.078 164.428 186.342 163.976 186.686 163.608C187.038 163.232 187.462 162.944 187.958 162.744C188.462 162.536 189.03 162.432 189.662 162.432C190.166 162.432 190.654 162.504 191.126 162.648C191.598 162.784 192.018 163.004 192.386 163.308C192.482 163.38 192.542 163.46 192.566 163.548C192.59 163.636 192.586 163.724 192.554 163.812C192.53 163.9 192.486 163.976 192.422 164.04C192.366 164.096 192.29 164.128 192.194 164.136C192.106 164.144 192.014 164.116 191.918 164.052C191.59 163.796 191.242 163.612 190.874 163.5C190.506 163.38 190.098 163.32 189.65 163.32C189.01 163.32 188.466 163.456 188.018 163.728C187.578 164 187.242 164.392 187.01 164.904C186.786 165.416 186.674 166.04 186.674 166.776C186.674 167.896 186.934 168.752 187.454 169.344C187.982 169.936 188.774 170.232 189.83 170.232C190.214 170.232 190.59 170.196 190.958 170.124C191.326 170.044 191.674 169.936 192.002 169.8L191.786 170.364V167.376H190.07C189.926 167.376 189.818 167.34 189.746 167.268C189.674 167.196 189.638 167.1 189.638 166.98C189.638 166.852 189.674 166.756 189.746 166.692C189.818 166.628 189.926 166.596 190.07 166.596H192.218C192.354 166.596 192.458 166.632 192.53 166.704C192.602 166.776 192.638 166.88 192.638 167.016V170.148C192.638 170.268 192.618 170.368 192.578 170.448C192.538 170.528 192.47 170.588 192.374 170.628C192.038 170.764 191.634 170.88 191.162 170.976C190.698 171.064 190.246 171.108 189.806 171.108ZM200.035 171.108C199.467 171.108 198.975 170.984 198.559 170.736C198.143 170.488 197.819 170.14 197.587 169.692C197.363 169.236 197.251 168.7 197.251 168.084C197.251 167.62 197.315 167.204 197.443 166.836C197.571 166.46 197.759 166.14 198.007 165.876C198.255 165.612 198.547 165.412 198.883 165.276C199.227 165.132 199.611 165.06 200.035 165.06C200.603 165.06 201.095 165.184 201.511 165.432C201.927 165.68 202.247 166.032 202.471 166.488C202.703 166.936 202.819 167.468 202.819 168.084C202.819 168.548 202.755 168.964 202.627 169.332C202.499 169.7 202.311 170.02 202.063 170.292C201.815 170.556 201.519 170.76 201.175 170.904C200.839 171.04 200.459 171.108 200.035 171.108ZM200.035 170.328C200.395 170.328 200.711 170.24 200.983 170.064C201.255 169.888 201.463 169.632 201.607 169.296C201.759 168.96 201.835 168.556 201.835 168.084C201.835 167.356 201.671 166.8 201.343 166.416C201.023 166.032 200.587 165.84 200.035 165.84C199.667 165.84 199.347 165.928 199.075 166.104C198.811 166.272 198.603 166.524 198.451 166.86C198.307 167.188 198.235 167.596 198.235 168.084C198.235 168.804 198.399 169.36 198.727 169.752C199.055 170.136 199.491 170.328 200.035 170.328ZM204.771 171.084C204.611 171.084 204.487 171.04 204.399 170.952C204.319 170.864 204.279 170.74 204.279 170.58V165.576C204.279 165.416 204.319 165.296 204.399 165.216C204.479 165.128 204.595 165.084 204.747 165.084C204.899 165.084 205.015 165.128 205.095 165.216C205.183 165.296 205.227 165.416 205.227 165.576V166.548H205.107C205.235 166.076 205.479 165.712 205.839 165.456C206.199 165.2 206.643 165.064 207.171 165.048C207.291 165.04 207.387 165.068 207.459 165.132C207.531 165.188 207.571 165.288 207.579 165.432C207.587 165.568 207.555 165.676 207.483 165.756C207.411 165.836 207.299 165.884 207.147 165.9L206.955 165.924C206.411 165.972 205.991 166.148 205.695 166.452C205.407 166.748 205.263 167.156 205.263 167.676V170.58C205.263 170.74 205.219 170.864 205.131 170.952C205.051 171.04 204.931 171.084 204.771 171.084ZM212.298 171.084C212.138 171.084 212.014 171.04 211.926 170.952C211.846 170.856 211.806 170.728 211.806 170.568V163.044C211.806 162.876 211.85 162.752 211.938 162.672C212.026 162.584 212.15 162.54 212.31 162.54H215.154C216.058 162.54 216.754 162.764 217.242 163.212C217.73 163.652 217.974 164.276 217.974 165.084C217.974 165.884 217.73 166.508 217.242 166.956C216.754 167.404 216.058 167.628 215.154 167.628H212.79V170.568C212.79 170.728 212.75 170.856 212.67 170.952C212.59 171.04 212.466 171.084 212.298 171.084ZM212.79 166.8H215.034C215.682 166.8 216.17 166.656 216.498 166.368C216.834 166.072 217.002 165.644 217.002 165.084C217.002 164.516 216.834 164.088 216.498 163.8C216.17 163.504 215.682 163.356 215.034 163.356H212.79V166.8ZM219.939 171C219.763 171 219.627 170.956 219.531 170.868C219.443 170.772 219.399 170.636 219.399 170.46V163.08C219.399 162.904 219.443 162.772 219.531 162.684C219.627 162.588 219.763 162.54 219.939 162.54H222.255C223.623 162.54 224.679 162.9 225.423 163.62C226.167 164.34 226.539 165.388 226.539 166.764C226.539 167.452 226.443 168.06 226.251 168.588C226.067 169.108 225.791 169.548 225.423 169.908C225.055 170.268 224.607 170.54 224.079 170.724C223.551 170.908 222.943 171 222.255 171H219.939ZM220.383 170.16H222.183C222.743 170.16 223.227 170.088 223.635 169.944C224.051 169.8 224.395 169.588 224.667 169.308C224.947 169.028 225.155 168.676 225.291 168.252C225.427 167.82 225.495 167.324 225.495 166.764C225.495 165.636 225.219 164.792 224.667 164.232C224.115 163.664 223.287 163.38 222.183 163.38H220.383V170.16ZM228.834 171.084C228.666 171.084 228.534 171.04 228.438 170.952C228.35 170.856 228.306 170.72 228.306 170.544V163.08C228.306 162.904 228.35 162.772 228.438 162.684C228.534 162.588 228.67 162.54 228.846 162.54H233.202C233.338 162.54 233.442 162.576 233.514 162.648C233.586 162.72 233.622 162.82 233.622 162.948C233.622 163.084 233.586 163.188 233.514 163.26C233.442 163.332 233.338 163.368 233.202 163.368H229.29V166.32H232.95C233.086 166.32 233.19 166.356 233.262 166.428C233.342 166.5 233.382 166.6 233.382 166.728C233.382 166.864 233.342 166.968 233.262 167.04C233.19 167.112 233.086 167.148 232.95 167.148H229.29V170.544C229.29 170.904 229.138 171.084 228.834 171.084ZM234.996 172.14C234.916 172.244 234.832 172.304 234.744 172.32C234.656 172.336 234.58 172.32 234.516 172.272C234.452 172.224 234.416 172.156 234.408 172.068C234.408 171.98 234.448 171.884 234.528 171.78C234.656 171.612 234.744 171.44 234.792 171.264C234.84 171.096 234.864 170.94 234.864 170.796L234.912 171.048C234.704 171.048 234.536 170.988 234.408 170.868C234.288 170.74 234.228 170.58 234.228 170.388C234.228 170.196 234.284 170.04 234.396 169.92C234.516 169.792 234.672 169.728 234.864 169.728C235.072 169.728 235.236 169.8 235.356 169.944C235.476 170.08 235.536 170.28 235.536 170.544C235.536 170.712 235.52 170.884 235.488 171.06C235.456 171.244 235.4 171.428 235.32 171.612C235.24 171.796 235.132 171.972 234.996 172.14ZM241.036 171.084C240.884 171.084 240.764 171.04 240.676 170.952C240.596 170.864 240.556 170.74 240.556 170.58V165.924H239.788C239.66 165.924 239.556 165.892 239.476 165.828C239.404 165.756 239.368 165.66 239.368 165.54C239.368 165.42 239.404 165.328 239.476 165.264C239.556 165.2 239.66 165.168 239.788 165.168H240.82L240.556 165.42V164.964C240.556 164.212 240.736 163.636 241.096 163.236C241.464 162.836 242.004 162.608 242.716 162.552L243.076 162.516C243.196 162.508 243.292 162.528 243.364 162.576C243.436 162.616 243.48 162.672 243.496 162.744C243.52 162.816 243.524 162.892 243.508 162.972C243.492 163.052 243.456 163.12 243.4 163.176C243.352 163.232 243.292 163.264 243.22 163.272L242.86 163.296C242.388 163.328 242.048 163.476 241.84 163.74C241.632 163.996 241.528 164.364 241.528 164.844V165.348L241.384 165.168H244.648C244.8 165.168 244.916 165.212 244.996 165.3C245.084 165.388 245.128 165.516 245.128 165.684V170.532C245.128 170.7 245.088 170.832 245.008 170.928C244.928 171.016 244.808 171.06 244.648 171.06C244.488 171.06 244.364 171.016 244.276 170.928C244.196 170.832 244.156 170.7 244.156 170.532V165.924H241.528V170.58C241.528 170.916 241.364 171.084 241.036 171.084ZM244.66 163.764C244.46 163.764 244.304 163.712 244.192 163.608C244.088 163.496 244.036 163.348 244.036 163.164C244.036 162.972 244.088 162.828 244.192 162.732C244.304 162.628 244.46 162.576 244.66 162.576C244.86 162.576 245.012 162.628 245.116 162.732C245.228 162.828 245.284 162.972 245.284 163.164C245.284 163.348 245.228 163.496 245.116 163.608C245.012 163.712 244.86 163.764 244.66 163.764ZM248.723 171.108C248.147 171.108 247.707 170.932 247.403 170.58C247.099 170.228 246.947 169.724 246.947 169.068V162.948C246.947 162.788 246.987 162.668 247.067 162.588C247.147 162.5 247.267 162.456 247.427 162.456C247.579 162.456 247.699 162.5 247.787 162.588C247.875 162.668 247.919 162.788 247.919 162.948V168.996C247.919 169.428 248.003 169.752 248.171 169.968C248.347 170.176 248.603 170.28 248.939 170.28C249.011 170.28 249.075 170.276 249.131 170.268C249.187 170.26 249.243 170.256 249.299 170.256C249.387 170.248 249.447 170.268 249.479 170.316C249.519 170.364 249.539 170.46 249.539 170.604C249.539 170.748 249.507 170.856 249.443 170.928C249.379 171 249.275 171.048 249.131 171.072C249.067 171.08 248.999 171.088 248.927 171.096C248.855 171.104 248.787 171.108 248.723 171.108ZM253.067 171.108C252.451 171.108 251.919 170.988 251.471 170.748C251.031 170.5 250.687 170.152 250.439 169.704C250.199 169.256 250.079 168.72 250.079 168.096C250.079 167.488 250.199 166.96 250.439 166.512C250.679 166.056 251.007 165.7 251.423 165.444C251.847 165.188 252.335 165.06 252.887 165.06C253.279 165.06 253.631 165.128 253.943 165.264C254.255 165.392 254.519 165.58 254.735 165.828C254.959 166.076 255.127 166.376 255.239 166.728C255.359 167.08 255.419 167.476 255.419 167.916C255.419 168.044 255.383 168.14 255.311 168.204C255.239 168.26 255.135 168.288 254.999 168.288H250.823V167.652H254.771L254.579 167.808C254.579 167.376 254.515 167.012 254.387 166.716C254.259 166.412 254.071 166.18 253.823 166.02C253.583 165.86 253.279 165.78 252.911 165.78C252.503 165.78 252.155 165.876 251.867 166.068C251.587 166.252 251.375 166.512 251.231 166.848C251.087 167.176 251.015 167.56 251.015 168V168.072C251.015 168.808 251.191 169.368 251.543 169.752C251.903 170.136 252.411 170.328 253.067 170.328C253.339 170.328 253.607 170.292 253.871 170.22C254.143 170.148 254.407 170.028 254.663 169.86C254.775 169.788 254.875 169.756 254.963 169.764C255.059 169.764 255.135 169.792 255.191 169.848C255.247 169.896 255.283 169.96 255.299 170.04C255.323 170.112 255.315 170.192 255.275 170.28C255.243 170.368 255.175 170.444 255.071 170.508C254.807 170.7 254.495 170.848 254.135 170.952C253.775 171.056 253.419 171.108 253.067 171.108ZM261.888 171.108C261.528 171.108 261.164 171.064 260.796 170.976C260.436 170.888 260.1 170.736 259.788 170.52C259.708 170.464 259.652 170.4 259.62 170.328C259.588 170.248 259.576 170.172 259.584 170.1C259.6 170.02 259.632 169.952 259.68 169.896C259.736 169.84 259.8 169.808 259.872 169.8C259.952 169.784 260.04 169.8 260.136 169.848C260.448 170.04 260.748 170.176 261.036 170.256C261.332 170.328 261.624 170.364 261.912 170.364C262.368 170.364 262.712 170.28 262.944 170.112C263.176 169.944 263.292 169.716 263.292 169.428C263.292 169.204 263.216 169.028 263.064 168.9C262.912 168.764 262.672 168.66 262.344 168.588L261.252 168.348C260.748 168.244 260.372 168.064 260.124 167.808C259.884 167.552 259.764 167.22 259.764 166.812C259.764 166.452 259.856 166.144 260.04 165.888C260.232 165.624 260.5 165.42 260.844 165.276C261.188 165.132 261.588 165.06 262.044 165.06C262.396 165.06 262.728 165.108 263.04 165.204C263.36 165.292 263.648 165.436 263.904 165.636C263.984 165.692 264.036 165.76 264.06 165.84C264.092 165.912 264.096 165.988 264.072 166.068C264.056 166.14 264.02 166.204 263.964 166.26C263.908 166.308 263.84 166.336 263.76 166.344C263.68 166.352 263.596 166.328 263.508 166.272C263.268 166.112 263.024 165.996 262.776 165.924C262.528 165.844 262.284 165.804 262.044 165.804C261.596 165.804 261.256 165.892 261.024 166.068C260.792 166.244 260.676 166.476 260.676 166.764C260.676 166.988 260.748 167.172 260.892 167.316C261.036 167.46 261.26 167.564 261.564 167.628L262.656 167.856C263.176 167.968 263.564 168.148 263.82 168.396C264.084 168.636 264.216 168.964 264.216 169.38C264.216 169.908 264.004 170.328 263.58 170.64C263.156 170.952 262.592 171.108 261.888 171.108ZM266.177 171.06C266.017 171.06 265.897 171.016 265.817 170.928C265.737 170.832 265.697 170.7 265.697 170.532V165.624C265.697 165.456 265.737 165.328 265.817 165.24C265.897 165.152 266.017 165.108 266.177 165.108C266.329 165.108 266.449 165.152 266.537 165.24C266.625 165.328 266.669 165.456 266.669 165.624V170.532C266.669 170.7 266.625 170.832 266.537 170.928C266.457 171.016 266.337 171.06 266.177 171.06ZM266.177 163.764C265.977 163.764 265.821 163.712 265.709 163.608C265.597 163.496 265.541 163.348 265.541 163.164C265.541 162.972 265.597 162.828 265.709 162.732C265.821 162.628 265.977 162.576 266.177 162.576C266.385 162.576 266.541 162.628 266.645 162.732C266.757 162.828 266.813 162.972 266.813 163.164C266.813 163.348 266.757 163.496 266.645 163.608C266.541 163.712 266.385 163.764 266.177 163.764ZM268.594 171C268.49 171 268.406 170.976 268.342 170.928C268.278 170.88 268.234 170.816 268.21 170.736C268.186 170.656 268.186 170.568 268.21 170.472C268.234 170.376 268.286 170.284 268.366 170.196L271.75 165.672V165.924H268.546C268.418 165.924 268.318 165.892 268.246 165.828C268.182 165.756 268.15 165.66 268.15 165.54C268.15 165.42 268.182 165.328 268.246 165.264C268.318 165.2 268.418 165.168 268.546 165.168H272.23C272.35 165.168 272.446 165.192 272.518 165.24C272.598 165.288 272.65 165.352 272.674 165.432C272.698 165.504 272.698 165.588 272.674 165.684C272.658 165.772 272.614 165.86 272.542 165.948L269.098 170.52V170.244H272.47C272.734 170.244 272.866 170.368 272.866 170.616C272.866 170.736 272.83 170.832 272.758 170.904C272.694 170.968 272.598 171 272.47 171H268.594ZM276.552 171.108C275.936 171.108 275.404 170.988 274.956 170.748C274.516 170.5 274.172 170.152 273.924 169.704C273.684 169.256 273.564 168.72 273.564 168.096C273.564 167.488 273.684 166.96 273.924 166.512C274.164 166.056 274.492 165.7 274.908 165.444C275.332 165.188 275.82 165.06 276.372 165.06C276.764 165.06 277.116 165.128 277.428 165.264C277.74 165.392 278.004 165.58 278.22 165.828C278.444 166.076 278.612 166.376 278.724 166.728C278.844 167.08 278.904 167.476 278.904 167.916C278.904 168.044 278.868 168.14 278.796 168.204C278.724 168.26 278.62 168.288 278.484 168.288H274.308V167.652H278.256L278.064 167.808C278.064 167.376 278 167.012 277.872 166.716C277.744 166.412 277.556 166.18 277.308 166.02C277.068 165.86 276.764 165.78 276.396 165.78C275.988 165.78 275.64 165.876 275.352 166.068C275.072 166.252 274.86 166.512 274.716 166.848C274.572 167.176 274.5 167.56 274.5 168V168.072C274.5 168.808 274.676 169.368 275.028 169.752C275.388 170.136 275.896 170.328 276.552 170.328C276.824 170.328 277.092 170.292 277.356 170.22C277.628 170.148 277.892 170.028 278.148 169.86C278.26 169.788 278.36 169.756 278.448 169.764C278.544 169.764 278.62 169.792 278.676 169.848C278.732 169.896 278.768 169.96 278.784 170.04C278.808 170.112 278.8 170.192 278.76 170.28C278.728 170.368 278.66 170.444 278.556 170.508C278.292 170.7 277.98 170.848 277.62 170.952C277.26 171.056 276.904 171.108 276.552 171.108ZM283.884 171.084C283.724 171.084 283.604 171.04 283.524 170.952C283.444 170.864 283.404 170.74 283.404 170.58V165.576C283.404 165.416 283.444 165.296 283.524 165.216C283.604 165.128 283.72 165.084 283.872 165.084C284.024 165.084 284.14 165.128 284.22 165.216C284.308 165.296 284.352 165.416 284.352 165.576V166.608L284.22 166.464C284.388 166 284.66 165.652 285.036 165.42C285.42 165.18 285.86 165.06 286.356 165.06C286.82 165.06 287.204 165.144 287.508 165.312C287.82 165.48 288.052 165.736 288.204 166.08C288.356 166.416 288.432 166.844 288.432 167.364V170.58C288.432 170.74 288.388 170.864 288.3 170.952C288.22 171.04 288.104 171.084 287.952 171.084C287.792 171.084 287.668 171.04 287.58 170.952C287.5 170.864 287.46 170.74 287.46 170.58V167.424C287.46 166.88 287.352 166.484 287.136 166.236C286.928 165.98 286.592 165.852 286.128 165.852C285.592 165.852 285.164 166.02 284.844 166.356C284.532 166.684 284.376 167.124 284.376 167.676V170.58C284.376 170.916 284.212 171.084 283.884 171.084ZM292.649 171.108C292.081 171.108 291.589 170.984 291.173 170.736C290.757 170.488 290.433 170.14 290.201 169.692C289.977 169.236 289.865 168.7 289.865 168.084C289.865 167.62 289.929 167.204 290.057 166.836C290.185 166.46 290.373 166.14 290.621 165.876C290.869 165.612 291.161 165.412 291.497 165.276C291.841 165.132 292.225 165.06 292.649 165.06C293.217 165.06 293.709 165.184 294.125 165.432C294.541 165.68 294.861 166.032 295.085 166.488C295.317 166.936 295.433 167.468 295.433 168.084C295.433 168.548 295.369 168.964 295.241 169.332C295.113 169.7 294.925 170.02 294.677 170.292C294.429 170.556 294.133 170.76 293.789 170.904C293.453 171.04 293.073 171.108 292.649 171.108ZM292.649 170.328C293.009 170.328 293.325 170.24 293.597 170.064C293.869 169.888 294.077 169.632 294.221 169.296C294.373 168.96 294.449 168.556 294.449 168.084C294.449 167.356 294.285 166.8 293.957 166.416C293.637 166.032 293.201 165.84 292.649 165.84C292.281 165.84 291.961 165.928 291.689 166.104C291.425 166.272 291.217 166.524 291.065 166.86C290.921 167.188 290.849 167.596 290.849 168.084C290.849 168.804 291.013 169.36 291.341 169.752C291.669 170.136 292.105 170.328 292.649 170.328ZM300.49 171.084C300.33 171.084 300.21 171.04 300.13 170.952C300.05 170.864 300.01 170.74 300.01 170.58V165.576C300.01 165.416 300.05 165.296 300.13 165.216C300.21 165.128 300.326 165.084 300.478 165.084C300.63 165.084 300.746 165.128 300.826 165.216C300.914 165.296 300.958 165.416 300.958 165.576V166.632L300.826 166.464C300.978 166.016 301.222 165.672 301.558 165.432C301.902 165.184 302.31 165.06 302.782 165.06C303.278 165.06 303.678 165.18 303.982 165.42C304.294 165.652 304.502 166.016 304.606 166.512H304.426C304.57 166.064 304.826 165.712 305.194 165.456C305.57 165.192 306.006 165.06 306.502 165.06C306.942 165.06 307.302 165.144 307.582 165.312C307.87 165.48 308.086 165.736 308.23 166.08C308.374 166.416 308.446 166.844 308.446 167.364V170.58C308.446 170.74 308.402 170.864 308.314 170.952C308.234 171.04 308.114 171.084 307.954 171.084C307.802 171.084 307.682 171.04 307.594 170.952C307.514 170.864 307.474 170.74 307.474 170.58V167.412C307.474 166.876 307.382 166.484 307.198 166.236C307.014 165.98 306.702 165.852 306.262 165.852C305.782 165.852 305.402 166.02 305.122 166.356C304.85 166.684 304.714 167.132 304.714 167.7V170.58C304.714 170.74 304.67 170.864 304.582 170.952C304.502 171.04 304.382 171.084 304.222 171.084C304.07 171.084 303.95 171.04 303.862 170.952C303.782 170.864 303.742 170.74 303.742 170.58V167.412C303.742 166.876 303.646 166.484 303.454 166.236C303.27 165.98 302.962 165.852 302.53 165.852C302.05 165.852 301.67 166.02 301.39 166.356C301.118 166.684 300.982 167.132 300.982 167.7V170.58C300.982 170.916 300.818 171.084 300.49 171.084ZM312.688 171.108C312.12 171.108 311.628 170.984 311.212 170.736C310.796 170.488 310.472 170.14 310.24 169.692C310.016 169.236 309.904 168.7 309.904 168.084C309.904 167.62 309.968 167.204 310.096 166.836C310.224 166.46 310.412 166.14 310.66 165.876C310.908 165.612 311.2 165.412 311.536 165.276C311.88 165.132 312.264 165.06 312.688 165.06C313.256 165.06 313.748 165.184 314.164 165.432C314.58 165.68 314.9 166.032 315.124 166.488C315.356 166.936 315.472 167.468 315.472 168.084C315.472 168.548 315.408 168.964 315.28 169.332C315.152 169.7 314.964 170.02 314.716 170.292C314.468 170.556 314.172 170.76 313.828 170.904C313.492 171.04 313.112 171.108 312.688 171.108ZM312.688 170.328C313.048 170.328 313.364 170.24 313.636 170.064C313.908 169.888 314.116 169.632 314.26 169.296C314.412 168.96 314.488 168.556 314.488 168.084C314.488 167.356 314.324 166.8 313.996 166.416C313.676 166.032 313.24 165.84 312.688 165.84C312.32 165.84 312 165.928 311.728 166.104C311.464 166.272 311.256 166.524 311.104 166.86C310.96 167.188 310.888 167.596 310.888 168.084C310.888 168.804 311.052 169.36 311.38 169.752C311.708 170.136 312.144 170.328 312.688 170.328ZM317.424 171.084C317.264 171.084 317.14 171.04 317.052 170.952C316.972 170.864 316.932 170.74 316.932 170.58V165.576C316.932 165.416 316.972 165.296 317.052 165.216C317.132 165.128 317.248 165.084 317.4 165.084C317.552 165.084 317.668 165.128 317.748 165.216C317.836 165.296 317.88 165.416 317.88 165.576V166.548H317.76C317.888 166.076 318.132 165.712 318.492 165.456C318.852 165.2 319.296 165.064 319.824 165.048C319.944 165.04 320.04 165.068 320.112 165.132C320.184 165.188 320.224 165.288 320.232 165.432C320.24 165.568 320.208 165.676 320.136 165.756C320.064 165.836 319.952 165.884 319.8 165.9L319.608 165.924C319.064 165.972 318.644 166.148 318.348 166.452C318.06 166.748 317.916 167.156 317.916 167.676V170.58C317.916 170.74 317.872 170.864 317.784 170.952C317.704 171.04 317.584 171.084 317.424 171.084ZM323.79 171.108C323.174 171.108 322.642 170.988 322.194 170.748C321.754 170.5 321.41 170.152 321.162 169.704C320.922 169.256 320.802 168.72 320.802 168.096C320.802 167.488 320.922 166.96 321.162 166.512C321.402 166.056 321.73 165.7 322.146 165.444C322.57 165.188 323.058 165.06 323.61 165.06C324.002 165.06 324.354 165.128 324.666 165.264C324.978 165.392 325.242 165.58 325.458 165.828C325.682 166.076 325.85 166.376 325.962 166.728C326.082 167.08 326.142 167.476 326.142 167.916C326.142 168.044 326.106 168.14 326.034 168.204C325.962 168.26 325.858 168.288 325.722 168.288H321.546V167.652H325.494L325.302 167.808C325.302 167.376 325.238 167.012 325.11 166.716C324.982 166.412 324.794 166.18 324.546 166.02C324.306 165.86 324.002 165.78 323.634 165.78C323.226 165.78 322.878 165.876 322.59 166.068C322.31 166.252 322.098 166.512 321.954 166.848C321.81 167.176 321.738 167.56 321.738 168V168.072C321.738 168.808 321.914 169.368 322.266 169.752C322.626 170.136 323.134 170.328 323.79 170.328C324.062 170.328 324.33 170.292 324.594 170.22C324.866 170.148 325.13 170.028 325.386 169.86C325.498 169.788 325.598 169.756 325.686 169.764C325.782 169.764 325.858 169.792 325.914 169.848C325.97 169.896 326.006 169.96 326.022 170.04C326.046 170.112 326.038 170.192 325.998 170.28C325.966 170.368 325.898 170.444 325.794 170.508C325.53 170.7 325.218 170.848 324.858 170.952C324.498 171.056 324.142 171.108 323.79 171.108ZM332.982 171.108C332.526 171.108 332.142 171.028 331.83 170.868C331.526 170.7 331.298 170.46 331.146 170.148C330.994 169.828 330.918 169.44 330.918 168.984V165.924H330.114C329.978 165.924 329.874 165.892 329.802 165.828C329.73 165.756 329.694 165.66 329.694 165.54C329.694 165.42 329.73 165.328 329.802 165.264C329.874 165.2 329.978 165.168 330.114 165.168H330.918V163.788C330.918 163.628 330.962 163.508 331.05 163.428C331.138 163.34 331.258 163.296 331.41 163.296C331.562 163.296 331.678 163.34 331.758 163.428C331.846 163.508 331.89 163.628 331.89 163.788V165.168H333.402C333.538 165.168 333.642 165.2 333.714 165.264C333.786 165.328 333.822 165.42 333.822 165.54C333.822 165.66 333.786 165.756 333.714 165.828C333.642 165.892 333.538 165.924 333.402 165.924H331.89V168.888C331.89 169.344 331.986 169.692 332.178 169.932C332.37 170.164 332.682 170.28 333.114 170.28C333.266 170.28 333.394 170.264 333.498 170.232C333.61 170.2 333.702 170.184 333.774 170.184C333.846 170.176 333.906 170.2 333.954 170.256C334.002 170.312 334.026 170.408 334.026 170.544C334.026 170.64 334.006 170.728 333.966 170.808C333.934 170.888 333.874 170.944 333.786 170.976C333.69 171.008 333.562 171.036 333.402 171.06C333.25 171.092 333.11 171.108 332.982 171.108ZM335.388 171.084C335.228 171.084 335.108 171.04 335.028 170.952C334.948 170.864 334.908 170.74 334.908 170.58V162.948C334.908 162.788 334.948 162.668 335.028 162.588C335.108 162.5 335.228 162.456 335.388 162.456C335.54 162.456 335.66 162.5 335.748 162.588C335.836 162.668 335.88 162.788 335.88 162.948V166.464H335.724C335.892 166 336.164 165.652 336.54 165.42C336.924 165.18 337.364 165.06 337.86 165.06C338.324 165.06 338.708 165.144 339.012 165.312C339.324 165.48 339.556 165.736 339.708 166.08C339.86 166.416 339.936 166.844 339.936 167.364V170.58C339.936 170.74 339.892 170.864 339.804 170.952C339.724 171.04 339.608 171.084 339.456 171.084C339.296 171.084 339.172 171.04 339.084 170.952C339.004 170.864 338.964 170.74 338.964 170.58V167.424C338.964 166.88 338.856 166.484 338.64 166.236C338.432 165.98 338.096 165.852 337.632 165.852C337.096 165.852 336.668 166.02 336.348 166.356C336.036 166.684 335.88 167.124 335.88 167.676V170.58C335.88 170.916 335.716 171.084 335.388 171.084ZM343.564 171.108C343.164 171.108 342.804 171.032 342.484 170.88C342.172 170.72 341.924 170.504 341.74 170.232C341.556 169.96 341.464 169.656 341.464 169.32C341.464 168.888 341.572 168.548 341.788 168.3C342.012 168.052 342.376 167.876 342.88 167.772C343.392 167.668 344.088 167.616 344.968 167.616H345.508V168.252H344.98C344.332 168.252 343.82 168.284 343.444 168.348C343.076 168.404 342.816 168.504 342.664 168.648C342.52 168.792 342.448 168.996 342.448 169.26C342.448 169.588 342.56 169.856 342.784 170.064C343.016 170.272 343.328 170.376 343.72 170.376C344.04 170.376 344.32 170.3 344.56 170.148C344.808 169.996 345 169.788 345.136 169.524C345.28 169.26 345.352 168.956 345.352 168.612V167.244C345.352 166.748 345.252 166.392 345.052 166.176C344.852 165.952 344.524 165.84 344.068 165.84C343.788 165.84 343.508 165.876 343.228 165.948C342.948 166.02 342.652 166.136 342.34 166.296C342.228 166.352 342.132 166.372 342.052 166.356C341.972 166.332 341.908 166.288 341.86 166.224C341.812 166.16 341.784 166.088 341.776 166.008C341.768 165.92 341.784 165.836 341.824 165.756C341.872 165.676 341.944 165.612 342.04 165.564C342.392 165.388 342.74 165.26 343.084 165.18C343.428 165.1 343.756 165.06 344.068 165.06C344.572 165.06 344.988 165.144 345.316 165.312C345.644 165.472 345.888 165.72 346.048 166.056C346.208 166.384 346.288 166.808 346.288 167.328V170.58C346.288 170.74 346.248 170.864 346.168 170.952C346.096 171.04 345.988 171.084 345.844 171.084C345.692 171.084 345.576 171.04 345.496 170.952C345.416 170.864 345.376 170.74 345.376 170.58V169.644H345.484C345.42 169.948 345.296 170.208 345.112 170.424C344.936 170.64 344.716 170.808 344.452 170.928C344.188 171.048 343.892 171.108 343.564 171.108ZM348.572 171.084C348.412 171.084 348.292 171.04 348.212 170.952C348.132 170.864 348.092 170.74 348.092 170.58V165.576C348.092 165.416 348.132 165.296 348.212 165.216C348.292 165.128 348.408 165.084 348.56 165.084C348.712 165.084 348.828 165.128 348.908 165.216C348.996 165.296 349.04 165.416 349.04 165.576V166.608L348.908 166.464C349.076 166 349.348 165.652 349.724 165.42C350.108 165.18 350.548 165.06 351.044 165.06C351.508 165.06 351.892 165.144 352.196 165.312C352.508 165.48 352.74 165.736 352.892 166.08C353.044 166.416 353.12 166.844 353.12 167.364V170.58C353.12 170.74 353.076 170.864 352.988 170.952C352.908 171.04 352.792 171.084 352.64 171.084C352.48 171.084 352.356 171.04 352.268 170.952C352.188 170.864 352.148 170.74 352.148 170.58V167.424C352.148 166.88 352.04 166.484 351.824 166.236C351.616 165.98 351.28 165.852 350.816 165.852C350.28 165.852 349.852 166.02 349.532 166.356C349.22 166.684 349.064 167.124 349.064 167.676V170.58C349.064 170.916 348.9 171.084 348.572 171.084ZM358.954 171C358.81 171 358.698 170.964 358.618 170.892C358.538 170.812 358.498 170.704 358.498 170.568C358.498 170.432 358.538 170.332 358.618 170.268C358.698 170.196 358.81 170.16 358.954 170.16H360.514V163.356H361.03L359.29 164.508C359.186 164.564 359.086 164.588 358.99 164.58C358.902 164.572 358.826 164.54 358.762 164.484C358.706 164.42 358.666 164.348 358.642 164.268C358.618 164.18 358.622 164.092 358.654 164.004C358.686 163.908 358.754 163.828 358.858 163.764L360.514 162.672C360.618 162.608 360.718 162.556 360.814 162.516C360.91 162.476 361.006 162.456 361.102 162.456C361.214 162.456 361.306 162.492 361.378 162.564C361.458 162.628 361.498 162.732 361.498 162.876V170.16H362.938C363.082 170.16 363.194 170.196 363.274 170.268C363.354 170.332 363.394 170.432 363.394 170.568C363.394 170.712 363.354 170.82 363.274 170.892C363.194 170.964 363.082 171 362.938 171H358.954ZM367.889 171.108C366.921 171.108 366.185 170.736 365.681 169.992C365.177 169.248 364.925 168.172 364.925 166.764C364.925 165.82 365.037 165.028 365.261 164.388C365.485 163.74 365.817 163.252 366.257 162.924C366.705 162.596 367.249 162.432 367.889 162.432C368.865 162.432 369.601 162.8 370.097 163.536C370.601 164.264 370.853 165.336 370.853 166.752C370.853 167.696 370.741 168.492 370.517 169.14C370.293 169.788 369.961 170.28 369.521 170.616C369.081 170.944 368.537 171.108 367.889 171.108ZM367.889 170.256C368.561 170.256 369.057 169.972 369.377 169.404C369.705 168.828 369.869 167.944 369.869 166.752C369.869 165.552 369.705 164.676 369.377 164.124C369.057 163.564 368.561 163.284 367.889 163.284C367.225 163.284 366.729 163.564 366.401 164.124C366.073 164.684 365.909 165.56 365.909 166.752C365.909 167.944 366.073 168.828 366.401 169.404C366.729 169.972 367.225 170.256 367.889 170.256ZM373.008 171.084C372.864 171.084 372.752 171.044 372.672 170.964C372.592 170.876 372.552 170.756 372.552 170.604V162.936C372.552 162.776 372.592 162.656 372.672 162.576C372.752 162.496 372.864 162.456 373.008 162.456C373.136 162.456 373.236 162.484 373.308 162.54C373.388 162.588 373.46 162.672 373.524 162.792L376.812 168.984H376.452L379.728 162.792C379.792 162.672 379.86 162.588 379.932 162.54C380.004 162.484 380.108 162.456 380.244 162.456C380.38 162.456 380.488 162.496 380.568 162.576C380.648 162.656 380.688 162.776 380.688 162.936V170.604C380.688 170.756 380.648 170.876 380.568 170.964C380.496 171.044 380.384 171.084 380.232 171.084C380.088 171.084 379.976 171.044 379.896 170.964C379.816 170.876 379.776 170.756 379.776 170.604V163.86H380.064L377.064 169.488C377.008 169.592 376.948 169.668 376.884 169.716C376.828 169.756 376.744 169.776 376.632 169.776C376.52 169.776 376.432 169.752 376.368 169.704C376.304 169.656 376.248 169.584 376.2 169.488L373.164 163.848H373.452V170.604C373.452 170.756 373.412 170.876 373.332 170.964C373.26 171.044 373.152 171.084 373.008 171.084ZM383.334 171C383.158 171 383.022 170.956 382.926 170.868C382.838 170.772 382.794 170.636 382.794 170.46V163.08C382.794 162.904 382.838 162.772 382.926 162.684C383.022 162.588 383.158 162.54 383.334 162.54H386.178C386.762 162.54 387.254 162.628 387.654 162.804C388.062 162.972 388.374 163.22 388.59 163.548C388.806 163.876 388.914 164.276 388.914 164.748C388.914 165.276 388.758 165.716 388.446 166.068C388.142 166.42 387.726 166.652 387.198 166.764V166.596C387.798 166.668 388.266 166.884 388.602 167.244C388.946 167.604 389.118 168.08 389.118 168.672C389.118 169.424 388.874 170 388.386 170.4C387.898 170.8 387.21 171 386.322 171H383.334ZM383.754 170.208H386.226C386.866 170.208 387.346 170.08 387.666 169.824C387.986 169.568 388.146 169.18 388.146 168.66C388.146 168.132 387.986 167.744 387.666 167.496C387.346 167.24 386.866 167.112 386.226 167.112H383.754V170.208ZM383.754 166.32H386.034C386.658 166.32 387.13 166.192 387.45 165.936C387.778 165.68 387.942 165.312 387.942 164.832C387.942 164.336 387.778 163.964 387.45 163.716C387.13 163.46 386.658 163.332 386.034 163.332H383.754V166.32Z" fill="#382C7C"/>
<rect x="221" y="199" width="91" height="38" rx="8" fill="#FBFDFE00"/>
<path d="M240.16 221.09C239.847 221.09 239.543 221.063 239.25 221.01C238.957 220.963 238.68 220.89 238.42 220.79C238.16 220.69 237.927 220.567 237.72 220.42C237.633 220.36 237.57 220.287 237.53 220.2C237.497 220.113 237.487 220.03 237.5 219.95C237.52 219.863 237.557 219.79 237.61 219.73C237.67 219.67 237.74 219.633 237.82 219.62C237.9 219.607 237.987 219.633 238.08 219.7C238.387 219.907 238.707 220.057 239.04 220.15C239.38 220.243 239.753 220.29 240.16 220.29C240.747 220.29 241.177 220.183 241.45 219.97C241.73 219.757 241.87 219.477 241.87 219.13C241.87 218.843 241.77 218.62 241.57 218.46C241.37 218.293 241.033 218.163 240.56 218.07L239.5 217.85C238.873 217.717 238.403 217.497 238.09 217.19C237.783 216.883 237.63 216.473 237.63 215.96C237.63 215.647 237.693 215.363 237.82 215.11C237.947 214.85 238.127 214.627 238.36 214.44C238.593 214.253 238.867 214.11 239.18 214.01C239.5 213.91 239.853 213.86 240.24 213.86C240.653 213.86 241.04 213.917 241.4 214.03C241.767 214.143 242.097 214.31 242.39 214.53C242.47 214.59 242.523 214.663 242.55 214.75C242.577 214.83 242.58 214.91 242.56 214.99C242.547 215.07 242.51 215.137 242.45 215.19C242.397 215.243 242.327 215.273 242.24 215.28C242.16 215.287 242.07 215.257 241.97 215.19C241.703 215.003 241.43 214.87 241.15 214.79C240.87 214.703 240.563 214.66 240.23 214.66C239.89 214.66 239.593 214.713 239.34 214.82C239.093 214.927 238.9 215.077 238.76 215.27C238.627 215.457 238.56 215.677 238.56 215.93C238.56 216.237 238.653 216.477 238.84 216.65C239.027 216.823 239.34 216.957 239.78 217.05L240.83 217.26C241.497 217.4 241.99 217.617 242.31 217.91C242.637 218.197 242.8 218.583 242.8 219.07C242.8 219.377 242.737 219.653 242.61 219.9C242.49 220.147 242.317 220.36 242.09 220.54C241.863 220.713 241.587 220.85 241.26 220.95C240.933 221.043 240.567 221.09 240.16 221.09ZM244.532 221C244.372 221 244.248 220.957 244.162 220.87C244.075 220.783 244.032 220.66 244.032 220.5V214.45C244.032 214.29 244.075 214.167 244.162 214.08C244.248 213.993 244.372 213.95 244.532 213.95H248.212C248.338 213.95 248.435 213.983 248.502 214.05C248.575 214.11 248.612 214.2 248.612 214.32C248.612 214.447 248.575 214.543 248.502 214.61C248.435 214.677 248.338 214.71 248.212 214.71H244.932V217.04H248.002C248.128 217.04 248.225 217.073 248.292 217.14C248.358 217.207 248.392 217.3 248.392 217.42C248.392 217.547 248.358 217.643 248.292 217.71C248.225 217.77 248.128 217.8 248.002 217.8H244.932V220.24H248.212C248.338 220.24 248.435 220.273 248.502 220.34C248.575 220.4 248.612 220.493 248.612 220.62C248.612 220.747 248.575 220.843 248.502 220.91C248.435 220.97 248.338 221 248.212 221H244.532ZM250.361 221C250.214 221 250.098 220.957 250.011 220.87C249.931 220.783 249.891 220.667 249.891 220.52V214.38C249.891 214.227 249.931 214.11 250.011 214.03C250.091 213.95 250.204 213.91 250.351 213.91C250.504 213.91 250.621 213.95 250.701 214.03C250.781 214.11 250.821 214.227 250.821 214.38V220.2H254.001C254.141 220.2 254.244 220.233 254.311 220.3C254.384 220.367 254.421 220.463 254.421 220.59C254.421 220.723 254.384 220.827 254.311 220.9C254.244 220.967 254.141 221 254.001 221H250.361ZM255.87 221C255.71 221 255.586 220.957 255.5 220.87C255.413 220.783 255.37 220.66 255.37 220.5V214.45C255.37 214.29 255.413 214.167 255.5 214.08C255.586 213.993 255.71 213.95 255.87 213.95H259.55C259.676 213.95 259.773 213.983 259.84 214.05C259.913 214.11 259.95 214.2 259.95 214.32C259.95 214.447 259.913 214.543 259.84 214.61C259.773 214.677 259.676 214.71 259.55 214.71H256.27V217.04H259.34C259.466 217.04 259.563 217.073 259.63 217.14C259.696 217.207 259.73 217.3 259.73 217.42C259.73 217.547 259.696 217.643 259.63 217.71C259.563 217.77 259.466 217.8 259.34 217.8H256.27V220.24H259.55C259.676 220.24 259.773 220.273 259.84 220.34C259.913 220.4 259.95 220.493 259.95 220.62C259.95 220.747 259.913 220.843 259.84 220.91C259.773 220.97 259.676 221 259.55 221H255.87ZM264.3 221.09C263.6 221.09 263 220.943 262.5 220.65C262 220.357 261.613 219.94 261.34 219.4C261.073 218.853 260.94 218.21 260.94 217.47C260.94 216.917 261.016 216.42 261.17 215.98C261.323 215.533 261.543 215.153 261.83 214.84C262.116 214.52 262.466 214.277 262.88 214.11C263.3 213.943 263.773 213.86 264.3 213.86C264.7 213.86 265.083 213.917 265.45 214.03C265.823 214.143 266.143 214.303 266.41 214.51C266.516 214.583 266.586 214.667 266.62 214.76C266.653 214.853 266.656 214.943 266.63 215.03C266.61 215.11 266.566 215.18 266.5 215.24C266.44 215.293 266.363 215.323 266.27 215.33C266.176 215.33 266.076 215.293 265.97 215.22C265.736 215.04 265.48 214.91 265.2 214.83C264.926 214.743 264.633 214.7 264.32 214.7C263.806 214.7 263.37 214.81 263.01 215.03C262.656 215.243 262.386 215.557 262.2 215.97C262.02 216.377 261.93 216.877 261.93 217.47C261.93 218.057 262.02 218.56 262.2 218.98C262.386 219.393 262.656 219.71 263.01 219.93C263.37 220.143 263.806 220.25 264.32 220.25C264.633 220.25 264.93 220.207 265.21 220.12C265.496 220.033 265.76 219.9 266 219.72C266.106 219.647 266.203 219.613 266.29 219.62C266.383 219.627 266.46 219.657 266.52 219.71C266.58 219.757 266.62 219.823 266.64 219.91C266.666 219.99 266.666 220.073 266.64 220.16C266.613 220.247 266.553 220.323 266.46 220.39C266.186 220.623 265.86 220.8 265.48 220.92C265.106 221.033 264.713 221.09 264.3 221.09ZM270.04 221.07C269.887 221.07 269.77 221.03 269.69 220.95C269.61 220.863 269.57 220.743 269.57 220.59V214.74H267.38C267.253 214.74 267.153 214.707 267.08 214.64C267.007 214.567 266.97 214.467 266.97 214.34C266.97 214.213 267.007 214.117 267.08 214.05C267.153 213.983 267.253 213.95 267.38 213.95H272.69C272.823 213.95 272.923 213.983 272.99 214.05C273.063 214.117 273.1 214.213 273.1 214.34C273.1 214.467 273.063 214.567 272.99 214.64C272.923 214.707 272.823 214.74 272.69 214.74H270.5V220.59C270.5 220.743 270.46 220.863 270.38 220.95C270.307 221.03 270.193 221.07 270.04 221.07ZM277.022 221.07C276.868 221.07 276.748 221.027 276.662 220.94C276.575 220.853 276.532 220.73 276.532 220.57V214.45C276.532 214.29 276.575 214.167 276.662 214.08C276.748 213.993 276.872 213.95 277.032 213.95H280.622C280.755 213.95 280.855 213.983 280.922 214.05C280.988 214.11 281.022 214.2 281.022 214.32C281.022 214.447 280.988 214.543 280.922 214.61C280.855 214.677 280.755 214.71 280.622 214.71H277.462V217.07H280.422C280.548 217.07 280.645 217.103 280.712 217.17C280.778 217.237 280.812 217.327 280.812 217.44C280.812 217.567 280.778 217.663 280.712 217.73C280.645 217.797 280.548 217.83 280.422 217.83H277.462V220.57C277.462 220.903 277.315 221.07 277.022 221.07ZM282.499 221.07C282.353 221.07 282.239 221.03 282.159 220.95C282.079 220.863 282.039 220.743 282.039 220.59V214.36C282.039 214.2 282.079 214.08 282.159 214C282.239 213.92 282.353 213.88 282.499 213.88C282.653 213.88 282.769 213.92 282.849 214C282.929 214.08 282.969 214.2 282.969 214.36V220.59C282.969 220.743 282.929 220.863 282.849 220.95C282.776 221.03 282.659 221.07 282.499 221.07ZM285.127 221C284.98 221 284.863 220.957 284.777 220.87C284.697 220.783 284.657 220.667 284.657 220.52V214.38C284.657 214.227 284.697 214.11 284.777 214.03C284.857 213.95 284.97 213.91 285.117 213.91C285.27 213.91 285.387 213.95 285.467 214.03C285.547 214.11 285.587 214.227 285.587 214.38V220.2H288.767C288.907 220.2 289.01 220.233 289.077 220.3C289.15 220.367 289.187 220.463 289.187 220.59C289.187 220.723 289.15 220.827 289.077 220.9C289.01 220.967 288.907 221 288.767 221H285.127ZM290.635 221C290.475 221 290.352 220.957 290.265 220.87C290.178 220.783 290.135 220.66 290.135 220.5V214.45C290.135 214.29 290.178 214.167 290.265 214.08C290.352 213.993 290.475 213.95 290.635 213.95H294.315C294.442 213.95 294.538 213.983 294.605 214.05C294.678 214.11 294.715 214.2 294.715 214.32C294.715 214.447 294.678 214.543 294.605 214.61C294.538 214.677 294.442 214.71 294.315 214.71H291.035V217.04H294.105C294.232 217.04 294.328 217.073 294.395 217.14C294.462 217.207 294.495 217.3 294.495 217.42C294.495 217.547 294.462 217.643 294.395 217.71C294.328 217.77 294.232 217.8 294.105 217.8H291.035V220.24H294.315C294.442 220.24 294.538 220.273 294.605 220.34C294.678 220.4 294.715 220.493 294.715 220.62C294.715 220.747 294.678 220.843 294.605 220.91C294.538 220.97 294.442 221 294.315 221H290.635Z" fill="#382C7C"/>
<rect x="220.5" y="198.5" width="92" height="39" rx="8.5" stroke="#382C7C" stroke-opacity="0.7"/>
<rect x="0.5" y="0.5" width="532" height="293" rx="10.5" stroke="#382C7C" stroke-dasharray="4 4"/>
</svg>
