<svg width="533" height="82" viewBox="0 0 533 82" fill="none" xmlns="http://www.w3.org/2000/svg">
<path d="M65 49L57 41L49 49" stroke="black" stroke-opacity="0.4" stroke-width="2" stroke-linecap="round" stroke-linejoin="round"/>
<path d="M57 41V59" stroke="black" stroke-opacity="0.4" stroke-width="2" stroke-linecap="round" stroke-linejoin="round"/>
<path d="M73.78 53.78C75.7307 52.7165 77.2717 51.0337 78.1598 48.9972C79.0478 46.9607 79.2324 44.6864 78.6844 42.5334C78.1364 40.3803 76.887 38.471 75.1334 37.1069C73.3797 35.7427 71.2217 35.0014 69 35H66.48C65.8746 32.6585 64.7463 30.4846 63.1799 28.642C61.6135 26.7993 59.6497 25.3357 57.4362 24.3612C55.2227 23.3867 52.8171 22.9267 50.4002 23.0157C47.9834 23.1048 45.6181 23.7406 43.4824 24.8753C41.3466 26.01 39.4958 27.6142 38.0693 29.5671C36.6427 31.5201 35.6774 33.771 35.246 36.1508C34.8146 38.5305 34.9282 40.977 35.5784 43.3065C36.2287 45.636 37.3985 47.7877 39 49.6" stroke="black" stroke-opacity="0.4" stroke-width="2" stroke-linecap="round" stroke-linejoin="round"/>
<path d="M65 49L57 41L49 49" stroke="black" stroke-opacity="0.4" stroke-width="2" stroke-linecap="round" stroke-linejoin="round"/>
<path d="M111.108 31.117C110.701 31.117 110.306 31.0823 109.925 31.013C109.544 30.9523 109.184 30.857 108.846 30.727C108.508 30.597 108.205 30.4367 107.936 30.246C107.823 30.168 107.741 30.0727 107.689 29.96C107.646 29.8473 107.633 29.739 107.65 29.635C107.676 29.5223 107.724 29.427 107.793 29.349C107.871 29.271 107.962 29.2233 108.066 29.206C108.17 29.1887 108.283 29.2233 108.404 29.31C108.803 29.5787 109.219 29.7737 109.652 29.895C110.094 30.0163 110.579 30.077 111.108 30.077C111.871 30.077 112.43 29.9383 112.785 29.661C113.149 29.3837 113.331 29.0197 113.331 28.569C113.331 28.1963 113.201 27.906 112.941 27.698C112.681 27.4813 112.243 27.3123 111.628 27.191L110.25 26.905C109.435 26.7317 108.824 26.4457 108.417 26.047C108.018 25.6483 107.819 25.1153 107.819 24.448C107.819 24.0407 107.901 23.6723 108.066 23.343C108.231 23.005 108.465 22.7147 108.768 22.472C109.071 22.2293 109.427 22.043 109.834 21.913C110.25 21.783 110.709 21.718 111.212 21.718C111.749 21.718 112.252 21.7917 112.72 21.939C113.197 22.0863 113.626 22.303 114.007 22.589C114.111 22.667 114.18 22.7623 114.215 22.875C114.25 22.979 114.254 23.083 114.228 23.187C114.211 23.291 114.163 23.3777 114.085 23.447C114.016 23.5163 113.925 23.5553 113.812 23.564C113.708 23.5727 113.591 23.5337 113.461 23.447C113.114 23.2043 112.759 23.031 112.395 22.927C112.031 22.8143 111.632 22.758 111.199 22.758C110.757 22.758 110.371 22.8273 110.042 22.966C109.721 23.1047 109.47 23.2997 109.288 23.551C109.115 23.7937 109.028 24.0797 109.028 24.409C109.028 24.8077 109.149 25.1197 109.392 25.345C109.635 25.5703 110.042 25.7437 110.614 25.865L111.979 26.138C112.846 26.32 113.487 26.6017 113.903 26.983C114.328 27.3557 114.54 27.8583 114.54 28.491C114.54 28.8897 114.458 29.2493 114.293 29.57C114.137 29.8907 113.912 30.168 113.617 30.402C113.322 30.6273 112.963 30.805 112.538 30.935C112.113 31.0563 111.637 31.117 111.108 31.117ZM118.91 31.117C118.225 31.117 117.636 30.987 117.142 30.727C116.657 30.4583 116.28 30.0813 116.011 29.596C115.742 29.102 115.608 28.5213 115.608 27.854C115.608 27.1953 115.738 26.619 115.998 26.125C116.267 25.631 116.631 25.2453 117.09 24.968C117.558 24.6907 118.091 24.552 118.689 24.552C119.114 24.552 119.495 24.6257 119.833 24.773C120.18 24.9117 120.474 25.1153 120.717 25.384C120.96 25.6527 121.142 25.982 121.263 26.372C121.393 26.7533 121.458 27.1867 121.458 27.672C121.458 27.8107 121.415 27.919 121.328 27.997C121.25 28.0663 121.133 28.101 120.977 28.101H116.531V27.347H120.678L120.457 27.529C120.457 27.0783 120.388 26.697 120.249 26.385C120.119 26.0643 119.924 25.8217 119.664 25.657C119.413 25.4923 119.096 25.41 118.715 25.41C118.299 25.41 117.944 25.5097 117.649 25.709C117.354 25.8997 117.129 26.1727 116.973 26.528C116.817 26.8747 116.739 27.2777 116.739 27.737V27.815C116.739 28.595 116.925 29.1843 117.298 29.583C117.671 29.9817 118.208 30.181 118.91 30.181C119.187 30.181 119.469 30.1463 119.755 30.077C120.05 30.0077 120.331 29.882 120.6 29.7C120.73 29.622 120.847 29.5873 120.951 29.596C121.064 29.596 121.155 29.6307 121.224 29.7C121.293 29.7607 121.337 29.8387 121.354 29.934C121.371 30.0207 121.358 30.116 121.315 30.22C121.272 30.324 121.189 30.415 121.068 30.493C120.782 30.6923 120.44 30.8483 120.041 30.961C119.651 31.065 119.274 31.117 118.91 31.117ZM124.918 31.117C124.268 31.117 123.774 30.9263 123.436 30.545C123.098 30.155 122.929 29.596 122.929 28.868V22.342C122.929 22.1427 122.981 21.9953 123.085 21.9C123.189 21.796 123.332 21.744 123.514 21.744C123.705 21.744 123.852 21.796 123.956 21.9C124.06 21.9953 124.112 22.1427 124.112 22.342V28.777C124.112 29.2277 124.203 29.5657 124.385 29.791C124.576 30.0077 124.845 30.116 125.191 30.116C125.269 30.116 125.339 30.116 125.399 30.116C125.46 30.1073 125.521 30.0987 125.581 30.09C125.677 30.0813 125.746 30.1073 125.789 30.168C125.833 30.2287 125.854 30.35 125.854 30.532C125.854 30.6967 125.815 30.8267 125.737 30.922C125.668 31.0087 125.551 31.065 125.386 31.091C125.308 31.0997 125.23 31.104 125.152 31.104C125.074 31.1127 124.996 31.117 124.918 31.117ZM129.701 31.117C129.016 31.117 128.427 30.987 127.933 30.727C127.448 30.4583 127.071 30.0813 126.802 29.596C126.533 29.102 126.399 28.5213 126.399 27.854C126.399 27.1953 126.529 26.619 126.789 26.125C127.058 25.631 127.422 25.2453 127.881 24.968C128.349 24.6907 128.882 24.552 129.48 24.552C129.905 24.552 130.286 24.6257 130.624 24.773C130.971 24.9117 131.265 25.1153 131.508 25.384C131.751 25.6527 131.933 25.982 132.054 26.372C132.184 26.7533 132.249 27.1867 132.249 27.672C132.249 27.8107 132.206 27.919 132.119 27.997C132.041 28.0663 131.924 28.101 131.768 28.101H127.322V27.347H131.469L131.248 27.529C131.248 27.0783 131.179 26.697 131.04 26.385C130.91 26.0643 130.715 25.8217 130.455 25.657C130.204 25.4923 129.887 25.41 129.506 25.41C129.09 25.41 128.735 25.5097 128.44 25.709C128.145 25.8997 127.92 26.1727 127.764 26.528C127.608 26.8747 127.53 27.2777 127.53 27.737V27.815C127.53 28.595 127.716 29.1843 128.089 29.583C128.462 29.9817 128.999 30.181 129.701 30.181C129.978 30.181 130.26 30.1463 130.546 30.077C130.841 30.0077 131.122 29.882 131.391 29.7C131.521 29.622 131.638 29.5873 131.742 29.596C131.855 29.596 131.946 29.6307 132.015 29.7C132.084 29.7607 132.128 29.8387 132.145 29.934C132.162 30.0207 132.149 30.116 132.106 30.22C132.063 30.324 131.98 30.415 131.859 30.493C131.573 30.6923 131.231 30.8483 130.832 30.961C130.442 31.065 130.065 31.117 129.701 31.117ZM136.463 31.117C135.822 31.117 135.267 30.9827 134.799 30.714C134.331 30.4367 133.972 30.051 133.72 29.557C133.469 29.0543 133.343 28.465 133.343 27.789C133.343 27.2863 133.413 26.8357 133.551 26.437C133.699 26.0383 133.907 25.7003 134.175 25.423C134.444 25.137 134.769 24.9203 135.15 24.773C135.54 24.6257 135.978 24.552 136.463 24.552C136.767 24.552 137.087 24.5997 137.425 24.695C137.763 24.7903 138.075 24.9463 138.361 25.163C138.457 25.2323 138.517 25.3147 138.543 25.41C138.569 25.4967 138.569 25.5877 138.543 25.683C138.526 25.7783 138.483 25.8607 138.413 25.93C138.353 25.9907 138.27 26.0253 138.166 26.034C138.071 26.0427 137.967 26.0123 137.854 25.943C137.646 25.787 137.425 25.6743 137.191 25.605C136.966 25.5357 136.749 25.501 136.541 25.501C136.221 25.501 135.935 25.553 135.683 25.657C135.441 25.761 135.233 25.9127 135.059 26.112C134.895 26.3027 134.769 26.541 134.682 26.827C134.596 27.1043 134.552 27.4293 134.552 27.802C134.552 28.5387 134.726 29.1193 135.072 29.544C135.419 29.96 135.909 30.168 136.541 30.168C136.749 30.168 136.966 30.1377 137.191 30.077C137.417 30.0077 137.638 29.895 137.854 29.739C137.967 29.6697 138.071 29.6437 138.166 29.661C138.262 29.6697 138.34 29.7087 138.4 29.778C138.47 29.8387 138.513 29.9167 138.53 30.012C138.548 30.0987 138.539 30.1897 138.504 30.285C138.478 30.3803 138.418 30.4583 138.322 30.519C138.045 30.727 137.742 30.8787 137.412 30.974C137.083 31.0693 136.767 31.117 136.463 31.117ZM142.402 31.117C141.891 31.117 141.462 31.026 141.115 30.844C140.777 30.662 140.521 30.3977 140.348 30.051C140.183 29.7043 140.101 29.2797 140.101 28.777V25.579H139.269C139.113 25.579 138.992 25.54 138.905 25.462C138.818 25.3753 138.775 25.2627 138.775 25.124C138.775 24.9767 138.818 24.864 138.905 24.786C138.992 24.708 139.113 24.669 139.269 24.669H140.101V23.252C140.101 23.0527 140.153 22.9053 140.257 22.81C140.361 22.706 140.508 22.654 140.699 22.654C140.89 22.654 141.033 22.706 141.128 22.81C141.232 22.9053 141.284 23.0527 141.284 23.252V24.669H142.857C143.022 24.669 143.147 24.708 143.234 24.786C143.321 24.864 143.364 24.9767 143.364 25.124C143.364 25.2627 143.321 25.3753 143.234 25.462C143.147 25.54 143.022 25.579 142.857 25.579H141.284V28.673C141.284 29.1497 141.384 29.5093 141.583 29.752C141.782 29.9947 142.112 30.116 142.571 30.116C142.736 30.116 142.874 30.103 142.987 30.077C143.1 30.0423 143.199 30.025 143.286 30.025C143.364 30.0163 143.429 30.0423 143.481 30.103C143.542 30.1637 143.572 30.2763 143.572 30.441C143.572 30.5623 143.55 30.675 143.507 30.779C143.472 30.8743 143.399 30.9393 143.286 30.974C143.182 31.0087 143.043 31.039 142.87 31.065C142.697 31.0997 142.541 31.117 142.402 31.117ZM149.84 31.117C149.407 31.117 149.012 31.0303 148.657 30.857C148.31 30.6837 148.037 30.4497 147.838 30.155C147.647 29.8603 147.552 29.531 147.552 29.167C147.552 28.699 147.669 28.3307 147.903 28.062C148.137 27.7933 148.531 27.6027 149.086 27.49C149.641 27.3687 150.386 27.308 151.322 27.308H151.933V28.062H151.348C150.681 28.062 150.152 28.0923 149.762 28.153C149.381 28.2137 149.112 28.322 148.956 28.478C148.8 28.6253 148.722 28.8333 148.722 29.102C148.722 29.44 148.839 29.7173 149.073 29.934C149.316 30.1507 149.645 30.259 150.061 30.259C150.39 30.259 150.681 30.181 150.932 30.025C151.183 29.8603 151.383 29.6437 151.53 29.375C151.677 29.0977 151.751 28.7813 151.751 28.426V26.931C151.751 26.4197 151.647 26.0513 151.439 25.826C151.231 25.592 150.88 25.475 150.386 25.475C150.1 25.475 149.805 25.514 149.502 25.592C149.199 25.67 148.882 25.7913 148.553 25.956C148.423 26.0167 148.31 26.0383 148.215 26.021C148.12 25.995 148.042 25.943 147.981 25.865C147.929 25.7783 147.899 25.6873 147.89 25.592C147.89 25.488 147.912 25.3883 147.955 25.293C148.007 25.1977 148.094 25.1283 148.215 25.085C148.596 24.8943 148.973 24.76 149.346 24.682C149.727 24.5953 150.083 24.552 150.412 24.552C150.975 24.552 151.439 24.643 151.803 24.825C152.167 24.9983 152.44 25.2713 152.622 25.644C152.804 26.008 152.895 26.476 152.895 27.048V30.48C152.895 30.6793 152.847 30.831 152.752 30.935C152.657 31.039 152.518 31.091 152.336 31.091C152.163 31.091 152.024 31.039 151.92 30.935C151.825 30.831 151.777 30.6793 151.777 30.48V29.557H151.894C151.825 29.8777 151.695 30.155 151.504 30.389C151.313 30.623 151.075 30.805 150.789 30.935C150.512 31.0563 150.195 31.117 149.84 31.117ZM159.108 31.091C158.918 31.091 158.77 31.039 158.666 30.935C158.562 30.831 158.51 30.6793 158.51 30.48V25.579H157.73C157.574 25.579 157.453 25.54 157.366 25.462C157.28 25.3753 157.236 25.2627 157.236 25.124C157.236 24.9767 157.28 24.864 157.366 24.786C157.453 24.708 157.574 24.669 157.73 24.669H158.835L158.51 24.981V24.5C158.51 23.668 158.71 23.0353 159.108 22.602C159.516 22.1687 160.118 21.913 160.915 21.835L161.292 21.809C161.44 21.7917 161.557 21.8133 161.643 21.874C161.73 21.926 161.786 21.9953 161.812 22.082C161.847 22.1687 161.851 22.2597 161.825 22.355C161.808 22.4503 161.769 22.5327 161.708 22.602C161.648 22.6713 161.57 22.706 161.474 22.706L161.11 22.732C160.616 22.7667 160.257 22.9183 160.031 23.187C159.806 23.4557 159.693 23.8413 159.693 24.344V24.864L159.524 24.669H163.073C163.264 24.669 163.407 24.7253 163.502 24.838C163.606 24.942 163.658 25.098 163.658 25.306V30.428C163.658 30.6273 163.611 30.7833 163.515 30.896C163.42 31.0087 163.273 31.065 163.073 31.065C162.883 31.065 162.735 31.0087 162.631 30.896C162.527 30.7833 162.475 30.6273 162.475 30.428V25.579H159.693V30.48C159.693 30.8873 159.498 31.091 159.108 31.091ZM163.086 23.2C162.861 23.2 162.683 23.1393 162.553 23.018C162.423 22.888 162.358 22.719 162.358 22.511C162.358 22.2857 162.423 22.1167 162.553 22.004C162.683 21.8827 162.861 21.822 163.086 21.822C163.329 21.822 163.511 21.8827 163.632 22.004C163.762 22.1167 163.827 22.2857 163.827 22.511C163.827 22.719 163.762 22.888 163.632 23.018C163.511 23.1393 163.329 23.2 163.086 23.2ZM167.549 31.117C166.899 31.117 166.405 30.9263 166.067 30.545C165.729 30.155 165.56 29.596 165.56 28.868V22.342C165.56 22.1427 165.612 21.9953 165.716 21.9C165.82 21.796 165.963 21.744 166.145 21.744C166.336 21.744 166.483 21.796 166.587 21.9C166.691 21.9953 166.743 22.1427 166.743 22.342V28.777C166.743 29.2277 166.834 29.5657 167.016 29.791C167.207 30.0077 167.476 30.116 167.822 30.116C167.9 30.116 167.97 30.116 168.03 30.116C168.091 30.1073 168.152 30.0987 168.212 30.09C168.308 30.0813 168.377 30.1073 168.42 30.168C168.464 30.2287 168.485 30.35 168.485 30.532C168.485 30.6967 168.446 30.8267 168.368 30.922C168.299 31.0087 168.182 31.065 168.017 31.091C167.939 31.0997 167.861 31.104 167.783 31.104C167.705 31.1127 167.627 31.117 167.549 31.117ZM172.332 31.117C171.647 31.117 171.058 30.987 170.564 30.727C170.079 30.4583 169.702 30.0813 169.433 29.596C169.164 29.102 169.03 28.5213 169.03 27.854C169.03 27.1953 169.16 26.619 169.42 26.125C169.689 25.631 170.053 25.2453 170.512 24.968C170.98 24.6907 171.513 24.552 172.111 24.552C172.536 24.552 172.917 24.6257 173.255 24.773C173.602 24.9117 173.896 25.1153 174.139 25.384C174.382 25.6527 174.564 25.982 174.685 26.372C174.815 26.7533 174.88 27.1867 174.88 27.672C174.88 27.8107 174.837 27.919 174.75 27.997C174.672 28.0663 174.555 28.101 174.399 28.101H169.953V27.347H174.1L173.879 27.529C173.879 27.0783 173.81 26.697 173.671 26.385C173.541 26.0643 173.346 25.8217 173.086 25.657C172.835 25.4923 172.518 25.41 172.137 25.41C171.721 25.41 171.366 25.5097 171.071 25.709C170.776 25.8997 170.551 26.1727 170.395 26.528C170.239 26.8747 170.161 27.2777 170.161 27.737V27.815C170.161 28.595 170.347 29.1843 170.72 29.583C171.093 29.9817 171.63 30.181 172.332 30.181C172.609 30.181 172.891 30.1463 173.177 30.077C173.472 30.0077 173.753 29.882 174.022 29.7C174.152 29.622 174.269 29.5873 174.373 29.596C174.486 29.596 174.577 29.6307 174.646 29.7C174.715 29.7607 174.759 29.8387 174.776 29.934C174.793 30.0207 174.78 30.116 174.737 30.22C174.694 30.324 174.611 30.415 174.49 30.493C174.204 30.6923 173.862 30.8483 173.463 30.961C173.073 31.065 172.696 31.117 172.332 31.117ZM182.432 31.117C181.808 31.117 181.266 30.9827 180.807 30.714C180.348 30.4453 179.992 30.064 179.741 29.57C179.49 29.076 179.364 28.4953 179.364 27.828C179.364 27.3253 179.433 26.8747 179.572 26.476C179.719 26.0687 179.927 25.722 180.196 25.436C180.465 25.15 180.785 24.9333 181.158 24.786C181.539 24.63 181.964 24.552 182.432 24.552C183.056 24.552 183.598 24.6863 184.057 24.955C184.516 25.2237 184.872 25.605 185.123 26.099C185.374 26.5843 185.5 27.1607 185.5 27.828C185.5 28.3307 185.426 28.7857 185.279 29.193C185.14 29.6003 184.937 29.947 184.668 30.233C184.399 30.519 184.074 30.74 183.693 30.896C183.32 31.0433 182.9 31.117 182.432 31.117ZM182.432 30.181C182.813 30.181 183.143 30.09 183.42 29.908C183.706 29.726 183.923 29.4617 184.07 29.115C184.226 28.7683 184.304 28.3393 184.304 27.828C184.304 27.0653 184.135 26.4847 183.797 26.086C183.459 25.6873 183.004 25.488 182.432 25.488C182.059 25.488 181.73 25.579 181.444 25.761C181.167 25.9343 180.95 26.1943 180.794 26.541C180.638 26.8877 180.56 27.3167 180.56 27.828C180.56 28.5907 180.729 29.1757 181.067 29.583C181.414 29.9817 181.869 30.181 182.432 30.181ZM187.626 31.091C187.427 31.091 187.275 31.039 187.171 30.935C187.067 30.831 187.015 30.6793 187.015 30.48V25.176C187.015 24.9767 187.067 24.8293 187.171 24.734C187.275 24.63 187.418 24.578 187.6 24.578C187.782 24.578 187.921 24.63 188.016 24.734C188.12 24.8293 188.172 24.9767 188.172 25.176V26.177H188.042C188.181 25.657 188.441 25.2627 188.822 24.994C189.204 24.7253 189.685 24.5737 190.265 24.539C190.404 24.5303 190.517 24.565 190.603 24.643C190.69 24.7123 190.738 24.8337 190.746 25.007C190.755 25.1717 190.716 25.306 190.629 25.41C190.543 25.5053 190.408 25.5617 190.226 25.579L189.992 25.592C189.42 25.6527 188.978 25.839 188.666 26.151C188.363 26.463 188.211 26.892 188.211 27.438V30.48C188.211 30.6793 188.159 30.831 188.055 30.935C187.96 31.039 187.817 31.091 187.626 31.091ZM197.571 31.117C197.016 31.117 196.527 30.987 196.102 30.727C195.686 30.4583 195.361 30.077 195.127 29.583C194.893 29.0803 194.776 28.4953 194.776 27.828C194.776 27.152 194.889 26.5713 195.114 26.086C195.348 25.592 195.673 25.215 196.089 24.955C196.514 24.6863 197.008 24.552 197.571 24.552C198.134 24.552 198.62 24.695 199.027 24.981C199.434 25.2583 199.707 25.631 199.846 26.099H199.703V22.342C199.703 22.1427 199.751 21.9953 199.846 21.9C199.95 21.796 200.097 21.744 200.288 21.744C200.479 21.744 200.626 21.796 200.73 21.9C200.834 21.9953 200.886 22.1427 200.886 22.342V30.48C200.886 30.6793 200.834 30.831 200.73 30.935C200.626 31.039 200.479 31.091 200.288 31.091C200.106 31.091 199.963 31.039 199.859 30.935C199.755 30.831 199.703 30.6793 199.703 30.48V29.297L199.846 29.531C199.716 30.0163 199.443 30.402 199.027 30.688C198.62 30.974 198.134 31.117 197.571 31.117ZM197.844 30.181C198.225 30.181 198.555 30.09 198.832 29.908C199.118 29.726 199.335 29.4617 199.482 29.115C199.638 28.7683 199.716 28.3393 199.716 27.828C199.716 27.0653 199.547 26.4847 199.209 26.086C198.871 25.6873 198.416 25.488 197.844 25.488C197.471 25.488 197.142 25.579 196.856 25.761C196.579 25.9343 196.362 26.1943 196.206 26.541C196.05 26.8877 195.972 27.3167 195.972 27.828C195.972 28.5907 196.141 29.1757 196.479 29.583C196.826 29.9817 197.281 30.181 197.844 30.181ZM203.394 31.091C203.195 31.091 203.043 31.039 202.939 30.935C202.835 30.831 202.783 30.6793 202.783 30.48V25.176C202.783 24.9767 202.835 24.8293 202.939 24.734C203.043 24.63 203.186 24.578 203.368 24.578C203.55 24.578 203.689 24.63 203.784 24.734C203.888 24.8293 203.94 24.9767 203.94 25.176V26.177H203.81C203.949 25.657 204.209 25.2627 204.59 24.994C204.971 24.7253 205.452 24.5737 206.033 24.539C206.172 24.5303 206.284 24.565 206.371 24.643C206.458 24.7123 206.505 24.8337 206.514 25.007C206.523 25.1717 206.484 25.306 206.397 25.41C206.31 25.5053 206.176 25.5617 205.994 25.579L205.76 25.592C205.188 25.6527 204.746 25.839 204.434 26.151C204.131 26.463 203.979 26.892 203.979 27.438V30.48C203.979 30.6793 203.927 30.831 203.823 30.935C203.728 31.039 203.585 31.091 203.394 31.091ZM209.483 31.117C209.049 31.117 208.655 31.0303 208.3 30.857C207.953 30.6837 207.68 30.4497 207.481 30.155C207.29 29.8603 207.195 29.531 207.195 29.167C207.195 28.699 207.312 28.3307 207.546 28.062C207.78 27.7933 208.174 27.6027 208.729 27.49C209.283 27.3687 210.029 27.308 210.965 27.308H211.576V28.062H210.991C210.323 28.062 209.795 28.0923 209.405 28.153C209.023 28.2137 208.755 28.322 208.599 28.478C208.443 28.6253 208.365 28.8333 208.365 29.102C208.365 29.44 208.482 29.7173 208.716 29.934C208.958 30.1507 209.288 30.259 209.704 30.259C210.033 30.259 210.323 30.181 210.575 30.025C210.826 29.8603 211.025 29.6437 211.173 29.375C211.32 29.0977 211.394 28.7813 211.394 28.426V26.931C211.394 26.4197 211.29 26.0513 211.082 25.826C210.874 25.592 210.523 25.475 210.029 25.475C209.743 25.475 209.448 25.514 209.145 25.592C208.841 25.67 208.525 25.7913 208.196 25.956C208.066 26.0167 207.953 26.0383 207.858 26.021C207.762 25.995 207.684 25.943 207.624 25.865C207.572 25.7783 207.541 25.6873 207.533 25.592C207.533 25.488 207.554 25.3883 207.598 25.293C207.65 25.1977 207.736 25.1283 207.858 25.085C208.239 24.8943 208.616 24.76 208.989 24.682C209.37 24.5953 209.725 24.552 210.055 24.552C210.618 24.552 211.082 24.643 211.446 24.825C211.81 24.9983 212.083 25.2713 212.265 25.644C212.447 26.008 212.538 26.476 212.538 27.048V30.48C212.538 30.6793 212.49 30.831 212.395 30.935C212.299 31.039 212.161 31.091 211.979 31.091C211.805 31.091 211.667 31.039 211.563 30.935C211.467 30.831 211.42 30.6793 211.42 30.48V29.557H211.537C211.467 29.8777 211.337 30.155 211.147 30.389C210.956 30.623 210.718 30.805 210.432 30.935C210.154 31.0563 209.838 31.117 209.483 31.117ZM217.246 33.457C216.778 33.457 216.323 33.405 215.881 33.301C215.448 33.197 215.054 33.0367 214.698 32.82C214.586 32.7507 214.508 32.6683 214.464 32.573C214.43 32.4863 214.421 32.3953 214.438 32.3C214.464 32.2047 214.508 32.118 214.568 32.04C214.638 31.9707 214.716 31.923 214.802 31.897C214.898 31.8797 214.993 31.9013 215.088 31.962C215.47 32.1787 215.834 32.326 216.18 32.404C216.527 32.482 216.856 32.521 217.168 32.521C217.784 32.521 218.243 32.3607 218.546 32.04C218.858 31.728 219.014 31.2687 219.014 30.662V29.258H219.131C219.01 29.7433 218.737 30.129 218.312 30.415C217.896 30.701 217.411 30.844 216.856 30.844C216.284 30.844 215.786 30.714 215.361 30.454C214.937 30.1853 214.607 29.817 214.373 29.349C214.139 28.8723 214.022 28.322 214.022 27.698C214.022 27.2213 214.087 26.7923 214.217 26.411C214.356 26.021 214.547 25.6917 214.789 25.423C215.041 25.1457 215.34 24.9333 215.686 24.786C216.033 24.63 216.423 24.552 216.856 24.552C217.42 24.552 217.909 24.695 218.325 24.981C218.741 25.267 219.01 25.6527 219.131 26.138L218.988 26.32V25.176C218.988 24.9767 219.04 24.8293 219.144 24.734C219.248 24.63 219.396 24.578 219.586 24.578C219.768 24.578 219.911 24.63 220.015 24.734C220.119 24.8293 220.171 24.9767 220.171 25.176V30.506C220.171 31.4853 219.92 32.222 219.417 32.716C218.923 33.21 218.2 33.457 217.246 33.457ZM217.116 29.908C217.506 29.908 217.84 29.8213 218.117 29.648C218.403 29.466 218.62 29.2103 218.767 28.881C218.923 28.543 219.001 28.1487 219.001 27.698C219.001 27.0133 218.832 26.476 218.494 26.086C218.156 25.6873 217.697 25.488 217.116 25.488C216.726 25.488 216.388 25.579 216.102 25.761C215.825 25.9343 215.608 26.1857 215.452 26.515C215.296 26.8443 215.218 27.2387 215.218 27.698C215.218 28.374 215.387 28.9113 215.725 29.31C216.072 29.7087 216.536 29.908 217.116 29.908ZM227.472 31.117C227.038 31.117 226.644 31.0303 226.289 30.857C225.942 30.6837 225.669 30.4497 225.47 30.155C225.279 29.8603 225.184 29.531 225.184 29.167C225.184 28.699 225.301 28.3307 225.535 28.062C225.769 27.7933 226.163 27.6027 226.718 27.49C227.272 27.3687 228.018 27.308 228.954 27.308H229.565V28.062H228.98C228.312 28.062 227.784 28.0923 227.394 28.153C227.012 28.2137 226.744 28.322 226.588 28.478C226.432 28.6253 226.354 28.8333 226.354 29.102C226.354 29.44 226.471 29.7173 226.705 29.934C226.947 30.1507 227.277 30.259 227.693 30.259C228.022 30.259 228.312 30.181 228.564 30.025C228.815 29.8603 229.014 29.6437 229.162 29.375C229.309 29.0977 229.383 28.7813 229.383 28.426V26.931C229.383 26.4197 229.279 26.0513 229.071 25.826C228.863 25.592 228.512 25.475 228.018 25.475C227.732 25.475 227.437 25.514 227.134 25.592C226.83 25.67 226.514 25.7913 226.185 25.956C226.055 26.0167 225.942 26.0383 225.847 26.021C225.751 25.995 225.673 25.943 225.613 25.865C225.561 25.7783 225.53 25.6873 225.522 25.592C225.522 25.488 225.543 25.3883 225.587 25.293C225.639 25.1977 225.725 25.1283 225.847 25.085C226.228 24.8943 226.605 24.76 226.978 24.682C227.359 24.5953 227.714 24.552 228.044 24.552C228.607 24.552 229.071 24.643 229.435 24.825C229.799 24.9983 230.072 25.2713 230.254 25.644C230.436 26.008 230.527 26.476 230.527 27.048V30.48C230.527 30.6793 230.479 30.831 230.384 30.935C230.288 31.039 230.15 31.091 229.968 31.091C229.794 31.091 229.656 31.039 229.552 30.935C229.456 30.831 229.409 30.6793 229.409 30.48V29.557H229.526C229.456 29.8777 229.326 30.155 229.136 30.389C228.945 30.623 228.707 30.805 228.421 30.935C228.143 31.0563 227.827 31.117 227.472 31.117ZM232.973 31.091C232.791 31.091 232.648 31.039 232.544 30.935C232.44 30.831 232.388 30.6793 232.388 30.48V25.176C232.388 24.9767 232.44 24.8293 232.544 24.734C232.648 24.63 232.791 24.578 232.973 24.578C233.155 24.578 233.294 24.63 233.389 24.734C233.493 24.8293 233.545 24.9767 233.545 25.176V26.242L233.402 26.047C233.584 25.553 233.879 25.1803 234.286 24.929C234.702 24.6777 235.175 24.552 235.703 24.552C236.215 24.552 236.635 24.643 236.964 24.825C237.294 25.007 237.541 25.2843 237.705 25.657C237.87 26.0297 237.952 26.502 237.952 27.074V30.48C237.952 30.6793 237.9 30.831 237.796 30.935C237.701 31.039 237.558 31.091 237.367 31.091C237.177 31.091 237.029 31.039 236.925 30.935C236.821 30.831 236.769 30.6793 236.769 30.48V27.139C236.769 26.5757 236.661 26.164 236.444 25.904C236.228 25.644 235.881 25.514 235.404 25.514C234.85 25.514 234.403 25.6873 234.065 26.034C233.736 26.372 233.571 26.8313 233.571 27.412V30.48C233.571 30.8873 233.372 31.091 232.973 31.091ZM242.246 31.117C241.691 31.117 241.202 30.987 240.777 30.727C240.361 30.4583 240.036 30.077 239.802 29.583C239.568 29.0803 239.451 28.4953 239.451 27.828C239.451 27.152 239.564 26.5713 239.789 26.086C240.023 25.592 240.348 25.215 240.764 24.955C241.189 24.6863 241.683 24.552 242.246 24.552C242.809 24.552 243.295 24.695 243.702 24.981C244.109 25.2583 244.382 25.631 244.521 26.099H244.378V22.342C244.378 22.1427 244.426 21.9953 244.521 21.9C244.625 21.796 244.772 21.744 244.963 21.744C245.154 21.744 245.301 21.796 245.405 21.9C245.509 21.9953 245.561 22.1427 245.561 22.342V30.48C245.561 30.6793 245.509 30.831 245.405 30.935C245.301 31.039 245.154 31.091 244.963 31.091C244.781 31.091 244.638 31.039 244.534 30.935C244.43 30.831 244.378 30.6793 244.378 30.48V29.297L244.521 29.531C244.391 30.0163 244.118 30.402 243.702 30.688C243.295 30.974 242.809 31.117 242.246 31.117ZM242.519 30.181C242.9 30.181 243.23 30.09 243.507 29.908C243.793 29.726 244.01 29.4617 244.157 29.115C244.313 28.7683 244.391 28.3393 244.391 27.828C244.391 27.0653 244.222 26.4847 243.884 26.086C243.546 25.6873 243.091 25.488 242.519 25.488C242.146 25.488 241.817 25.579 241.531 25.761C241.254 25.9343 241.037 26.1943 240.881 26.541C240.725 26.8877 240.647 27.3167 240.647 27.828C240.647 28.5907 240.816 29.1757 241.154 29.583C241.501 29.9817 241.956 30.181 242.519 30.181ZM253.265 31.117C252.711 31.117 252.221 30.987 251.796 30.727C251.38 30.4583 251.055 30.077 250.821 29.583C250.587 29.0803 250.47 28.4953 250.47 27.828C250.47 27.152 250.583 26.5713 250.808 26.086C251.042 25.592 251.367 25.215 251.783 24.955C252.208 24.6863 252.702 24.552 253.265 24.552C253.829 24.552 254.314 24.695 254.721 24.981C255.129 25.2583 255.402 25.631 255.54 26.099H255.397V22.342C255.397 22.1427 255.445 21.9953 255.54 21.9C255.644 21.796 255.792 21.744 255.982 21.744C256.173 21.744 256.32 21.796 256.424 21.9C256.528 21.9953 256.58 22.1427 256.58 22.342V30.48C256.58 30.6793 256.528 30.831 256.424 30.935C256.32 31.039 256.173 31.091 255.982 31.091C255.8 31.091 255.657 31.039 255.553 30.935C255.449 30.831 255.397 30.6793 255.397 30.48V29.297L255.54 29.531C255.41 30.0163 255.137 30.402 254.721 30.688C254.314 30.974 253.829 31.117 253.265 31.117ZM253.538 30.181C253.92 30.181 254.249 30.09 254.526 29.908C254.812 29.726 255.029 29.4617 255.176 29.115C255.332 28.7683 255.41 28.3393 255.41 27.828C255.41 27.0653 255.241 26.4847 254.903 26.086C254.565 25.6873 254.11 25.488 253.538 25.488C253.166 25.488 252.836 25.579 252.55 25.761C252.273 25.9343 252.056 26.1943 251.9 26.541C251.744 26.8877 251.666 27.3167 251.666 27.828C251.666 28.5907 251.835 29.1757 252.173 29.583C252.52 29.9817 252.975 30.181 253.538 30.181ZM259.088 31.091C258.889 31.091 258.737 31.039 258.633 30.935C258.529 30.831 258.477 30.6793 258.477 30.48V25.176C258.477 24.9767 258.529 24.8293 258.633 24.734C258.737 24.63 258.88 24.578 259.062 24.578C259.244 24.578 259.383 24.63 259.478 24.734C259.582 24.8293 259.634 24.9767 259.634 25.176V26.177H259.504C259.643 25.657 259.903 25.2627 260.284 24.994C260.666 24.7253 261.147 24.5737 261.727 24.539C261.866 24.5303 261.979 24.565 262.065 24.643C262.152 24.7123 262.2 24.8337 262.208 25.007C262.217 25.1717 262.178 25.306 262.091 25.41C262.005 25.5053 261.87 25.5617 261.688 25.579L261.454 25.592C260.882 25.6527 260.44 25.839 260.128 26.151C259.825 26.463 259.673 26.892 259.673 27.438V30.48C259.673 30.6793 259.621 30.831 259.517 30.935C259.422 31.039 259.279 31.091 259.088 31.091ZM265.828 31.117C265.204 31.117 264.662 30.9827 264.203 30.714C263.743 30.4453 263.388 30.064 263.137 29.57C262.885 29.076 262.76 28.4953 262.76 27.828C262.76 27.3253 262.829 26.8747 262.968 26.476C263.115 26.0687 263.323 25.722 263.592 25.436C263.86 25.15 264.181 24.9333 264.554 24.786C264.935 24.63 265.36 24.552 265.828 24.552C266.452 24.552 266.993 24.6863 267.453 24.955C267.912 25.2237 268.267 25.605 268.519 26.099C268.77 26.5843 268.896 27.1607 268.896 27.828C268.896 28.3307 268.822 28.7857 268.675 29.193C268.536 29.6003 268.332 29.947 268.064 30.233C267.795 30.519 267.47 30.74 267.089 30.896C266.716 31.0433 266.296 31.117 265.828 31.117ZM265.828 30.181C266.209 30.181 266.538 30.09 266.816 29.908C267.102 29.726 267.318 29.4617 267.466 29.115C267.622 28.7683 267.7 28.3393 267.7 27.828C267.7 27.0653 267.531 26.4847 267.193 26.086C266.855 25.6873 266.4 25.488 265.828 25.488C265.455 25.488 265.126 25.579 264.84 25.761C264.562 25.9343 264.346 26.1943 264.19 26.541C264.034 26.8877 263.956 27.3167 263.956 27.828C263.956 28.5907 264.125 29.1757 264.463 29.583C264.809 29.9817 265.264 30.181 265.828 30.181ZM270.996 33.431C270.814 33.431 270.671 33.379 270.567 33.275C270.463 33.171 270.411 33.0237 270.411 32.833V25.176C270.411 24.9767 270.463 24.8293 270.567 24.734C270.671 24.63 270.814 24.578 270.996 24.578C271.187 24.578 271.33 24.63 271.425 24.734C271.529 24.8293 271.581 24.9767 271.581 25.176V26.359L271.438 26.125C271.577 25.6483 271.85 25.267 272.257 24.981C272.664 24.695 273.154 24.552 273.726 24.552C274.289 24.552 274.779 24.6863 275.195 24.955C275.611 25.215 275.936 25.592 276.17 26.086C276.404 26.5713 276.521 27.152 276.521 27.828C276.521 28.4953 276.404 29.0803 276.17 29.583C275.945 30.077 275.62 30.4583 275.195 30.727C274.779 30.987 274.289 31.117 273.726 31.117C273.163 31.117 272.677 30.974 272.27 30.688C271.863 30.402 271.59 30.025 271.451 29.557H271.594V32.833C271.594 33.0237 271.542 33.171 271.438 33.275C271.334 33.379 271.187 33.431 270.996 33.431ZM273.453 30.181C273.826 30.181 274.151 30.09 274.428 29.908C274.714 29.726 274.935 29.4617 275.091 29.115C275.247 28.7683 275.325 28.3393 275.325 27.828C275.325 27.0653 275.156 26.4847 274.818 26.086C274.48 25.6873 274.025 25.488 273.453 25.488C273.072 25.488 272.738 25.579 272.452 25.761C272.175 25.9343 271.958 26.1943 271.802 26.541C271.655 26.8877 271.581 27.3167 271.581 27.828C271.581 28.5907 271.75 29.1757 272.088 29.583C272.426 29.9817 272.881 30.181 273.453 30.181ZM282.015 31.091C281.833 31.091 281.69 31.039 281.586 30.935C281.482 30.831 281.43 30.6793 281.43 30.48V22.342C281.43 22.1427 281.482 21.9953 281.586 21.9C281.69 21.796 281.833 21.744 282.015 21.744C282.206 21.744 282.353 21.796 282.457 21.9C282.561 21.9953 282.613 22.1427 282.613 22.342V26.047H282.444C282.626 25.553 282.921 25.1803 283.328 24.929C283.744 24.6777 284.217 24.552 284.745 24.552C285.257 24.552 285.677 24.6473 286.006 24.838C286.336 25.02 286.583 25.2973 286.747 25.67C286.912 26.0427 286.994 26.5107 286.994 27.074V30.48C286.994 30.6793 286.942 30.831 286.838 30.935C286.743 31.039 286.6 31.091 286.409 31.091C286.219 31.091 286.071 31.039 285.967 30.935C285.863 30.831 285.811 30.6793 285.811 30.48V27.139C285.811 26.5757 285.703 26.164 285.486 25.904C285.27 25.644 284.923 25.514 284.446 25.514C283.892 25.514 283.445 25.6873 283.107 26.034C282.778 26.372 282.613 26.8313 282.613 27.412V30.48C282.613 30.8873 282.414 31.091 282.015 31.091ZM291.795 31.117C291.11 31.117 290.521 30.987 290.027 30.727C289.542 30.4583 289.165 30.0813 288.896 29.596C288.627 29.102 288.493 28.5213 288.493 27.854C288.493 27.1953 288.623 26.619 288.883 26.125C289.152 25.631 289.516 25.2453 289.975 24.968C290.443 24.6907 290.976 24.552 291.574 24.552C291.999 24.552 292.38 24.6257 292.718 24.773C293.065 24.9117 293.359 25.1153 293.602 25.384C293.845 25.6527 294.027 25.982 294.148 26.372C294.278 26.7533 294.343 27.1867 294.343 27.672C294.343 27.8107 294.3 27.919 294.213 27.997C294.135 28.0663 294.018 28.101 293.862 28.101H289.416V27.347H293.563L293.342 27.529C293.342 27.0783 293.273 26.697 293.134 26.385C293.004 26.0643 292.809 25.8217 292.549 25.657C292.298 25.4923 291.981 25.41 291.6 25.41C291.184 25.41 290.829 25.5097 290.534 25.709C290.239 25.8997 290.014 26.1727 289.858 26.528C289.702 26.8747 289.624 27.2777 289.624 27.737V27.815C289.624 28.595 289.81 29.1843 290.183 29.583C290.556 29.9817 291.093 30.181 291.795 30.181C292.072 30.181 292.354 30.1463 292.64 30.077C292.935 30.0077 293.216 29.882 293.485 29.7C293.615 29.622 293.732 29.5873 293.836 29.596C293.949 29.596 294.04 29.6307 294.109 29.7C294.178 29.7607 294.222 29.8387 294.239 29.934C294.256 30.0207 294.243 30.116 294.2 30.22C294.157 30.324 294.074 30.415 293.953 30.493C293.667 30.6923 293.325 30.8483 292.926 30.961C292.536 31.065 292.159 31.117 291.795 31.117ZM296.425 31.091C296.226 31.091 296.074 31.039 295.97 30.935C295.866 30.831 295.814 30.6793 295.814 30.48V25.176C295.814 24.9767 295.866 24.8293 295.97 24.734C296.074 24.63 296.217 24.578 296.399 24.578C296.581 24.578 296.72 24.63 296.815 24.734C296.919 24.8293 296.971 24.9767 296.971 25.176V26.177H296.841C296.98 25.657 297.24 25.2627 297.621 24.994C298.003 24.7253 298.484 24.5737 299.064 24.539C299.203 24.5303 299.316 24.565 299.402 24.643C299.489 24.7123 299.537 24.8337 299.545 25.007C299.554 25.1717 299.515 25.306 299.428 25.41C299.342 25.5053 299.207 25.5617 299.025 25.579L298.791 25.592C298.219 25.6527 297.777 25.839 297.465 26.151C297.162 26.463 297.01 26.892 297.01 27.438V30.48C297.01 30.6793 296.958 30.831 296.854 30.935C296.759 31.039 296.616 31.091 296.425 31.091ZM303.398 31.117C302.714 31.117 302.124 30.987 301.63 30.727C301.145 30.4583 300.768 30.0813 300.499 29.596C300.231 29.102 300.096 28.5213 300.096 27.854C300.096 27.1953 300.226 26.619 300.486 26.125C300.755 25.631 301.119 25.2453 301.578 24.968C302.046 24.6907 302.579 24.552 303.177 24.552C303.602 24.552 303.983 24.6257 304.321 24.773C304.668 24.9117 304.963 25.1153 305.205 25.384C305.448 25.6527 305.63 25.982 305.751 26.372C305.881 26.7533 305.946 27.1867 305.946 27.672C305.946 27.8107 305.903 27.919 305.816 27.997C305.738 28.0663 305.621 28.101 305.465 28.101H301.019V27.347H305.166L304.945 27.529C304.945 27.0783 304.876 26.697 304.737 26.385C304.607 26.0643 304.412 25.8217 304.152 25.657C303.901 25.4923 303.585 25.41 303.203 25.41C302.787 25.41 302.432 25.5097 302.137 25.709C301.843 25.8997 301.617 26.1727 301.461 26.528C301.305 26.8747 301.227 27.2777 301.227 27.737V27.815C301.227 28.595 301.414 29.1843 301.786 29.583C302.159 29.9817 302.696 30.181 303.398 30.181C303.676 30.181 303.957 30.1463 304.243 30.077C304.538 30.0077 304.82 29.882 305.088 29.7C305.218 29.622 305.335 29.5873 305.439 29.596C305.552 29.596 305.643 29.6307 305.712 29.7C305.782 29.7607 305.825 29.8387 305.842 29.934C305.86 30.0207 305.847 30.116 305.803 30.22C305.76 30.324 305.678 30.415 305.556 30.493C305.27 30.6923 304.928 30.8483 304.529 30.961C304.139 31.065 303.762 31.117 303.398 31.117Z" fill="#030229"/>
<path d="M107.336 60.072C107.184 60.08 107.068 60.04 106.988 59.952C106.9 59.864 106.856 59.756 106.856 59.628C106.856 59.532 106.888 59.444 106.952 59.364C107.008 59.284 107.1 59.24 107.228 59.232L107.6 59.208C108.008 59.176 108.32 59.036 108.536 58.788C108.752 58.532 108.86 58.184 108.86 57.744V51.96C108.86 51.792 108.9 51.668 108.98 51.588C109.068 51.5 109.192 51.456 109.352 51.456C109.512 51.456 109.632 51.5 109.712 51.588C109.8 51.668 109.844 51.792 109.844 51.96V57.756C109.844 58.212 109.764 58.608 109.604 58.944C109.444 59.272 109.204 59.528 108.884 59.712C108.572 59.896 108.188 60.004 107.732 60.036L107.336 60.072ZM112.427 60.084C112.267 60.084 112.143 60.04 112.055 59.952C111.975 59.856 111.935 59.728 111.935 59.568V52.044C111.935 51.876 111.979 51.752 112.067 51.672C112.155 51.584 112.279 51.54 112.439 51.54H115.283C116.187 51.54 116.883 51.764 117.371 52.212C117.859 52.652 118.103 53.276 118.103 54.084C118.103 54.884 117.859 55.508 117.371 55.956C116.883 56.404 116.187 56.628 115.283 56.628H112.919V59.568C112.919 59.728 112.879 59.856 112.799 59.952C112.719 60.04 112.595 60.084 112.427 60.084ZM112.919 55.8H115.163C115.811 55.8 116.299 55.656 116.627 55.368C116.963 55.072 117.131 54.644 117.131 54.084C117.131 53.516 116.963 53.088 116.627 52.8C116.299 52.504 115.811 52.356 115.163 52.356H112.919V55.8ZM123.299 60.108C122.395 60.108 121.631 59.936 121.007 59.592C120.391 59.248 119.923 58.752 119.603 58.104C119.283 57.456 119.123 56.68 119.123 55.776C119.123 55.104 119.211 54.5 119.387 53.964C119.571 53.428 119.835 52.976 120.179 52.608C120.531 52.232 120.955 51.944 121.451 51.744C121.955 51.536 122.523 51.432 123.155 51.432C123.659 51.432 124.147 51.504 124.619 51.648C125.091 51.784 125.511 52.004 125.879 52.308C125.975 52.38 126.035 52.46 126.059 52.548C126.083 52.636 126.079 52.724 126.047 52.812C126.023 52.9 125.979 52.976 125.915 53.04C125.859 53.096 125.783 53.128 125.687 53.136C125.599 53.144 125.507 53.116 125.411 53.052C125.083 52.796 124.735 52.612 124.367 52.5C123.999 52.38 123.591 52.32 123.143 52.32C122.503 52.32 121.959 52.456 121.511 52.728C121.071 53 120.735 53.392 120.503 53.904C120.279 54.416 120.167 55.04 120.167 55.776C120.167 56.896 120.427 57.752 120.947 58.344C121.475 58.936 122.267 59.232 123.323 59.232C123.707 59.232 124.083 59.196 124.451 59.124C124.819 59.044 125.167 58.936 125.495 58.8L125.279 59.364V56.376H123.563C123.419 56.376 123.311 56.34 123.239 56.268C123.167 56.196 123.131 56.1 123.131 55.98C123.131 55.852 123.167 55.756 123.239 55.692C123.311 55.628 123.419 55.596 123.563 55.596H125.711C125.847 55.596 125.951 55.632 126.023 55.704C126.095 55.776 126.131 55.88 126.131 56.016V59.148C126.131 59.268 126.111 59.368 126.071 59.448C126.031 59.528 125.963 59.588 125.867 59.628C125.531 59.764 125.127 59.88 124.655 59.976C124.191 60.064 123.739 60.108 123.299 60.108ZM128.586 61.14C128.506 61.244 128.422 61.304 128.334 61.32C128.246 61.336 128.17 61.32 128.106 61.272C128.042 61.224 128.006 61.156 127.998 61.068C127.998 60.98 128.038 60.884 128.118 60.78C128.246 60.612 128.334 60.44 128.382 60.264C128.43 60.096 128.454 59.94 128.454 59.796L128.502 60.048C128.294 60.048 128.126 59.988 127.998 59.868C127.878 59.74 127.818 59.58 127.818 59.388C127.818 59.196 127.874 59.04 127.986 58.92C128.106 58.792 128.262 58.728 128.454 58.728C128.662 58.728 128.826 58.8 128.946 58.944C129.066 59.08 129.126 59.28 129.126 59.544C129.126 59.712 129.11 59.884 129.078 60.06C129.046 60.244 128.99 60.428 128.91 60.612C128.83 60.796 128.722 60.972 128.586 61.14ZM134.458 60.084C134.298 60.084 134.174 60.04 134.086 59.952C134.006 59.856 133.966 59.728 133.966 59.568V52.044C133.966 51.876 134.01 51.752 134.098 51.672C134.186 51.584 134.31 51.54 134.47 51.54H137.314C138.218 51.54 138.914 51.764 139.402 52.212C139.89 52.652 140.134 53.276 140.134 54.084C140.134 54.884 139.89 55.508 139.402 55.956C138.914 56.404 138.218 56.628 137.314 56.628H134.95V59.568C134.95 59.728 134.91 59.856 134.83 59.952C134.75 60.04 134.626 60.084 134.458 60.084ZM134.95 55.8H137.194C137.842 55.8 138.33 55.656 138.658 55.368C138.994 55.072 139.162 54.644 139.162 54.084C139.162 53.516 138.994 53.088 138.658 52.8C138.33 52.504 137.842 52.356 137.194 52.356H134.95V55.8ZM142.028 60.084C141.876 60.084 141.76 60.044 141.68 59.964C141.6 59.876 141.56 59.752 141.56 59.592V51.96C141.56 51.8 141.6 51.676 141.68 51.588C141.76 51.5 141.864 51.456 141.992 51.456C142.12 51.456 142.212 51.48 142.268 51.528C142.332 51.568 142.404 51.644 142.484 51.756L147.716 58.728H147.428V51.936C147.428 51.784 147.468 51.668 147.548 51.588C147.628 51.5 147.744 51.456 147.896 51.456C148.04 51.456 148.148 51.5 148.22 51.588C148.3 51.668 148.34 51.784 148.34 51.936V59.604C148.34 59.756 148.304 59.876 148.232 59.964C148.168 60.044 148.072 60.084 147.944 60.084C147.824 60.084 147.728 60.06 147.656 60.012C147.584 59.964 147.508 59.888 147.428 59.784L142.208 52.812H142.484V59.592C142.484 59.752 142.444 59.876 142.364 59.964C142.284 60.044 142.172 60.084 142.028 60.084ZM154.306 60.108C153.402 60.108 152.638 59.936 152.014 59.592C151.398 59.248 150.93 58.752 150.61 58.104C150.29 57.456 150.13 56.68 150.13 55.776C150.13 55.104 150.218 54.5 150.394 53.964C150.578 53.428 150.842 52.976 151.186 52.608C151.538 52.232 151.962 51.944 152.458 51.744C152.962 51.536 153.53 51.432 154.162 51.432C154.666 51.432 155.154 51.504 155.626 51.648C156.098 51.784 156.518 52.004 156.886 52.308C156.982 52.38 157.042 52.46 157.066 52.548C157.09 52.636 157.086 52.724 157.054 52.812C157.03 52.9 156.986 52.976 156.922 53.04C156.866 53.096 156.79 53.128 156.694 53.136C156.606 53.144 156.514 53.116 156.418 53.052C156.09 52.796 155.742 52.612 155.374 52.5C155.006 52.38 154.598 52.32 154.15 52.32C153.51 52.32 152.966 52.456 152.518 52.728C152.078 53 151.742 53.392 151.51 53.904C151.286 54.416 151.174 55.04 151.174 55.776C151.174 56.896 151.434 57.752 151.954 58.344C152.482 58.936 153.274 59.232 154.33 59.232C154.714 59.232 155.09 59.196 155.458 59.124C155.826 59.044 156.174 58.936 156.502 58.8L156.286 59.364V56.376H154.57C154.426 56.376 154.318 56.34 154.246 56.268C154.174 56.196 154.138 56.1 154.138 55.98C154.138 55.852 154.174 55.756 154.246 55.692C154.318 55.628 154.426 55.596 154.57 55.596H156.718C156.854 55.596 156.958 55.632 157.03 55.704C157.102 55.776 157.138 55.88 157.138 56.016V59.148C157.138 59.268 157.118 59.368 157.078 59.448C157.038 59.528 156.97 59.588 156.874 59.628C156.538 59.764 156.134 59.88 155.662 59.976C155.198 60.064 154.746 60.108 154.306 60.108ZM164.535 60.108C163.967 60.108 163.475 59.984 163.059 59.736C162.643 59.488 162.319 59.14 162.087 58.692C161.863 58.236 161.751 57.7 161.751 57.084C161.751 56.62 161.815 56.204 161.943 55.836C162.071 55.46 162.259 55.14 162.507 54.876C162.755 54.612 163.047 54.412 163.383 54.276C163.727 54.132 164.111 54.06 164.535 54.06C165.103 54.06 165.595 54.184 166.011 54.432C166.427 54.68 166.747 55.032 166.971 55.488C167.203 55.936 167.319 56.468 167.319 57.084C167.319 57.548 167.255 57.964 167.127 58.332C166.999 58.7 166.811 59.02 166.563 59.292C166.315 59.556 166.019 59.76 165.675 59.904C165.339 60.04 164.959 60.108 164.535 60.108ZM164.535 59.328C164.895 59.328 165.211 59.24 165.483 59.064C165.755 58.888 165.963 58.632 166.107 58.296C166.259 57.96 166.335 57.556 166.335 57.084C166.335 56.356 166.171 55.8 165.843 55.416C165.523 55.032 165.087 54.84 164.535 54.84C164.167 54.84 163.847 54.928 163.575 55.104C163.311 55.272 163.103 55.524 162.951 55.86C162.807 56.188 162.735 56.596 162.735 57.084C162.735 57.804 162.899 58.36 163.227 58.752C163.555 59.136 163.991 59.328 164.535 59.328ZM169.271 60.084C169.111 60.084 168.987 60.04 168.899 59.952C168.819 59.864 168.779 59.74 168.779 59.58V54.576C168.779 54.416 168.819 54.296 168.899 54.216C168.979 54.128 169.095 54.084 169.247 54.084C169.399 54.084 169.515 54.128 169.595 54.216C169.683 54.296 169.727 54.416 169.727 54.576V55.548H169.607C169.735 55.076 169.979 54.712 170.339 54.456C170.699 54.2 171.143 54.064 171.671 54.048C171.791 54.04 171.887 54.068 171.959 54.132C172.031 54.188 172.071 54.288 172.079 54.432C172.087 54.568 172.055 54.676 171.983 54.756C171.911 54.836 171.799 54.884 171.647 54.9L171.455 54.924C170.911 54.972 170.491 55.148 170.195 55.452C169.907 55.748 169.763 56.156 169.763 56.676V59.58C169.763 59.74 169.719 59.864 169.631 59.952C169.551 60.04 169.431 60.084 169.271 60.084ZM176.798 60.084C176.638 60.084 176.514 60.04 176.426 59.952C176.346 59.856 176.306 59.728 176.306 59.568V52.044C176.306 51.876 176.35 51.752 176.438 51.672C176.526 51.584 176.65 51.54 176.81 51.54H179.654C180.558 51.54 181.254 51.764 181.742 52.212C182.23 52.652 182.474 53.276 182.474 54.084C182.474 54.884 182.23 55.508 181.742 55.956C181.254 56.404 180.558 56.628 179.654 56.628H177.29V59.568C177.29 59.728 177.25 59.856 177.17 59.952C177.09 60.04 176.966 60.084 176.798 60.084ZM177.29 55.8H179.534C180.182 55.8 180.67 55.656 180.998 55.368C181.334 55.072 181.502 54.644 181.502 54.084C181.502 53.516 181.334 53.088 180.998 52.8C180.67 52.504 180.182 52.356 179.534 52.356H177.29V55.8ZM184.439 60C184.263 60 184.127 59.956 184.031 59.868C183.943 59.772 183.899 59.636 183.899 59.46V52.08C183.899 51.904 183.943 51.772 184.031 51.684C184.127 51.588 184.263 51.54 184.439 51.54H186.755C188.123 51.54 189.179 51.9 189.923 52.62C190.667 53.34 191.039 54.388 191.039 55.764C191.039 56.452 190.943 57.06 190.751 57.588C190.567 58.108 190.291 58.548 189.923 58.908C189.555 59.268 189.107 59.54 188.579 59.724C188.051 59.908 187.443 60 186.755 60H184.439ZM184.883 59.16H186.683C187.243 59.16 187.727 59.088 188.135 58.944C188.551 58.8 188.895 58.588 189.167 58.308C189.447 58.028 189.655 57.676 189.791 57.252C189.927 56.82 189.995 56.324 189.995 55.764C189.995 54.636 189.719 53.792 189.167 53.232C188.615 52.664 187.787 52.38 186.683 52.38H184.883V59.16ZM193.334 60.084C193.166 60.084 193.034 60.04 192.938 59.952C192.85 59.856 192.806 59.72 192.806 59.544V52.08C192.806 51.904 192.85 51.772 192.938 51.684C193.034 51.588 193.17 51.54 193.346 51.54H197.702C197.838 51.54 197.942 51.576 198.014 51.648C198.086 51.72 198.122 51.82 198.122 51.948C198.122 52.084 198.086 52.188 198.014 52.26C197.942 52.332 197.838 52.368 197.702 52.368H193.79V55.32H197.45C197.586 55.32 197.69 55.356 197.762 55.428C197.842 55.5 197.882 55.6 197.882 55.728C197.882 55.864 197.842 55.968 197.762 56.04C197.69 56.112 197.586 56.148 197.45 56.148H193.79V59.544C193.79 59.904 193.638 60.084 193.334 60.084ZM199.496 61.14C199.416 61.244 199.332 61.304 199.244 61.32C199.156 61.336 199.08 61.32 199.016 61.272C198.952 61.224 198.916 61.156 198.908 61.068C198.908 60.98 198.948 60.884 199.028 60.78C199.156 60.612 199.244 60.44 199.292 60.264C199.34 60.096 199.364 59.94 199.364 59.796L199.412 60.048C199.204 60.048 199.036 59.988 198.908 59.868C198.788 59.74 198.728 59.58 198.728 59.388C198.728 59.196 198.784 59.04 198.896 58.92C199.016 58.792 199.172 58.728 199.364 58.728C199.572 58.728 199.736 58.8 199.856 58.944C199.976 59.08 200.036 59.28 200.036 59.544C200.036 59.712 200.02 59.884 199.988 60.06C199.956 60.244 199.9 60.428 199.82 60.612C199.74 60.796 199.632 60.972 199.496 61.14ZM205.536 60.084C205.384 60.084 205.264 60.04 205.176 59.952C205.096 59.864 205.056 59.74 205.056 59.58V54.924H204.288C204.16 54.924 204.056 54.892 203.976 54.828C203.904 54.756 203.868 54.66 203.868 54.54C203.868 54.42 203.904 54.328 203.976 54.264C204.056 54.2 204.16 54.168 204.288 54.168H205.32L205.056 54.42V53.964C205.056 53.212 205.236 52.636 205.596 52.236C205.964 51.836 206.504 51.608 207.216 51.552L207.576 51.516C207.696 51.508 207.792 51.528 207.864 51.576C207.936 51.616 207.98 51.672 207.996 51.744C208.02 51.816 208.024 51.892 208.008 51.972C207.992 52.052 207.956 52.12 207.9 52.176C207.852 52.232 207.792 52.264 207.72 52.272L207.36 52.296C206.888 52.328 206.548 52.476 206.34 52.74C206.132 52.996 206.028 53.364 206.028 53.844V54.348L205.884 54.168H209.148C209.3 54.168 209.416 54.212 209.496 54.3C209.584 54.388 209.628 54.516 209.628 54.684V59.532C209.628 59.7 209.588 59.832 209.508 59.928C209.428 60.016 209.308 60.06 209.148 60.06C208.988 60.06 208.864 60.016 208.776 59.928C208.696 59.832 208.656 59.7 208.656 59.532V54.924H206.028V59.58C206.028 59.916 205.864 60.084 205.536 60.084ZM209.16 52.764C208.96 52.764 208.804 52.712 208.692 52.608C208.588 52.496 208.536 52.348 208.536 52.164C208.536 51.972 208.588 51.828 208.692 51.732C208.804 51.628 208.96 51.576 209.16 51.576C209.36 51.576 209.512 51.628 209.616 51.732C209.728 51.828 209.784 51.972 209.784 52.164C209.784 52.348 209.728 52.496 209.616 52.608C209.512 52.712 209.36 52.764 209.16 52.764ZM213.223 60.108C212.647 60.108 212.207 59.932 211.903 59.58C211.599 59.228 211.447 58.724 211.447 58.068V51.948C211.447 51.788 211.487 51.668 211.567 51.588C211.647 51.5 211.767 51.456 211.927 51.456C212.079 51.456 212.199 51.5 212.287 51.588C212.375 51.668 212.419 51.788 212.419 51.948V57.996C212.419 58.428 212.503 58.752 212.671 58.968C212.847 59.176 213.103 59.28 213.439 59.28C213.511 59.28 213.575 59.276 213.631 59.268C213.687 59.26 213.743 59.256 213.799 59.256C213.887 59.248 213.947 59.268 213.979 59.316C214.019 59.364 214.039 59.46 214.039 59.604C214.039 59.748 214.007 59.856 213.943 59.928C213.879 60 213.775 60.048 213.631 60.072C213.567 60.08 213.499 60.088 213.427 60.096C213.355 60.104 213.287 60.108 213.223 60.108ZM217.567 60.108C216.951 60.108 216.419 59.988 215.971 59.748C215.531 59.5 215.187 59.152 214.939 58.704C214.699 58.256 214.579 57.72 214.579 57.096C214.579 56.488 214.699 55.96 214.939 55.512C215.179 55.056 215.507 54.7 215.923 54.444C216.347 54.188 216.835 54.06 217.387 54.06C217.779 54.06 218.131 54.128 218.443 54.264C218.755 54.392 219.019 54.58 219.235 54.828C219.459 55.076 219.627 55.376 219.739 55.728C219.859 56.08 219.919 56.476 219.919 56.916C219.919 57.044 219.883 57.14 219.811 57.204C219.739 57.26 219.635 57.288 219.499 57.288H215.323V56.652H219.271L219.079 56.808C219.079 56.376 219.015 56.012 218.887 55.716C218.759 55.412 218.571 55.18 218.323 55.02C218.083 54.86 217.779 54.78 217.411 54.78C217.003 54.78 216.655 54.876 216.367 55.068C216.087 55.252 215.875 55.512 215.731 55.848C215.587 56.176 215.515 56.56 215.515 57V57.072C215.515 57.808 215.691 58.368 216.043 58.752C216.403 59.136 216.911 59.328 217.567 59.328C217.839 59.328 218.107 59.292 218.371 59.22C218.643 59.148 218.907 59.028 219.163 58.86C219.275 58.788 219.375 58.756 219.463 58.764C219.559 58.764 219.635 58.792 219.691 58.848C219.747 58.896 219.783 58.96 219.799 59.04C219.823 59.112 219.815 59.192 219.775 59.28C219.743 59.368 219.675 59.444 219.571 59.508C219.307 59.7 218.995 59.848 218.635 59.952C218.275 60.056 217.919 60.108 217.567 60.108ZM226.388 60.108C226.028 60.108 225.664 60.064 225.296 59.976C224.936 59.888 224.6 59.736 224.288 59.52C224.208 59.464 224.152 59.4 224.12 59.328C224.088 59.248 224.076 59.172 224.084 59.1C224.1 59.02 224.132 58.952 224.18 58.896C224.236 58.84 224.3 58.808 224.372 58.8C224.452 58.784 224.54 58.8 224.636 58.848C224.948 59.04 225.248 59.176 225.536 59.256C225.832 59.328 226.124 59.364 226.412 59.364C226.868 59.364 227.212 59.28 227.444 59.112C227.676 58.944 227.792 58.716 227.792 58.428C227.792 58.204 227.716 58.028 227.564 57.9C227.412 57.764 227.172 57.66 226.844 57.588L225.752 57.348C225.248 57.244 224.872 57.064 224.624 56.808C224.384 56.552 224.264 56.22 224.264 55.812C224.264 55.452 224.356 55.144 224.54 54.888C224.732 54.624 225 54.42 225.344 54.276C225.688 54.132 226.088 54.06 226.544 54.06C226.896 54.06 227.228 54.108 227.54 54.204C227.86 54.292 228.148 54.436 228.404 54.636C228.484 54.692 228.536 54.76 228.56 54.84C228.592 54.912 228.596 54.988 228.572 55.068C228.556 55.14 228.52 55.204 228.464 55.26C228.408 55.308 228.34 55.336 228.26 55.344C228.18 55.352 228.096 55.328 228.008 55.272C227.768 55.112 227.524 54.996 227.276 54.924C227.028 54.844 226.784 54.804 226.544 54.804C226.096 54.804 225.756 54.892 225.524 55.068C225.292 55.244 225.176 55.476 225.176 55.764C225.176 55.988 225.248 56.172 225.392 56.316C225.536 56.46 225.76 56.564 226.064 56.628L227.156 56.856C227.676 56.968 228.064 57.148 228.32 57.396C228.584 57.636 228.716 57.964 228.716 58.38C228.716 58.908 228.504 59.328 228.08 59.64C227.656 59.952 227.092 60.108 226.388 60.108ZM230.677 60.06C230.517 60.06 230.397 60.016 230.317 59.928C230.237 59.832 230.197 59.7 230.197 59.532V54.624C230.197 54.456 230.237 54.328 230.317 54.24C230.397 54.152 230.517 54.108 230.677 54.108C230.829 54.108 230.949 54.152 231.037 54.24C231.125 54.328 231.169 54.456 231.169 54.624V59.532C231.169 59.7 231.125 59.832 231.037 59.928C230.957 60.016 230.837 60.06 230.677 60.06ZM230.677 52.764C230.477 52.764 230.321 52.712 230.209 52.608C230.097 52.496 230.041 52.348 230.041 52.164C230.041 51.972 230.097 51.828 230.209 51.732C230.321 51.628 230.477 51.576 230.677 51.576C230.885 51.576 231.041 51.628 231.145 51.732C231.257 51.828 231.313 51.972 231.313 52.164C231.313 52.348 231.257 52.496 231.145 52.608C231.041 52.712 230.885 52.764 230.677 52.764ZM233.094 60C232.99 60 232.906 59.976 232.842 59.928C232.778 59.88 232.734 59.816 232.71 59.736C232.686 59.656 232.686 59.568 232.71 59.472C232.734 59.376 232.786 59.284 232.866 59.196L236.25 54.672V54.924H233.046C232.918 54.924 232.818 54.892 232.746 54.828C232.682 54.756 232.65 54.66 232.65 54.54C232.65 54.42 232.682 54.328 232.746 54.264C232.818 54.2 232.918 54.168 233.046 54.168H236.73C236.85 54.168 236.946 54.192 237.018 54.24C237.098 54.288 237.15 54.352 237.174 54.432C237.198 54.504 237.198 54.588 237.174 54.684C237.158 54.772 237.114 54.86 237.042 54.948L233.598 59.52V59.244H236.97C237.234 59.244 237.366 59.368 237.366 59.616C237.366 59.736 237.33 59.832 237.258 59.904C237.194 59.968 237.098 60 236.97 60H233.094ZM241.052 60.108C240.436 60.108 239.904 59.988 239.456 59.748C239.016 59.5 238.672 59.152 238.424 58.704C238.184 58.256 238.064 57.72 238.064 57.096C238.064 56.488 238.184 55.96 238.424 55.512C238.664 55.056 238.992 54.7 239.408 54.444C239.832 54.188 240.32 54.06 240.872 54.06C241.264 54.06 241.616 54.128 241.928 54.264C242.24 54.392 242.504 54.58 242.72 54.828C242.944 55.076 243.112 55.376 243.224 55.728C243.344 56.08 243.404 56.476 243.404 56.916C243.404 57.044 243.368 57.14 243.296 57.204C243.224 57.26 243.12 57.288 242.984 57.288H238.808V56.652H242.756L242.564 56.808C242.564 56.376 242.5 56.012 242.372 55.716C242.244 55.412 242.056 55.18 241.808 55.02C241.568 54.86 241.264 54.78 240.896 54.78C240.488 54.78 240.14 54.876 239.852 55.068C239.572 55.252 239.36 55.512 239.216 55.848C239.072 56.176 239 56.56 239 57V57.072C239 57.808 239.176 58.368 239.528 58.752C239.888 59.136 240.396 59.328 241.052 59.328C241.324 59.328 241.592 59.292 241.856 59.22C242.128 59.148 242.392 59.028 242.648 58.86C242.76 58.788 242.86 58.756 242.948 58.764C243.044 58.764 243.12 58.792 243.176 58.848C243.232 58.896 243.268 58.96 243.284 59.04C243.308 59.112 243.3 59.192 243.26 59.28C243.228 59.368 243.16 59.444 243.056 59.508C242.792 59.7 242.48 59.848 242.12 59.952C241.76 60.056 241.404 60.108 241.052 60.108ZM248.384 60.084C248.224 60.084 248.104 60.04 248.024 59.952C247.944 59.864 247.904 59.74 247.904 59.58V54.576C247.904 54.416 247.944 54.296 248.024 54.216C248.104 54.128 248.22 54.084 248.372 54.084C248.524 54.084 248.64 54.128 248.72 54.216C248.808 54.296 248.852 54.416 248.852 54.576V55.608L248.72 55.464C248.888 55 249.16 54.652 249.536 54.42C249.92 54.18 250.36 54.06 250.856 54.06C251.32 54.06 251.704 54.144 252.008 54.312C252.32 54.48 252.552 54.736 252.704 55.08C252.856 55.416 252.932 55.844 252.932 56.364V59.58C252.932 59.74 252.888 59.864 252.8 59.952C252.72 60.04 252.604 60.084 252.452 60.084C252.292 60.084 252.168 60.04 252.08 59.952C252 59.864 251.96 59.74 251.96 59.58V56.424C251.96 55.88 251.852 55.484 251.636 55.236C251.428 54.98 251.092 54.852 250.628 54.852C250.092 54.852 249.664 55.02 249.344 55.356C249.032 55.684 248.876 56.124 248.876 56.676V59.58C248.876 59.916 248.712 60.084 248.384 60.084ZM257.149 60.108C256.581 60.108 256.089 59.984 255.673 59.736C255.257 59.488 254.933 59.14 254.701 58.692C254.477 58.236 254.365 57.7 254.365 57.084C254.365 56.62 254.429 56.204 254.557 55.836C254.685 55.46 254.873 55.14 255.121 54.876C255.369 54.612 255.661 54.412 255.997 54.276C256.341 54.132 256.725 54.06 257.149 54.06C257.717 54.06 258.209 54.184 258.625 54.432C259.041 54.68 259.361 55.032 259.585 55.488C259.817 55.936 259.933 56.468 259.933 57.084C259.933 57.548 259.869 57.964 259.741 58.332C259.613 58.7 259.425 59.02 259.177 59.292C258.929 59.556 258.633 59.76 258.289 59.904C257.953 60.04 257.573 60.108 257.149 60.108ZM257.149 59.328C257.509 59.328 257.825 59.24 258.097 59.064C258.369 58.888 258.577 58.632 258.721 58.296C258.873 57.96 258.949 57.556 258.949 57.084C258.949 56.356 258.785 55.8 258.457 55.416C258.137 55.032 257.701 54.84 257.149 54.84C256.781 54.84 256.461 54.928 256.189 55.104C255.925 55.272 255.717 55.524 255.565 55.86C255.421 56.188 255.349 56.596 255.349 57.084C255.349 57.804 255.513 58.36 255.841 58.752C256.169 59.136 256.605 59.328 257.149 59.328ZM264.99 60.084C264.83 60.084 264.71 60.04 264.63 59.952C264.55 59.864 264.51 59.74 264.51 59.58V54.576C264.51 54.416 264.55 54.296 264.63 54.216C264.71 54.128 264.826 54.084 264.978 54.084C265.13 54.084 265.246 54.128 265.326 54.216C265.414 54.296 265.458 54.416 265.458 54.576V55.632L265.326 55.464C265.478 55.016 265.722 54.672 266.058 54.432C266.402 54.184 266.81 54.06 267.282 54.06C267.778 54.06 268.178 54.18 268.482 54.42C268.794 54.652 269.002 55.016 269.106 55.512H268.926C269.07 55.064 269.326 54.712 269.694 54.456C270.07 54.192 270.506 54.06 271.002 54.06C271.442 54.06 271.802 54.144 272.082 54.312C272.37 54.48 272.586 54.736 272.73 55.08C272.874 55.416 272.946 55.844 272.946 56.364V59.58C272.946 59.74 272.902 59.864 272.814 59.952C272.734 60.04 272.614 60.084 272.454 60.084C272.302 60.084 272.182 60.04 272.094 59.952C272.014 59.864 271.974 59.74 271.974 59.58V56.412C271.974 55.876 271.882 55.484 271.698 55.236C271.514 54.98 271.202 54.852 270.762 54.852C270.282 54.852 269.902 55.02 269.622 55.356C269.35 55.684 269.214 56.132 269.214 56.7V59.58C269.214 59.74 269.17 59.864 269.082 59.952C269.002 60.04 268.882 60.084 268.722 60.084C268.57 60.084 268.45 60.04 268.362 59.952C268.282 59.864 268.242 59.74 268.242 59.58V56.412C268.242 55.876 268.146 55.484 267.954 55.236C267.77 54.98 267.462 54.852 267.03 54.852C266.55 54.852 266.17 55.02 265.89 55.356C265.618 55.684 265.482 56.132 265.482 56.7V59.58C265.482 59.916 265.318 60.084 264.99 60.084ZM277.188 60.108C276.62 60.108 276.128 59.984 275.712 59.736C275.296 59.488 274.972 59.14 274.74 58.692C274.516 58.236 274.404 57.7 274.404 57.084C274.404 56.62 274.468 56.204 274.596 55.836C274.724 55.46 274.912 55.14 275.16 54.876C275.408 54.612 275.7 54.412 276.036 54.276C276.38 54.132 276.764 54.06 277.188 54.06C277.756 54.06 278.248 54.184 278.664 54.432C279.08 54.68 279.4 55.032 279.624 55.488C279.856 55.936 279.972 56.468 279.972 57.084C279.972 57.548 279.908 57.964 279.78 58.332C279.652 58.7 279.464 59.02 279.216 59.292C278.968 59.556 278.672 59.76 278.328 59.904C277.992 60.04 277.612 60.108 277.188 60.108ZM277.188 59.328C277.548 59.328 277.864 59.24 278.136 59.064C278.408 58.888 278.616 58.632 278.76 58.296C278.912 57.96 278.988 57.556 278.988 57.084C278.988 56.356 278.824 55.8 278.496 55.416C278.176 55.032 277.74 54.84 277.188 54.84C276.82 54.84 276.5 54.928 276.228 55.104C275.964 55.272 275.756 55.524 275.604 55.86C275.46 56.188 275.388 56.596 275.388 57.084C275.388 57.804 275.552 58.36 275.88 58.752C276.208 59.136 276.644 59.328 277.188 59.328ZM281.924 60.084C281.764 60.084 281.64 60.04 281.552 59.952C281.472 59.864 281.432 59.74 281.432 59.58V54.576C281.432 54.416 281.472 54.296 281.552 54.216C281.632 54.128 281.748 54.084 281.9 54.084C282.052 54.084 282.168 54.128 282.248 54.216C282.336 54.296 282.38 54.416 282.38 54.576V55.548H282.26C282.388 55.076 282.632 54.712 282.992 54.456C283.352 54.2 283.796 54.064 284.324 54.048C284.444 54.04 284.54 54.068 284.612 54.132C284.684 54.188 284.724 54.288 284.732 54.432C284.74 54.568 284.708 54.676 284.636 54.756C284.564 54.836 284.452 54.884 284.3 54.9L284.108 54.924C283.564 54.972 283.144 55.148 282.848 55.452C282.56 55.748 282.416 56.156 282.416 56.676V59.58C282.416 59.74 282.372 59.864 282.284 59.952C282.204 60.04 282.084 60.084 281.924 60.084ZM288.29 60.108C287.674 60.108 287.142 59.988 286.694 59.748C286.254 59.5 285.91 59.152 285.662 58.704C285.422 58.256 285.302 57.72 285.302 57.096C285.302 56.488 285.422 55.96 285.662 55.512C285.902 55.056 286.23 54.7 286.646 54.444C287.07 54.188 287.558 54.06 288.11 54.06C288.502 54.06 288.854 54.128 289.166 54.264C289.478 54.392 289.742 54.58 289.958 54.828C290.182 55.076 290.35 55.376 290.462 55.728C290.582 56.08 290.642 56.476 290.642 56.916C290.642 57.044 290.606 57.14 290.534 57.204C290.462 57.26 290.358 57.288 290.222 57.288H286.046V56.652H289.994L289.802 56.808C289.802 56.376 289.738 56.012 289.61 55.716C289.482 55.412 289.294 55.18 289.046 55.02C288.806 54.86 288.502 54.78 288.134 54.78C287.726 54.78 287.378 54.876 287.09 55.068C286.81 55.252 286.598 55.512 286.454 55.848C286.31 56.176 286.238 56.56 286.238 57V57.072C286.238 57.808 286.414 58.368 286.766 58.752C287.126 59.136 287.634 59.328 288.29 59.328C288.562 59.328 288.83 59.292 289.094 59.22C289.366 59.148 289.63 59.028 289.886 58.86C289.998 58.788 290.098 58.756 290.186 58.764C290.282 58.764 290.358 58.792 290.414 58.848C290.47 58.896 290.506 58.96 290.522 59.04C290.546 59.112 290.538 59.192 290.498 59.28C290.466 59.368 290.398 59.444 290.294 59.508C290.03 59.7 289.718 59.848 289.358 59.952C288.998 60.056 288.642 60.108 288.29 60.108ZM297.482 60.108C297.026 60.108 296.642 60.028 296.33 59.868C296.026 59.7 295.798 59.46 295.646 59.148C295.494 58.828 295.418 58.44 295.418 57.984V54.924H294.614C294.478 54.924 294.374 54.892 294.302 54.828C294.23 54.756 294.194 54.66 294.194 54.54C294.194 54.42 294.23 54.328 294.302 54.264C294.374 54.2 294.478 54.168 294.614 54.168H295.418V52.788C295.418 52.628 295.462 52.508 295.55 52.428C295.638 52.34 295.758 52.296 295.91 52.296C296.062 52.296 296.178 52.34 296.258 52.428C296.346 52.508 296.39 52.628 296.39 52.788V54.168H297.902C298.038 54.168 298.142 54.2 298.214 54.264C298.286 54.328 298.322 54.42 298.322 54.54C298.322 54.66 298.286 54.756 298.214 54.828C298.142 54.892 298.038 54.924 297.902 54.924H296.39V57.888C296.39 58.344 296.486 58.692 296.678 58.932C296.87 59.164 297.182 59.28 297.614 59.28C297.766 59.28 297.894 59.264 297.998 59.232C298.11 59.2 298.202 59.184 298.274 59.184C298.346 59.176 298.406 59.2 298.454 59.256C298.502 59.312 298.526 59.408 298.526 59.544C298.526 59.64 298.506 59.728 298.466 59.808C298.434 59.888 298.374 59.944 298.286 59.976C298.19 60.008 298.062 60.036 297.902 60.06C297.75 60.092 297.61 60.108 297.482 60.108ZM299.888 60.084C299.728 60.084 299.608 60.04 299.528 59.952C299.448 59.864 299.408 59.74 299.408 59.58V51.948C299.408 51.788 299.448 51.668 299.528 51.588C299.608 51.5 299.728 51.456 299.888 51.456C300.04 51.456 300.16 51.5 300.248 51.588C300.336 51.668 300.38 51.788 300.38 51.948V55.464H300.224C300.392 55 300.664 54.652 301.04 54.42C301.424 54.18 301.864 54.06 302.36 54.06C302.824 54.06 303.208 54.144 303.512 54.312C303.824 54.48 304.056 54.736 304.208 55.08C304.36 55.416 304.436 55.844 304.436 56.364V59.58C304.436 59.74 304.392 59.864 304.304 59.952C304.224 60.04 304.108 60.084 303.956 60.084C303.796 60.084 303.672 60.04 303.584 59.952C303.504 59.864 303.464 59.74 303.464 59.58V56.424C303.464 55.88 303.356 55.484 303.14 55.236C302.932 54.98 302.596 54.852 302.132 54.852C301.596 54.852 301.168 55.02 300.848 55.356C300.536 55.684 300.38 56.124 300.38 56.676V59.58C300.38 59.916 300.216 60.084 299.888 60.084ZM308.064 60.108C307.664 60.108 307.304 60.032 306.984 59.88C306.672 59.72 306.424 59.504 306.24 59.232C306.056 58.96 305.964 58.656 305.964 58.32C305.964 57.888 306.072 57.548 306.288 57.3C306.512 57.052 306.876 56.876 307.38 56.772C307.892 56.668 308.588 56.616 309.468 56.616H310.008V57.252H309.48C308.832 57.252 308.32 57.284 307.944 57.348C307.576 57.404 307.316 57.504 307.164 57.648C307.02 57.792 306.948 57.996 306.948 58.26C306.948 58.588 307.06 58.856 307.284 59.064C307.516 59.272 307.828 59.376 308.22 59.376C308.54 59.376 308.82 59.3 309.06 59.148C309.308 58.996 309.5 58.788 309.636 58.524C309.78 58.26 309.852 57.956 309.852 57.612V56.244C309.852 55.748 309.752 55.392 309.552 55.176C309.352 54.952 309.024 54.84 308.568 54.84C308.288 54.84 308.008 54.876 307.728 54.948C307.448 55.02 307.152 55.136 306.84 55.296C306.728 55.352 306.632 55.372 306.552 55.356C306.472 55.332 306.408 55.288 306.36 55.224C306.312 55.16 306.284 55.088 306.276 55.008C306.268 54.92 306.284 54.836 306.324 54.756C306.372 54.676 306.444 54.612 306.54 54.564C306.892 54.388 307.24 54.26 307.584 54.18C307.928 54.1 308.256 54.06 308.568 54.06C309.072 54.06 309.488 54.144 309.816 54.312C310.144 54.472 310.388 54.72 310.548 55.056C310.708 55.384 310.788 55.808 310.788 56.328V59.58C310.788 59.74 310.748 59.864 310.668 59.952C310.596 60.04 310.488 60.084 310.344 60.084C310.192 60.084 310.076 60.04 309.996 59.952C309.916 59.864 309.876 59.74 309.876 59.58V58.644H309.984C309.92 58.948 309.796 59.208 309.612 59.424C309.436 59.64 309.216 59.808 308.952 59.928C308.688 60.048 308.392 60.108 308.064 60.108ZM313.072 60.084C312.912 60.084 312.792 60.04 312.712 59.952C312.632 59.864 312.592 59.74 312.592 59.58V54.576C312.592 54.416 312.632 54.296 312.712 54.216C312.792 54.128 312.908 54.084 313.06 54.084C313.212 54.084 313.328 54.128 313.408 54.216C313.496 54.296 313.54 54.416 313.54 54.576V55.608L313.408 55.464C313.576 55 313.848 54.652 314.224 54.42C314.608 54.18 315.048 54.06 315.544 54.06C316.008 54.06 316.392 54.144 316.696 54.312C317.008 54.48 317.24 54.736 317.392 55.08C317.544 55.416 317.62 55.844 317.62 56.364V59.58C317.62 59.74 317.576 59.864 317.488 59.952C317.408 60.04 317.292 60.084 317.14 60.084C316.98 60.084 316.856 60.04 316.768 59.952C316.688 59.864 316.648 59.74 316.648 59.58V56.424C316.648 55.88 316.54 55.484 316.324 55.236C316.116 54.98 315.78 54.852 315.316 54.852C314.78 54.852 314.352 55.02 314.032 55.356C313.72 55.684 313.564 56.124 313.564 56.676V59.58C313.564 59.916 313.4 60.084 313.072 60.084ZM323.454 60C323.31 60 323.198 59.964 323.118 59.892C323.038 59.812 322.998 59.704 322.998 59.568C322.998 59.432 323.038 59.332 323.118 59.268C323.198 59.196 323.31 59.16 323.454 59.16H325.014V52.356H325.53L323.79 53.508C323.686 53.564 323.586 53.588 323.49 53.58C323.402 53.572 323.326 53.54 323.262 53.484C323.206 53.42 323.166 53.348 323.142 53.268C323.118 53.18 323.122 53.092 323.154 53.004C323.186 52.908 323.254 52.828 323.358 52.764L325.014 51.672C325.118 51.608 325.218 51.556 325.314 51.516C325.41 51.476 325.506 51.456 325.602 51.456C325.714 51.456 325.806 51.492 325.878 51.564C325.958 51.628 325.998 51.732 325.998 51.876V59.16H327.438C327.582 59.16 327.694 59.196 327.774 59.268C327.854 59.332 327.894 59.432 327.894 59.568C327.894 59.712 327.854 59.82 327.774 59.892C327.694 59.964 327.582 60 327.438 60H323.454ZM332.389 60.108C331.421 60.108 330.685 59.736 330.181 58.992C329.677 58.248 329.425 57.172 329.425 55.764C329.425 54.82 329.537 54.028 329.761 53.388C329.985 52.74 330.317 52.252 330.757 51.924C331.205 51.596 331.749 51.432 332.389 51.432C333.365 51.432 334.101 51.8 334.597 52.536C335.101 53.264 335.353 54.336 335.353 55.752C335.353 56.696 335.241 57.492 335.017 58.14C334.793 58.788 334.461 59.28 334.021 59.616C333.581 59.944 333.037 60.108 332.389 60.108ZM332.389 59.256C333.061 59.256 333.557 58.972 333.877 58.404C334.205 57.828 334.369 56.944 334.369 55.752C334.369 54.552 334.205 53.676 333.877 53.124C333.557 52.564 333.061 52.284 332.389 52.284C331.725 52.284 331.229 52.564 330.901 53.124C330.573 53.684 330.409 54.56 330.409 55.752C330.409 56.944 330.573 57.828 330.901 58.404C331.229 58.972 331.725 59.256 332.389 59.256ZM337.508 60.084C337.364 60.084 337.252 60.044 337.172 59.964C337.092 59.876 337.052 59.756 337.052 59.604V51.936C337.052 51.776 337.092 51.656 337.172 51.576C337.252 51.496 337.364 51.456 337.508 51.456C337.636 51.456 337.736 51.484 337.808 51.54C337.888 51.588 337.96 51.672 338.024 51.792L341.312 57.984H340.952L344.228 51.792C344.292 51.672 344.36 51.588 344.432 51.54C344.504 51.484 344.608 51.456 344.744 51.456C344.88 51.456 344.988 51.496 345.068 51.576C345.148 51.656 345.188 51.776 345.188 51.936V59.604C345.188 59.756 345.148 59.876 345.068 59.964C344.996 60.044 344.884 60.084 344.732 60.084C344.588 60.084 344.476 60.044 344.396 59.964C344.316 59.876 344.276 59.756 344.276 59.604V52.86H344.564L341.564 58.488C341.508 58.592 341.448 58.668 341.384 58.716C341.328 58.756 341.244 58.776 341.132 58.776C341.02 58.776 340.932 58.752 340.868 58.704C340.804 58.656 340.748 58.584 340.7 58.488L337.664 52.848H337.952V59.604C337.952 59.756 337.912 59.876 337.832 59.964C337.76 60.044 337.652 60.084 337.508 60.084ZM347.834 60C347.658 60 347.522 59.956 347.426 59.868C347.338 59.772 347.294 59.636 347.294 59.46V52.08C347.294 51.904 347.338 51.772 347.426 51.684C347.522 51.588 347.658 51.54 347.834 51.54H350.678C351.262 51.54 351.754 51.628 352.154 51.804C352.562 51.972 352.874 52.22 353.09 52.548C353.306 52.876 353.414 53.276 353.414 53.748C353.414 54.276 353.258 54.716 352.946 55.068C352.642 55.42 352.226 55.652 351.698 55.764V55.596C352.298 55.668 352.766 55.884 353.102 56.244C353.446 56.604 353.618 57.08 353.618 57.672C353.618 58.424 353.374 59 352.886 59.4C352.398 59.8 351.71 60 350.822 60H347.834ZM348.254 59.208H350.726C351.366 59.208 351.846 59.08 352.166 58.824C352.486 58.568 352.646 58.18 352.646 57.66C352.646 57.132 352.486 56.744 352.166 56.496C351.846 56.24 351.366 56.112 350.726 56.112H348.254V59.208ZM348.254 55.32H350.534C351.158 55.32 351.63 55.192 351.95 54.936C352.278 54.68 352.442 54.312 352.442 53.832C352.442 53.336 352.278 52.964 351.95 52.716C351.63 52.46 351.158 52.332 350.534 52.332H348.254V55.32Z" fill="#030229" fill-opacity="0.5"/>
<rect x="415" y="22" width="91" height="38" rx="5" fill="#FBFDFE"/>
<path d="M434.16 44.09C433.847 44.09 433.543 44.0633 433.25 44.01C432.957 43.9633 432.68 43.89 432.42 43.79C432.16 43.69 431.927 43.5667 431.72 43.42C431.633 43.36 431.57 43.2867 431.53 43.2C431.497 43.1133 431.487 43.03 431.5 42.95C431.52 42.8633 431.557 42.79 431.61 42.73C431.67 42.67 431.74 42.6333 431.82 42.62C431.9 42.6067 431.987 42.6333 432.08 42.7C432.387 42.9067 432.707 43.0567 433.04 43.15C433.38 43.2433 433.753 43.29 434.16 43.29C434.747 43.29 435.177 43.1833 435.45 42.97C435.73 42.7567 435.87 42.4767 435.87 42.13C435.87 41.8433 435.77 41.62 435.57 41.46C435.37 41.2933 435.033 41.1633 434.56 41.07L433.5 40.85C432.873 40.7167 432.403 40.4967 432.09 40.19C431.783 39.8833 431.63 39.4733 431.63 38.96C431.63 38.6467 431.693 38.3633 431.82 38.11C431.947 37.85 432.127 37.6267 432.36 37.44C432.593 37.2533 432.867 37.11 433.18 37.01C433.5 36.91 433.853 36.86 434.24 36.86C434.653 36.86 435.04 36.9167 435.4 37.03C435.767 37.1433 436.097 37.31 436.39 37.53C436.47 37.59 436.523 37.6633 436.55 37.75C436.577 37.83 436.58 37.91 436.56 37.99C436.547 38.07 436.51 38.1367 436.45 38.19C436.397 38.2433 436.327 38.2733 436.24 38.28C436.16 38.2867 436.07 38.2567 435.97 38.19C435.703 38.0033 435.43 37.87 435.15 37.79C434.87 37.7033 434.563 37.66 434.23 37.66C433.89 37.66 433.593 37.7133 433.34 37.82C433.093 37.9267 432.9 38.0767 432.76 38.27C432.627 38.4567 432.56 38.6767 432.56 38.93C432.56 39.2367 432.653 39.4767 432.84 39.65C433.027 39.8233 433.34 39.9567 433.78 40.05L434.83 40.26C435.497 40.4 435.99 40.6167 436.31 40.91C436.637 41.1967 436.8 41.5833 436.8 42.07C436.8 42.3767 436.737 42.6533 436.61 42.9C436.49 43.1467 436.317 43.36 436.09 43.54C435.863 43.7133 435.587 43.85 435.26 43.95C434.933 44.0433 434.567 44.09 434.16 44.09ZM438.532 44C438.372 44 438.248 43.9567 438.162 43.87C438.075 43.7833 438.032 43.66 438.032 43.5V37.45C438.032 37.29 438.075 37.1667 438.162 37.08C438.248 36.9933 438.372 36.95 438.532 36.95H442.212C442.338 36.95 442.435 36.9833 442.502 37.05C442.575 37.11 442.612 37.2 442.612 37.32C442.612 37.4467 442.575 37.5433 442.502 37.61C442.435 37.6767 442.338 37.71 442.212 37.71H438.932V40.04H442.002C442.128 40.04 442.225 40.0733 442.292 40.14C442.358 40.2067 442.392 40.3 442.392 40.42C442.392 40.5467 442.358 40.6433 442.292 40.71C442.225 40.77 442.128 40.8 442.002 40.8H438.932V43.24H442.212C442.338 43.24 442.435 43.2733 442.502 43.34C442.575 43.4 442.612 43.4933 442.612 43.62C442.612 43.7467 442.575 43.8433 442.502 43.91C442.435 43.97 442.338 44 442.212 44H438.532ZM444.361 44C444.214 44 444.098 43.9567 444.011 43.87C443.931 43.7833 443.891 43.6667 443.891 43.52V37.38C443.891 37.2267 443.931 37.11 444.011 37.03C444.091 36.95 444.204 36.91 444.351 36.91C444.504 36.91 444.621 36.95 444.701 37.03C444.781 37.11 444.821 37.2267 444.821 37.38V43.2H448.001C448.141 43.2 448.244 43.2333 448.311 43.3C448.384 43.3667 448.421 43.4633 448.421 43.59C448.421 43.7233 448.384 43.8267 448.311 43.9C448.244 43.9667 448.141 44 448.001 44H444.361ZM449.87 44C449.71 44 449.586 43.9567 449.5 43.87C449.413 43.7833 449.37 43.66 449.37 43.5V37.45C449.37 37.29 449.413 37.1667 449.5 37.08C449.586 36.9933 449.71 36.95 449.87 36.95H453.55C453.676 36.95 453.773 36.9833 453.84 37.05C453.913 37.11 453.95 37.2 453.95 37.32C453.95 37.4467 453.913 37.5433 453.84 37.61C453.773 37.6767 453.676 37.71 453.55 37.71H450.27V40.04H453.34C453.466 40.04 453.563 40.0733 453.63 40.14C453.696 40.2067 453.73 40.3 453.73 40.42C453.73 40.5467 453.696 40.6433 453.63 40.71C453.563 40.77 453.466 40.8 453.34 40.8H450.27V43.24H453.55C453.676 43.24 453.773 43.2733 453.84 43.34C453.913 43.4 453.95 43.4933 453.95 43.62C453.95 43.7467 453.913 43.8433 453.84 43.91C453.773 43.97 453.676 44 453.55 44H449.87ZM458.3 44.09C457.6 44.09 457 43.9433 456.5 43.65C456 43.3567 455.613 42.94 455.34 42.4C455.073 41.8533 454.94 41.21 454.94 40.47C454.94 39.9167 455.016 39.42 455.17 38.98C455.323 38.5333 455.543 38.1533 455.83 37.84C456.116 37.52 456.466 37.2767 456.88 37.11C457.3 36.9433 457.773 36.86 458.3 36.86C458.7 36.86 459.083 36.9167 459.45 37.03C459.823 37.1433 460.143 37.3033 460.41 37.51C460.516 37.5833 460.586 37.6667 460.62 37.76C460.653 37.8533 460.656 37.9433 460.63 38.03C460.61 38.11 460.566 38.18 460.5 38.24C460.44 38.2933 460.363 38.3233 460.27 38.33C460.176 38.33 460.076 38.2933 459.97 38.22C459.736 38.04 459.48 37.91 459.2 37.83C458.926 37.7433 458.633 37.7 458.32 37.7C457.806 37.7 457.37 37.81 457.01 38.03C456.656 38.2433 456.386 38.5567 456.2 38.97C456.02 39.3767 455.93 39.8767 455.93 40.47C455.93 41.0567 456.02 41.56 456.2 41.98C456.386 42.3933 456.656 42.71 457.01 42.93C457.37 43.1433 457.806 43.25 458.32 43.25C458.633 43.25 458.93 43.2067 459.21 43.12C459.496 43.0333 459.76 42.9 460 42.72C460.106 42.6467 460.203 42.6133 460.29 42.62C460.383 42.6267 460.46 42.6567 460.52 42.71C460.58 42.7567 460.62 42.8233 460.64 42.91C460.666 42.99 460.666 43.0733 460.64 43.16C460.613 43.2467 460.553 43.3233 460.46 43.39C460.186 43.6233 459.86 43.8 459.48 43.92C459.106 44.0333 458.713 44.09 458.3 44.09ZM464.04 44.07C463.887 44.07 463.77 44.03 463.69 43.95C463.61 43.8633 463.57 43.7433 463.57 43.59V37.74H461.38C461.253 37.74 461.153 37.7067 461.08 37.64C461.007 37.5667 460.97 37.4667 460.97 37.34C460.97 37.2133 461.007 37.1167 461.08 37.05C461.153 36.9833 461.253 36.95 461.38 36.95H466.69C466.823 36.95 466.923 36.9833 466.99 37.05C467.063 37.1167 467.1 37.2133 467.1 37.34C467.1 37.4667 467.063 37.5667 466.99 37.64C466.923 37.7067 466.823 37.74 466.69 37.74H464.5V43.59C464.5 43.7433 464.46 43.8633 464.38 43.95C464.307 44.03 464.193 44.07 464.04 44.07ZM471.022 44.07C470.868 44.07 470.748 44.0267 470.662 43.94C470.575 43.8533 470.532 43.73 470.532 43.57V37.45C470.532 37.29 470.575 37.1667 470.662 37.08C470.748 36.9933 470.872 36.95 471.032 36.95H474.622C474.755 36.95 474.855 36.9833 474.922 37.05C474.988 37.11 475.022 37.2 475.022 37.32C475.022 37.4467 474.988 37.5433 474.922 37.61C474.855 37.6767 474.755 37.71 474.622 37.71H471.462V40.07H474.422C474.548 40.07 474.645 40.1033 474.712 40.17C474.778 40.2367 474.812 40.3267 474.812 40.44C474.812 40.5667 474.778 40.6633 474.712 40.73C474.645 40.7967 474.548 40.83 474.422 40.83H471.462V43.57C471.462 43.9033 471.315 44.07 471.022 44.07ZM476.499 44.07C476.353 44.07 476.239 44.03 476.159 43.95C476.079 43.8633 476.039 43.7433 476.039 43.59V37.36C476.039 37.2 476.079 37.08 476.159 37C476.239 36.92 476.353 36.88 476.499 36.88C476.653 36.88 476.769 36.92 476.849 37C476.929 37.08 476.969 37.2 476.969 37.36V43.59C476.969 43.7433 476.929 43.8633 476.849 43.95C476.776 44.03 476.659 44.07 476.499 44.07ZM479.127 44C478.98 44 478.863 43.9567 478.777 43.87C478.697 43.7833 478.657 43.6667 478.657 43.52V37.38C478.657 37.2267 478.697 37.11 478.777 37.03C478.857 36.95 478.97 36.91 479.117 36.91C479.27 36.91 479.387 36.95 479.467 37.03C479.547 37.11 479.587 37.2267 479.587 37.38V43.2H482.767C482.907 43.2 483.01 43.2333 483.077 43.3C483.15 43.3667 483.187 43.4633 483.187 43.59C483.187 43.7233 483.15 43.8267 483.077 43.9C483.01 43.9667 482.907 44 482.767 44H479.127ZM484.635 44C484.475 44 484.352 43.9567 484.265 43.87C484.178 43.7833 484.135 43.66 484.135 43.5V37.45C484.135 37.29 484.178 37.1667 484.265 37.08C484.352 36.9933 484.475 36.95 484.635 36.95H488.315C488.442 36.95 488.538 36.9833 488.605 37.05C488.678 37.11 488.715 37.2 488.715 37.32C488.715 37.4467 488.678 37.5433 488.605 37.61C488.538 37.6767 488.442 37.71 488.315 37.71H485.035V40.04H488.105C488.232 40.04 488.328 40.0733 488.395 40.14C488.462 40.2067 488.495 40.3 488.495 40.42C488.495 40.5467 488.462 40.6433 488.395 40.71C488.328 40.77 488.232 40.8 488.105 40.8H485.035V43.24H488.315C488.442 43.24 488.538 43.2733 488.605 43.34C488.678 43.4 488.715 43.4933 488.715 43.62C488.715 43.7467 488.678 43.8433 488.605 43.91C488.538 43.97 488.442 44 488.315 44H484.635Z" fill="#382C7C"/>
<rect x="414.5" y="21.5" width="92" height="39" rx="5.5" stroke="#382C7C" stroke-opacity="0.7"/>
<rect x="0.5" y="0.5" width="532" height="81" rx="10.5" stroke="black" stroke-opacity="0.25" stroke-dasharray="4 4"/>
</svg>
