<svg width="58" height="58" viewBox="0 0 58 58" fill="none" xmlns="http://www.w3.org/2000/svg">
<g clip-path="url(#clip0_1_1545)">
<mask id="mask0_1_1545" style="mask-type:luminance" maskUnits="userSpaceOnUse" x="0" y="0" width="57" height="57">
<path d="M0.935059 0.588623H56.793V56.4466H0.935059V0.588623Z" fill="white"/>
</mask>
<g mask="url(#mask0_1_1545)">
<path d="M28.8652 56.4466C44.2892 56.4466 56.793 43.9428 56.793 28.5176C56.793 13.0949 44.2892 0.588623 28.8652 0.588623C13.4413 0.588623 0.935059 13.0924 0.935059 28.5188C0.935059 43.9428 13.4389 56.4466 28.8652 56.4466Z" fill="#E7E5EE"/>
<path d="M29.4252 15.7739L29.401 15.901C28.7574 15.8511 28.1189 15.7491 27.4917 15.5959H28.0523C28.4845 15.6976 28.9421 15.7485 29.4252 15.7739ZM26.9578 15.7473C27.7472 16.0015 28.5353 16.1553 29.3235 16.2061L29.2993 16.3332C28.493 16.2728 27.6977 16.11 26.9324 15.849C26.8174 15.8034 26.6982 15.7693 26.5765 15.7473C26.6273 15.7231 26.7036 15.6964 26.7799 15.671C26.8561 15.6964 26.907 15.7231 26.9578 15.7473ZM34.2328 15.5947C33.8768 15.671 33.5209 15.7727 33.1904 15.8756C33.1395 15.8998 33.0887 15.8998 33.0378 15.9252L33.062 15.7727C33.0887 15.7727 33.1141 15.7485 33.1395 15.7485C33.3175 15.6964 33.47 15.6456 33.648 15.5947H34.2328ZM26.9578 16.1807C27.7206 16.4349 28.4845 16.5875 29.2472 16.6383L29.223 16.7654C28.4591 16.7146 27.6709 16.5354 26.9324 16.3078C26.654 16.2315 26.3997 16.1553 26.1188 16.0778C26.1697 16.0536 26.1951 16.0027 26.246 15.9773C26.476 16.0281 26.7302 16.1044 26.9578 16.1807ZM35.8611 15.7993C34.954 15.8467 34.0566 16.009 33.1904 16.2824C33.1141 16.3066 33.0378 16.3332 32.9361 16.3587L32.9603 16.2061C33.0124 16.1807 33.0887 16.1807 33.1395 16.1553C33.9447 15.8819 34.7833 15.719 35.6323 15.671C35.7028 15.7234 35.7797 15.7665 35.8611 15.7993ZM26.959 16.5875C27.6963 16.8163 28.4336 16.9688 29.1722 17.0451L29.1467 17.1722C28.3953 17.0958 27.6537 16.9424 26.9336 16.7146C26.5777 16.5875 26.1951 16.5112 25.8392 16.4349C25.8646 16.3841 25.89 16.3587 25.9154 16.3078C26.2714 16.3841 26.6273 16.4858 26.959 16.5863V16.5875ZM36.2933 16.2303C35.2509 16.2303 34.2073 16.3841 33.1904 16.7146C33.0887 16.74 32.9616 16.7909 32.8599 16.8163L32.8853 16.6637C32.9616 16.6383 33.0633 16.6129 33.1395 16.5875C34.1323 16.257 35.1492 16.1032 36.1916 16.079C36.2171 16.1298 36.2679 16.1795 36.2933 16.2303ZM26.9578 16.9943C27.6526 17.2194 28.3686 17.3727 29.0947 17.4519L29.0692 17.579C28.3428 17.5025 27.6265 17.3491 26.9324 17.1214C26.5002 16.9943 26.0934 16.8671 25.6612 16.7909C25.6612 16.74 25.6854 16.7146 25.7108 16.6637C26.1188 16.7654 26.5511 16.8671 26.9578 16.9943ZM36.4204 16.6383C35.315 16.6099 34.2131 16.7738 33.1637 17.1226C33.0378 17.1722 32.8853 17.1977 32.757 17.2485L32.7824 17.096C32.8841 17.0717 33.0124 17.0197 33.1141 16.9943C34.1631 16.646 35.2646 16.4825 36.3696 16.5112C36.4204 16.5621 36.4204 16.5875 36.4204 16.6383ZM26.9578 17.4277C27.6455 17.6565 28.3319 17.7836 29.0184 17.8599L28.993 17.987C28.2943 17.9068 27.6045 17.7621 26.9324 17.5548C26.4842 17.4088 26.0251 17.2983 25.5595 17.2243L25.5837 17.0972C26.068 17.1734 26.5256 17.2751 26.9578 17.4277ZM36.4459 16.9446V17.0705C35.3404 17.0421 34.2385 17.206 33.1892 17.5548C33.0112 17.6057 32.8586 17.6565 32.6807 17.7073L32.7061 17.5548C32.8586 17.504 32.9858 17.4785 33.1395 17.4277C34.2056 17.079 35.3234 16.9152 36.4447 16.9434L36.4459 16.9446ZM26.9833 17.8587C27.6207 18.0662 28.2767 18.2113 28.9421 18.2921L28.9167 18.4192C28.2434 18.3362 27.5792 18.1915 26.9324 17.987C26.4585 17.8321 25.9737 17.7128 25.482 17.6299L25.5075 17.5027C25.9917 17.579 26.5002 17.7061 26.9833 17.8587ZM36.3696 17.3756L36.3442 17.5027C35.2751 17.5027 34.2073 17.6553 33.1892 17.987C32.9858 18.0367 32.8078 18.1129 32.6044 18.1638L32.6298 18.0112L33.1637 17.8587C34.1956 17.5104 35.2809 17.3468 36.3696 17.3756ZM26.9578 18.2667C27.5947 18.4701 28.229 18.5972 28.8659 18.6989L28.8416 18.826C28.1925 18.7456 27.5529 18.6008 26.9324 18.3938C26.4239 18.2413 25.9154 18.1141 25.407 18.0124L25.4312 17.8853C25.9397 17.987 26.4748 18.1141 26.9578 18.2667ZM36.2933 17.7836L36.2691 17.9107C35.2235 17.9058 34.1839 18.0693 33.1904 18.395C32.9603 18.4701 32.7582 18.5209 32.5293 18.5972L32.5536 18.4446C32.7582 18.3938 32.9616 18.343 33.1395 18.2667C34.1598 17.9447 35.2235 17.7814 36.2933 17.7824V17.7836ZM26.9578 18.7001C27.5535 18.8955 28.1671 19.0314 28.7896 19.1057L28.7642 19.2328C28.1438 19.1459 27.5313 19.0099 26.9324 18.826C26.4111 18.651 25.875 18.5234 25.3307 18.4446L25.3549 18.3175C25.89 18.3938 26.4239 18.5209 26.9578 18.6989V18.7001ZM36.2171 18.1904L36.1928 18.3175C35.1747 18.3175 34.1565 18.4955 33.1904 18.8018C32.9361 18.8769 32.6819 18.9531 32.4276 19.004L32.4519 18.8514C32.6844 18.7955 32.9139 18.7276 33.1395 18.648C34.1565 18.3684 35.1735 18.1904 36.2171 18.1904ZM26.9578 19.1311C27.5184 19.3091 28.1031 19.4616 28.6879 19.5379L28.6625 19.665C28.0649 19.5901 27.4766 19.4538 26.907 19.2582C26.3597 19.083 25.7983 18.9554 25.229 18.8769L25.2532 18.7497C25.8322 18.8227 26.403 18.9503 26.9578 19.1311ZM36.1408 18.6226L36.1154 18.7497C35.1224 18.7717 34.1376 18.9344 33.1904 19.2328C32.9173 19.3326 32.6362 19.4092 32.3502 19.4616L32.3756 19.3091C32.6298 19.2582 32.8841 19.1819 33.1383 19.079C34.116 18.8012 35.1247 18.6479 36.1408 18.6226ZM26.9578 19.5633C27.5172 19.7413 28.0523 19.8684 28.6116 19.9447L28.5862 20.0718C28.0165 19.9933 27.4547 19.8657 26.907 19.6904C26.334 19.5067 25.7469 19.3707 25.1515 19.2836L25.1769 19.1565C25.7883 19.2328 26.3731 19.3599 26.9578 19.5633ZM36.0645 19.0548L36.0391 19.1819C35.0711 19.2044 34.1115 19.3676 33.1904 19.6662C32.8853 19.7667 32.5802 19.8442 32.2751 19.9205L32.2993 19.7667C32.5802 19.7159 32.8599 19.6142 33.165 19.5379C34.103 19.2376 35.0797 19.0748 36.0645 19.0548ZM26.9578 19.9713C27.4917 20.1481 28.0269 20.2752 28.5353 20.3515L28.5099 20.4786C27.9652 20.3999 27.4288 20.2722 26.907 20.0972C26.3114 19.9013 25.6978 19.765 25.0752 19.6904L25.1007 19.5633C25.7375 19.6142 26.3731 19.7679 26.9578 19.9713ZM35.9616 19.4628L35.9374 19.5887C34.9955 19.6142 34.0802 19.7921 33.165 20.073C32.8332 20.1735 32.5027 20.2764 32.148 20.3515L32.1722 20.1989C32.4773 20.1226 32.8078 20.0464 33.1141 19.9447C34.0802 19.6662 35.0209 19.487 35.9628 19.4616L35.9616 19.4628ZM26.9578 20.3781C27.4663 20.5306 27.9506 20.6578 28.4591 20.734L28.4336 20.8611C27.9143 20.7821 27.4036 20.6544 26.9082 20.4798C26.2873 20.2755 25.6485 20.1308 25.0002 20.0476L25.0244 19.9205C25.6866 20.0476 26.3222 20.1747 26.9578 20.3781ZM35.8865 19.8938L35.8623 20.0222C34.9534 20.0569 34.0539 20.2195 33.1904 20.5052C32.8333 20.6248 32.4679 20.7179 32.0971 20.7837L32.1213 20.6323C32.4785 20.5561 32.809 20.4798 33.1395 20.3527C34.0548 20.0984 34.9701 19.9205 35.8865 19.8938ZM26.9578 20.8357C27.4421 20.9883 27.8985 21.1154 28.3828 21.1917L28.3574 21.3188C27.8657 21.2363 27.3809 21.1174 26.907 20.9628C26.2522 20.7557 25.5793 20.611 24.8973 20.5306L24.9227 20.4035C25.6173 20.4565 26.3017 20.6019 26.9578 20.8357ZM35.8103 20.3272L35.7848 20.4544C34.9026 20.5022 34.0304 20.665 33.1904 20.9386C32.809 21.0645 32.401 21.1662 32.0197 21.2425L32.0451 21.09C32.4264 21.0137 32.7836 20.912 33.165 20.7849C34.0254 20.5277 34.9134 20.374 35.8103 20.3272ZM26.9833 21.2425C27.4409 21.3951 27.8743 21.4967 28.3319 21.573L28.3065 21.7001C27.843 21.6142 27.3843 21.5038 26.9324 21.3696C26.2581 21.1383 25.5572 20.993 24.8464 20.9374L24.8719 20.8103C25.5909 20.8658 26.3002 21.011 26.9833 21.2425ZM35.734 20.7582L35.7086 20.8866C34.8592 20.934 34.0202 21.0965 33.2146 21.3696C32.7824 21.4967 32.3756 21.6239 31.9434 21.7001L31.9688 21.573C32.3756 21.4967 32.7824 21.3951 33.165 21.2679C33.9914 20.9722 34.8572 20.7996 35.734 20.7582ZM26.9578 21.6759C27.3913 21.803 27.798 21.9302 28.229 22.0064L28.2048 22.1336C27.7665 22.0474 27.3332 21.937 26.907 21.803C26.2046 21.5754 25.4803 21.422 24.7459 21.3454L24.7702 21.2183C25.5329 21.2946 26.2472 21.4471 26.9578 21.6759ZM35.6323 21.1917L35.6069 21.3188C34.7855 21.3702 33.9737 21.5239 33.1904 21.7764C32.7512 21.9253 32.3 22.0359 31.8417 22.1069L31.8671 21.9544C32.3001 21.8833 32.7256 21.7727 33.1383 21.6239C33.9519 21.3916 34.788 21.2467 35.6323 21.1917ZM26.9578 22.0827C27.3658 22.2098 27.7726 22.3127 28.154 22.3878L28.1286 22.5149C27.7157 22.4373 27.3078 22.3355 26.907 22.2098C26.1782 21.982 25.4282 21.8286 24.6685 21.7522L24.6939 21.6251C25.4832 21.6759 26.2205 21.8285 26.9578 22.0827ZM35.556 21.5984L35.5306 21.7256C34.7341 21.7771 33.9476 21.9309 33.1904 22.1832C32.7259 22.3406 32.2493 22.4596 31.7654 22.5391L31.7908 22.412C32.2466 22.3289 32.697 22.2185 33.1395 22.0815C33.9219 21.8209 34.7336 21.6586 35.556 21.5984Z" fill="black"/>
<path d="M35.4787 22.0569L35.4533 22.184C34.6906 22.2349 33.9279 22.414 33.1893 22.6416C31.1558 23.3031 28.9649 23.3031 26.9314 22.6416C26.1829 22.3894 25.4048 22.2355 24.6166 22.184L24.642 22.0569C25.4385 22.1084 26.225 22.2622 26.9822 22.5145C28.9897 23.176 31.1564 23.176 33.1639 22.5145C33.9024 22.2603 34.6894 22.1077 35.4787 22.0569Z" fill="black"/>
<path d="M35.4019 22.4646L35.3765 22.5917C34.638 22.668 33.9007 22.7951 33.1888 23.0493C31.1553 23.7109 28.9644 23.7109 26.9309 23.0493C26.1556 22.7993 25.3526 22.6456 24.5398 22.5917L24.5652 22.4646C25.3893 22.5123 26.2026 22.6749 26.9817 22.9476C28.9892 23.6091 31.1559 23.6091 33.1634 22.9476C33.8873 22.6965 34.639 22.5351 35.4019 22.4646ZM38.9371 22.7939L38.9117 22.9222C38.7337 22.8714 38.5812 22.8205 38.4032 22.7951H38.9359L38.9371 22.7939Z" fill="black"/>
<path d="M38.8596 23.2011L38.8354 23.3282C36.9793 22.8182 35.0135 22.8713 33.1876 23.4808C31.154 24.1422 28.9632 24.1422 26.9296 23.4808C24.9472 22.8366 22.8131 22.8277 20.8254 23.4553C20.8763 23.4045 20.9017 23.3282 20.978 23.2774C22.94 22.6919 25.0339 22.7185 26.9805 23.3536C28.988 24.0152 31.1547 24.0152 33.1622 23.3536C35.0051 22.7445 36.9867 22.6914 38.8596 23.2011Z" fill="black"/>
<path d="M38.7853 23.6084L38.7599 23.7356C36.9259 23.2469 34.9886 23.3088 33.1896 23.9135C31.156 24.575 28.9652 24.575 26.9316 23.9135C24.9332 23.2524 22.775 23.2524 20.7766 23.9135L20.7003 23.939C20.6749 23.939 20.6494 23.9644 20.624 23.9644C20.624 23.9135 20.6482 23.8627 20.6749 23.8118L20.7511 23.7864C22.7756 23.1251 24.958 23.1251 26.9825 23.7864C28.9899 24.4479 31.1567 24.4479 33.1642 23.7864C34.9807 23.1817 36.9342 23.1198 38.7853 23.6084Z" fill="black"/>
<path d="M38.7089 23.9897L38.6847 24.1168C36.8703 23.662 34.964 23.7325 33.1883 24.3202C31.1551 24.9813 28.9647 24.9813 26.9315 24.3202C24.9331 23.6589 22.7749 23.6589 20.7765 24.3202L20.7002 24.3456C20.6448 24.3741 20.5843 24.3914 20.5222 24.3965L20.5464 24.2439C20.5731 24.2439 20.6239 24.2197 20.6493 24.2197L20.7256 24.1931C22.7501 23.5318 24.9325 23.5318 26.9569 24.1931C28.9644 24.8546 31.1312 24.8546 33.1386 24.1931C34.9399 23.6059 36.8696 23.5354 38.7089 23.9897Z" fill="black"/>
<path d="M38.6301 24.422L38.6046 24.5491C36.8141 24.1198 34.9402 24.1902 33.1869 24.7525C31.1533 25.4139 28.9625 25.4139 26.9289 24.7525C24.9305 24.0912 22.7723 24.0912 20.7739 24.7525L20.6976 24.7779C20.6213 24.8033 20.5196 24.8288 20.4434 24.8542L20.4676 24.7016C20.5196 24.6774 20.5959 24.6774 20.6468 24.6508L20.723 24.6266C22.7475 23.9654 24.9299 23.9654 26.9543 24.6266C28.9618 25.2881 31.1286 25.2881 33.136 24.6266C34.911 24.0391 36.8163 23.9681 38.6301 24.422Z" fill="black"/>
<path d="M38.5574 24.8034C38.5565 24.8506 38.5384 24.8958 38.5066 24.9305C36.7511 24.4983 34.9206 24.6 33.1651 25.1606C31.1315 25.822 28.9407 25.822 26.9071 25.1606C24.9174 24.4993 22.7672 24.4993 20.7775 25.1606L20.7012 25.1848C20.5995 25.2102 20.4712 25.2623 20.3707 25.2877L20.3949 25.1339C20.4724 25.1097 20.5741 25.0831 20.6492 25.0577L20.7267 25.0335C22.7512 24.3723 24.9335 24.3723 26.958 25.0335C28.9655 25.695 31.1322 25.695 33.1397 25.0335C34.8929 24.4758 36.7632 24.3964 38.5574 24.8034Z" fill="black"/>
<path d="M38.4006 25.1857C38.3752 25.2366 38.3498 25.262 38.3244 25.3128C36.6174 24.9469 34.8437 25.043 33.1863 25.5913C32.5575 25.7987 31.9099 25.9439 31.2528 26.0247C30.3222 26.1351 29.3809 26.118 28.455 25.9739C27.9356 25.8948 27.4249 25.7672 26.9295 25.5925C24.9307 24.931 22.772 24.931 20.7733 25.5925L20.697 25.6167C20.5444 25.6688 20.4173 25.7196 20.2648 25.745L20.289 25.5925C20.4173 25.5671 20.519 25.5162 20.6461 25.4908L20.7224 25.4654C22.7469 24.8041 24.9293 24.8041 26.9537 25.4654C28.9612 26.1267 31.1279 26.1267 33.1354 25.4654C34.8342 24.9046 36.652 24.808 38.4006 25.1857Z" fill="black"/>
<path d="M26.9543 25.897C27.1844 25.9733 27.3865 26.0241 27.6166 26.075L27.5911 26.2021C27.366 26.1495 27.1447 26.0816 26.9289 25.9987C25.0085 25.3636 22.9388 25.337 21.0027 25.9224H20.545C20.5693 25.9224 20.6213 25.897 20.6722 25.897L20.7484 25.8716C22.7689 25.2314 24.9392 25.2403 26.9543 25.897ZM38.0961 25.5665L38.0199 25.6428C37.9944 25.6682 37.969 25.6682 37.9436 25.6936C36.3446 25.4164 34.7018 25.5387 33.1615 26.0495C32.5067 26.2571 31.8338 26.4023 31.1517 26.483L31.1772 26.3558C31.8343 26.275 32.4819 26.1298 33.1106 25.9224C34.7141 25.3764 36.4314 25.2538 38.0961 25.5665Z" fill="black"/>
<path d="M26.9576 26.3049C27.161 26.3557 27.3402 26.432 27.5436 26.4829L27.5181 26.61C27.3185 26.566 27.1226 26.5065 26.9322 26.432C25.7841 26.0579 24.5779 25.8938 23.3716 25.9478H22.15C23.7576 25.671 25.4086 25.7936 26.9576 26.3049ZM37.4384 25.8981C37.2047 25.9528 36.9652 25.9785 36.7253 25.9744C36.3949 25.9489 36.063 25.9489 35.7325 25.9744C35.4541 25.9744 35.1478 26.0252 34.8681 26.0507C34.2989 26.1292 33.7374 26.2568 33.1901 26.432C32.5158 26.6634 31.8149 26.8087 31.1041 26.8642L31.1284 26.7371C31.8104 26.6568 32.4833 26.5121 33.1381 26.3049C34.5237 25.8545 35.9929 25.7156 37.4384 25.8981Z" fill="black"/>
<path d="M26.9816 26.7365C27.1341 26.7873 27.3133 26.8382 27.49 26.889L27.4658 27.0161C27.2867 26.9653 27.1341 26.9144 26.9574 26.8636C25.9957 26.5507 24.9916 26.3878 23.9803 26.3805L24.0057 26.2534C24.9985 26.2534 25.99 26.406 26.9816 26.7377V26.7365ZM34.8158 26.3297L34.7916 26.4568C34.2547 26.5327 33.7264 26.6604 33.2141 26.8382C32.5113 27.0659 31.7866 27.2193 31.0518 27.2958L31.0761 27.1687C31.7835 27.0885 32.4821 26.9438 33.1633 26.7365C33.7004 26.5503 34.2536 26.4141 34.8158 26.3297ZM26.9561 27.1687C27.1087 27.2195 27.2358 27.245 27.3884 27.2958L27.3641 27.4229C27.2104 27.3721 27.0578 27.3467 26.9307 27.2958C25.938 26.9653 24.921 26.8127 23.8786 26.8127L23.9028 26.6856C24.9401 26.6806 25.9713 26.843 26.9561 27.1687ZM34.7141 26.7873L34.6899 26.9144C34.1697 26.9937 33.6582 27.1218 33.162 27.297C32.4247 27.5258 31.6874 27.6784 30.9247 27.7547L30.9489 27.6275C31.6841 27.5511 32.4092 27.3977 33.1124 27.1699C33.6353 27.0002 34.1709 26.8722 34.7141 26.7873ZM26.9561 27.5767C27.0833 27.6009 27.1862 27.653 27.3121 27.6784L27.2879 27.8055C27.1595 27.7801 27.0336 27.7292 26.9053 27.7038C25.8976 27.3659 24.8396 27.2021 23.7769 27.2195L23.8023 27.0924C24.8956 27.0924 25.9392 27.245 26.9561 27.5767ZM34.6378 27.2195L34.6136 27.3733C34.1294 27.4496 33.6451 27.5767 33.1887 27.7292C32.426 27.9835 31.662 28.136 30.8739 28.1869L30.8981 28.0597C31.662 27.9835 32.3993 27.8297 33.1378 27.6021C33.6463 27.4241 34.1294 27.297 34.6391 27.2195H34.6378ZM26.9816 28.0077C27.0578 28.0331 27.1595 28.0597 27.2612 28.0852L27.237 28.2123C27.1425 28.1901 27.0489 28.1647 26.9561 28.136C25.9218 27.7997 24.8391 27.6361 23.7515 27.6517L23.7757 27.5246C24.8644 27.4982 25.9493 27.6608 26.9816 28.0077ZM34.5616 27.653L34.5374 27.7801C34.0785 27.8563 33.6463 27.9835 33.1887 28.1106C32.4032 28.3595 31.5929 28.5219 30.7722 28.5949L30.7964 28.4665C31.5857 28.4157 32.3739 28.2377 33.1378 28.0089C33.6209 27.8563 34.0785 27.7292 34.5616 27.653ZM26.9561 28.4157C27.0324 28.4399 27.0833 28.4665 27.1595 28.4665L27.1353 28.5936L26.9053 28.5174C25.848 28.1668 24.7378 28.003 23.6244 28.0331L23.6486 27.9072C24.7939 27.9072 25.8883 28.0597 26.9561 28.4157ZM34.4853 28.0852L34.4611 28.2377C34.0278 28.3088 33.6018 28.4194 33.1887 28.5682C32.3883 28.8266 31.56 28.9888 30.7213 29.0513L30.7455 28.9242C31.5674 28.8729 32.3795 28.7191 33.1633 28.4665C33.5955 28.2631 34.0277 28.1614 34.4853 28.0852ZM26.9561 28.8479C27.007 28.8479 27.0324 28.8733 27.0833 28.8733L27.059 29.0004C27.007 29.0004 26.9561 28.975 26.9053 28.9496C25.8214 28.6007 24.6864 28.437 23.5481 28.4653L23.5735 28.3394C24.7176 28.3394 25.8629 28.4919 26.9561 28.8479ZM34.4102 28.5428L34.3836 28.6699C33.9796 28.7476 33.5805 28.8495 33.1887 28.975C32.3573 29.2486 31.4935 29.4114 30.6196 29.4593L30.6438 29.3309C31.4932 29.2835 32.3322 29.121 33.1378 28.8479C33.57 28.7208 33.978 28.6191 34.4102 28.5428ZM26.9816 29.2813H27.0324L27.0082 29.4072C26.9816 29.4072 26.9561 29.4072 26.9561 29.383C25.8405 29.0198 24.6697 28.8559 23.4973 28.8987L23.5215 28.7716C24.6955 28.7405 25.8661 28.9125 26.9816 29.2801V29.2813ZM34.3328 28.975L34.3073 29.1021C33.926 29.1784 33.5688 29.2801 33.2141 29.3818C32.3597 29.6677 31.469 29.8307 30.5688 29.8661L30.593 29.7389C31.4669 29.6911 32.3307 29.5283 33.162 29.2547C33.5446 29.153 33.9248 29.0501 34.3328 28.975ZM26.9561 29.6869L26.9319 29.8152C25.8009 29.4411 24.611 29.277 23.421 29.3309L23.4464 29.2038C24.6365 29.1499 25.8263 29.3141 26.9574 29.6881L26.9561 29.6869ZM34.2565 29.4072L34.2311 29.5343C33.8772 29.6037 33.5286 29.6972 33.1875 29.814C32.3069 30.1001 31.3911 30.2631 30.4659 30.2983L30.4913 30.1699C31.3901 30.1226 32.2791 29.9603 33.1366 29.6869C33.4926 29.5852 33.8751 29.4835 34.2565 29.4072ZM26.8799 30.0949L26.8557 30.222C25.7203 29.8688 24.5326 29.714 23.3447 29.7644L23.3689 29.6372C24.5568 29.5868 25.7446 29.7416 26.8799 30.0949ZM34.156 29.8649L34.1294 29.992C33.8119 30.0617 33.498 30.1465 33.1887 30.2462C32.285 30.5447 31.3422 30.7079 30.3908 30.7305L30.4162 30.6034C31.3414 30.5682 32.2573 30.4052 33.1378 30.1191C33.4683 30.0174 33.8243 29.9157 34.1548 29.8649H34.156ZM19.7575 30.8576H20.1909C20.0413 30.9036 19.8883 30.9376 19.7333 30.9593L19.7575 30.8576ZM26.8036 30.5005L26.7794 30.6276C25.638 30.2643 24.437 30.1262 23.243 30.2208L23.2672 30.0937C24.4634 29.992 25.6341 30.1445 26.8036 30.5005Z" fill="black"/>
<path d="M34.079 30.2981L34.0548 30.424C33.774 30.5003 33.4689 30.5765 33.1892 30.654C31.3638 31.2583 29.4022 31.3197 27.5426 30.8308H28.1274C29.8046 31.1624 31.5389 31.0573 33.1638 30.5257L34.079 30.2969V30.2981ZM21.0813 30.8574H21.6152C21.3379 30.91 21.0657 30.9866 20.8016 31.0862L20.7253 31.1104C20.3948 31.2134 20.0389 31.3151 19.7084 31.3913L19.7326 31.2388C20.0643 31.1625 20.3694 31.0862 20.6999 30.9845L20.7762 30.9591C20.8525 30.9337 20.9542 30.8828 21.0813 30.8574Z" fill="black"/>
<path d="M34.002 30.858C33.7239 30.9072 33.4514 30.9839 33.1884 31.0868C31.1549 31.7483 28.964 31.7483 26.9305 31.0868C25.7191 30.682 24.4384 30.5264 23.1653 30.6292L23.1919 30.502C24.4663 30.4205 25.7445 30.5845 26.9571 30.9851C28.9642 31.6462 31.1305 31.6462 33.1376 30.9851C33.416 30.8834 33.6969 30.8071 34.002 30.7551L33.9766 30.8834H34.002V30.858Z" fill="black"/>
<path d="M37.2828 31.0868C35.9028 30.9373 34.5068 31.0847 33.1883 31.519C31.1548 32.1804 28.9639 32.1804 26.9304 31.519C24.932 30.8577 22.7737 30.8577 20.7753 31.519L20.6991 31.5444C20.3431 31.6715 19.9606 31.7478 19.6046 31.8241L19.63 31.6969C19.986 31.6207 20.3177 31.5444 20.6736 31.4185L20.7499 31.3918C22.7744 30.7307 24.9567 30.7307 26.9812 31.3918C28.9887 32.0534 31.1555 32.0534 33.1629 31.3918C34.3918 30.9887 35.6884 30.8331 36.9777 30.9342C37.0886 30.9642 37.1924 31.016 37.2828 31.0868Z" fill="black"/>
<path d="M37.5899 31.5457C36.1111 31.3489 34.607 31.4875 33.1891 31.9513C31.1555 32.6127 28.9647 32.6127 26.9311 31.9513C24.9327 31.29 22.7745 31.29 20.7761 31.9513L20.6998 31.9767C20.3185 32.1038 19.9117 32.2067 19.5049 32.2818V32.2576L19.5291 32.1292C19.9092 32.0547 20.2835 31.9527 20.649 31.8242L20.7252 31.7999C22.7497 31.1387 24.9321 31.1387 26.9566 31.7999C28.964 32.4615 31.1308 32.4615 33.1383 31.7999C34.5483 31.341 36.041 31.1931 37.5136 31.3665C37.5645 31.4428 37.5899 31.4949 37.5899 31.5457Z" fill="black"/>
<path d="M37.6646 31.977C36.1628 31.7733 34.6345 31.9035 33.1888 32.3584C31.1552 33.0198 28.9644 33.0198 26.9308 32.3584C24.9324 31.6971 22.7742 31.6971 20.7757 32.3584L20.6995 32.3838C20.2927 32.5109 19.8859 32.6138 19.4779 32.6889V32.5618C19.8847 32.4855 20.2673 32.3838 20.6486 32.2567L20.7249 32.2325C22.7494 31.5713 24.9317 31.5713 26.9562 32.2325C28.9637 32.894 31.1304 32.894 33.1379 32.2325C34.5879 31.7566 36.1272 31.6171 37.6392 31.8245C37.6646 31.8753 37.6646 31.9262 37.6646 31.977Z" fill="black"/>
<path d="M37.6392 32.2562V32.3833C36.1457 32.18 34.6257 32.3106 33.1888 32.7659C31.1552 33.4273 28.9644 33.4273 26.9308 32.7659C24.9324 32.1046 22.7742 32.1046 20.7757 32.7659L20.6995 32.7901C20.2927 32.9184 19.8859 33.0201 19.4779 33.0964V32.9693C19.8847 32.893 20.2927 32.7913 20.674 32.6642L20.7503 32.6387C22.7748 31.9775 24.9572 31.9775 26.9816 32.6387C28.9891 33.3003 31.1559 33.3003 33.1633 32.6387C34.6088 32.1824 36.1373 32.0518 37.6392 32.2562Z" fill="black"/>
<path d="M37.5921 32.6897L37.5667 32.8156C36.0962 32.6196 34.6003 32.7591 33.1913 33.2236C31.1578 33.885 28.9669 33.885 26.9334 33.2236C24.935 32.5623 22.7767 32.5623 20.7783 33.2236L20.7021 33.2478C20.3461 33.3761 19.9635 33.4524 19.6076 33.5287C19.5758 33.4939 19.5577 33.4487 19.5568 33.4016C19.9393 33.3253 20.3195 33.2236 20.6766 33.0965L20.7529 33.071C22.7774 32.4099 24.9597 32.4099 26.9842 33.071C28.9917 33.7326 31.1585 33.7326 33.1659 33.071C34.5946 32.6161 36.1067 32.4858 37.5921 32.6897Z" fill="black"/>
<path d="M37.5371 33.0948L37.5128 33.2231C36.059 33.0395 34.5825 33.1784 33.1883 33.6299C32.1294 33.976 31.0214 34.1477 29.9074 34.1384L29.9316 34.0367H28.5587C28.0052 33.9609 27.46 33.8332 26.9304 33.6554C24.9319 32.9942 22.7737 32.9942 20.7753 33.6554L20.699 33.6796C20.4553 33.7564 20.209 33.8246 19.9605 33.8842C19.9042 33.8594 19.8525 33.825 19.808 33.7825C20.1143 33.7316 20.3939 33.6299 20.6736 33.5524L20.7499 33.5282C22.7744 32.867 24.9567 32.867 26.9812 33.5282C28.9887 34.1897 31.1554 34.1897 33.1629 33.5282C34.5667 33.0425 36.0653 32.8932 37.5371 33.0948Z" fill="black"/>
<path d="M27.262 34.0374H26.8044C24.8761 33.427 22.8064 33.427 20.8782 34.0374H20.4205L20.6494 33.9612L20.7256 33.9369C22.7501 33.2758 24.9324 33.2758 26.9569 33.9369C27.0631 33.955 27.1659 33.9889 27.262 34.0374ZM37.4619 33.5035L37.4377 33.6306C35.9987 33.4569 34.5391 33.6045 33.1641 34.0629C32.0827 34.4243 30.9451 34.5883 29.8057 34.5471L29.8311 34.4188C30.9444 34.4475 32.0542 34.2841 33.112 33.9357C34.5624 33.4781 36.0128 33.3256 37.4619 33.5035Z" fill="black"/>
<path d="M26.2704 34.1636L26.2461 34.2908C25.0754 33.9857 23.8793 33.9348 22.6843 34.0619V34.0111H22.1492C23.5191 33.7824 24.9211 33.8343 26.2704 34.1636ZM33.4944 34.2653L33.469 34.4179C33.3927 34.4433 33.291 34.4687 33.2148 34.4942C32.0988 34.8575 30.9275 35.0214 29.7547 34.9784L29.7801 34.8501C30.9268 34.8807 32.0704 34.7174 33.1627 34.367C33.2656 34.3416 33.3673 34.2908 33.4944 34.2653ZM37.3855 33.9348V34.0111H36.8262C36.4537 33.9857 36.08 33.9857 35.7075 34.0111H34.5622C35.4956 33.8587 36.4453 33.8331 37.3855 33.9348ZM26.1941 34.5716L26.1687 34.6975C24.9953 34.4142 23.7805 34.3453 22.5826 34.4942L22.6069 34.367C23.8051 34.2179 25.0204 34.2881 26.1941 34.5716ZM33.3927 34.6975L33.3673 34.8501C33.3165 34.8755 33.2402 34.8755 33.1639 34.9009C32.0329 35.2751 30.843 35.4392 29.653 35.3852L29.6784 35.2569C30.8491 35.3089 31.9932 35.1298 33.1385 34.7738C33.2402 34.7496 33.3165 34.723 33.3927 34.6975ZM26.1178 34.9772L26.0924 35.1043C24.9178 34.825 23.7005 34.7732 22.5064 34.9518L22.5306 34.8247C23.7267 34.6213 24.9471 34.6976 26.1178 34.9772ZM33.3165 35.1552L33.291 35.3077C33.2656 35.3077 33.2148 35.3332 33.1893 35.3332C32.0237 35.7091 30.8002 35.8732 29.5767 35.8174L29.6021 35.6903C30.8002 35.7458 31.9983 35.5817 33.1373 35.206C33.193 35.1774 33.254 35.1601 33.3165 35.1552ZM26.0415 35.3586L26.0161 35.4869C24.8378 35.2288 23.6225 35.1858 22.4289 35.3598L22.4543 35.2327C23.648 35.0587 24.8632 35.1017 26.0415 35.3598V35.3586ZM33.2402 35.5886L33.2148 35.7411H33.1893C32.0002 36.1291 30.7494 36.2929 29.5004 36.2242L29.5259 36.0971C30.7498 36.1655 31.9757 36.0011 33.1385 35.6128C33.1881 35.6128 33.2148 35.6128 33.2402 35.5886ZM25.9653 35.7666L25.9398 35.8937C24.7615 35.6313 23.5439 35.5968 22.3526 35.792L22.378 35.6649C23.5701 35.482 24.7855 35.5165 25.9653 35.7666ZM33.1639 36.0462L33.1385 36.1988C31.9388 36.5772 30.6798 36.7323 29.4242 36.6564L29.4496 36.5293C30.7073 36.6087 31.9686 36.4454 33.1639 36.0462C33.1385 36.0462 33.1385 36.0462 33.1639 36.0462ZM25.8878 36.1988L25.8636 36.3259C24.6751 36.0718 23.4491 36.046 22.2509 36.2496L22.2764 36.1225C23.4745 35.9182 24.6993 35.9441 25.8878 36.1988ZM33.0622 36.5039L33.0368 36.6564C31.844 37.0252 30.5936 37.1717 29.3479 37.0886L29.3733 36.9615C30.6206 37.0359 31.8709 36.8808 33.0622 36.5039ZM25.8127 36.5801L25.7873 36.7073C24.5958 36.4742 23.3722 36.457 22.1747 36.6564L22.2001 36.5293C23.3976 36.3296 24.6213 36.3469 25.8127 36.5801ZM32.9847 36.9361L32.9605 37.0886C31.7648 37.4413 30.5142 37.5705 29.2716 37.47L29.2958 37.3429C30.5186 37.47 31.7644 37.3187 32.9847 36.9361ZM25.7619 36.9869L25.7365 37.114C24.5447 36.877 23.3187 36.8688 22.1238 37.0898L22.1492 36.9361C23.3477 36.7495 24.5691 36.7667 25.7619 36.9869ZM32.9097 37.3683L32.883 37.5208C31.6627 37.8768 30.4157 38.0051 29.1953 37.8768L29.2195 37.7497C30.4423 37.8768 31.6893 37.7497 32.9097 37.3683ZM25.6856 37.4191L25.6602 37.5463C24.4583 37.3172 23.224 37.3172 22.0221 37.5463L22.0475 37.4191C23.2494 37.1901 24.4837 37.1901 25.6856 37.4191ZM32.808 37.8526L32.7826 38.0051C31.561 38.3356 30.3152 38.4627 29.0936 38.3356L29.1191 38.2085C30.3601 38.3063 31.6086 38.1858 32.808 37.8526ZM25.6093 37.8271L25.5839 37.9543C24.3794 37.746 23.1474 37.7542 21.9458 37.9785L21.9713 37.8526C23.1715 37.6151 24.4059 37.6064 25.6093 37.8271ZM32.7305 38.2848L32.7063 38.4373C31.506 38.7656 30.2553 38.8691 29.0174 38.7424L29.0416 38.6153C30.281 38.7459 31.534 38.6336 32.7305 38.2848ZM25.5331 38.2085L25.5076 38.3356C24.3016 38.136 23.0696 38.1532 21.8696 38.3865L21.895 38.2339C23.0977 38.0219 24.3275 38.0133 25.5331 38.2085ZM32.6554 38.717L32.63 38.8695C31.4283 39.1903 30.1774 39.2847 28.9411 39.148L28.9665 39.0221C30.2045 39.1487 31.4551 39.0452 32.6554 38.717ZM25.4568 38.6153L25.4314 38.7424C24.2154 38.5344 22.9704 38.569 21.7679 38.8441L21.7933 38.717C22.9989 38.4672 24.2392 38.4328 25.4568 38.6153ZM32.5525 39.1746L32.5283 39.3272C31.3231 39.6275 30.0744 39.7135 28.8394 39.5814C28.8394 39.5572 28.8394 39.5305 28.8636 39.4797V39.4555C30.1106 39.556 31.3576 39.4797 32.5525 39.1746ZM25.3793 39.0475L25.3551 39.1746C24.1367 38.9879 22.8941 39.031 21.6916 39.3017L21.717 39.1492C22.9241 38.9121 24.161 38.8778 25.3793 39.0475ZM32.4775 39.6322L32.452 39.786C31.2559 40.0911 30.061 40.1419 28.8648 40.0148V39.8877C30.0746 40.0189 31.298 39.9316 32.4775 39.6322ZM25.3042 39.4543L25.2788 39.5814C24.0589 39.4026 22.8162 39.4543 21.6153 39.7339L21.6407 39.5814C22.8449 39.3233 24.0851 39.2803 25.3042 39.4543ZM32.4012 40.0657L32.3758 40.2182C31.2559 40.4725 30.1118 40.5487 28.9665 40.4216C28.9423 40.3708 28.9423 40.3453 28.9157 40.2945C30.082 40.4211 31.2616 40.3432 32.4012 40.0645V40.0657ZM25.228 39.8865C25.228 39.9373 25.2025 39.9628 25.1771 40.0136C23.9556 39.8434 22.7129 39.9037 21.5136 40.1916L21.5391 40.0645C22.7452 39.7645 23.9985 39.704 25.228 39.8865ZM32.2983 40.4967L32.2741 40.6492C31.2813 40.8792 30.2644 40.9543 29.2716 40.8792L29.2474 40.8526C29.2208 40.8284 29.1953 40.7763 29.1445 40.7509C30.1881 40.8272 31.2559 40.7509 32.2983 40.4967ZM25.0754 40.2933C25.05 40.3441 25.0234 40.3695 24.9979 40.4204C23.8071 40.2933 22.6032 40.3711 21.4386 40.6504L21.4628 40.5233C22.6417 40.2192 23.8675 40.1411 25.0754 40.2933ZM32.2232 40.9555L32.1978 41.1081C31.8802 41.1857 31.5566 41.2367 31.2305 41.2606H30.1627C30.0236 41.2599 29.8858 41.2341 29.7559 41.1843C30.5694 41.2352 31.4084 41.1335 32.2232 40.9555ZM24.7945 40.6758L24.6674 40.803C23.5575 40.7057 22.4391 40.7999 21.3611 41.0814L21.3865 40.9301C22.5003 40.6553 23.6523 40.5694 24.7945 40.6758ZM24.2606 41.0572C24.1569 41.1148 24.0457 41.1576 23.9301 41.1843C23.4725 41.1843 22.9894 41.2085 22.5306 41.2606H21.7437C22.5719 41.092 23.4161 41.0237 24.2606 41.0572Z" fill="black"/>
<path d="M18.4126 31.7219C18.4126 31.5185 18.438 31.3405 18.4635 31.1625L18.6935 29.763H22.0749L22.9914 24.8549H19.202L19.5313 23.0232C19.5821 22.6164 19.7855 22.2605 20.0918 22.0062C20.3703 21.7762 20.8291 21.6745 21.4647 21.6745H23.4502L24.5422 15.9516C24.6197 15.5194 24.8485 15.1127 25.2045 14.8584C25.5604 14.6042 25.9672 14.4504 26.4248 14.4758H28.4091L27.0617 21.6745H30.6731L32.046 14.4758H34.0049C34.3862 14.4516 34.7434 14.5775 35.0218 14.8318C35.1514 14.9451 35.2533 15.0867 35.3196 15.2456C35.3859 15.4044 35.4149 15.5764 35.4044 15.7483C35.4044 15.8245 35.4044 15.9262 35.379 16.0025L34.2845 21.6745H37.8972L37.5667 23.4808C37.5158 23.8876 37.3124 24.2435 37.0073 24.4978C36.7264 24.7278 36.2688 24.8295 35.6332 24.8295H33.8535L32.937 29.7376H35.4552C35.7686 29.7163 36.0781 29.8165 36.3197 30.0172C36.4337 30.1434 36.518 30.2934 36.5664 30.4564C36.6148 30.6194 36.626 30.7912 36.5993 30.9591C36.5993 31.1625 36.5751 31.3405 36.5485 31.5185L36.3451 32.8926H32.4794L31.1053 40.1409H29.0956C28.9204 40.142 28.7472 40.1037 28.5888 40.0289C28.4304 39.9541 28.2908 39.8446 28.1803 39.7087C28.0508 39.5689 27.9504 39.4047 27.8849 39.2258C27.8195 39.0468 27.7902 38.8566 27.799 38.6663V38.4883C27.799 38.4374 27.8232 38.3866 27.8232 38.3103L28.8668 32.8671H25.2299L24.1863 38.5137C24.1571 38.7578 24.0762 38.9929 23.9491 39.2033C23.822 39.4137 23.6515 39.5947 23.449 39.7341C23.073 39.9858 22.6303 40.119 22.1778 40.1167H20.2444L21.5918 32.8671H19.5579C19.2516 32.8914 18.9211 32.8163 18.6923 32.6129C18.5893 32.4901 18.5117 32.3482 18.4639 32.1952C18.4161 32.0423 18.3991 31.8814 18.4138 31.7219H18.4126ZM30.2409 24.8549H26.6282L25.713 29.763H29.3498L30.2409 24.8549Z" fill="#ADABB4"/>
</g>
</g>
<defs>
<clipPath id="clip0_1_1545">
<rect width="56.9016" height="56.9016" fill="white" transform="translate(0.938965 0.588623)"/>
</clipPath>
</defs>
</svg>
