<svg width="58" height="58" viewBox="0 0 58 58" fill="none" xmlns="http://www.w3.org/2000/svg">
<g clip-path="url(#clip0_1_1579)">
<mask id="mask0_1_1579" style="mask-type:luminance" maskUnits="userSpaceOnUse" x="0" y="0" width="57" height="57">
<path d="M0.935059 0.588379H56.793V56.4463H0.935059V0.588379Z" fill="white"/>
</mask>
<g mask="url(#mask0_1_1579)">
<path d="M28.8652 56.4463C44.2892 56.4463 56.793 43.9425 56.793 28.5174C56.793 13.0946 44.2892 0.588379 28.8652 0.588379C13.4413 0.588379 0.935059 13.0922 0.935059 28.5186C0.935059 43.9425 13.4389 56.4463 28.8652 56.4463Z" fill="#E7E5EE"/>
</g>
<g clip-path="url(#clip1_1_1579)">
<path d="M23.5411 26.833V26.333H23.0411H20.8745H20.3745V26.833V34.4163V34.9163H20.8745H23.0411H23.5411V34.4163V26.833ZM30.0411 26.833V26.333H29.5411H27.3745H26.8745V26.833V34.4163V34.9163H27.3745H29.5411H30.0411V34.4163V26.833ZM39.2495 36.583V36.083H38.7495H18.1661H17.6661V36.583V38.7497V39.2497H18.1661H38.7495H39.2495V38.7497V36.583ZM36.5411 26.833V26.333H36.0411H33.8745H33.3745V26.833V34.4163V34.9163H33.8745H36.0411H36.5411V34.4163V26.833ZM28.6907 16.6405L28.4578 16.518L28.2249 16.6405L17.9333 22.0572L17.6661 22.1978V22.4997V24.6663V25.1663H18.1661H38.7495H39.2495V24.6663V22.4997V22.1978L38.9823 22.0572L28.6907 16.6405ZM24.8386 21.9997L28.4578 20.0963L32.077 21.9997H24.8386Z" fill="#ADABB4" stroke="#ADABB4"/>
</g>
</g>
<defs>
<clipPath id="clip0_1_1579">
<rect width="56.9016" height="56.9016" fill="white" transform="translate(0.938965 0.588379)"/>
</clipPath>
<clipPath id="clip1_1_1579">
<rect width="26" height="26" fill="white" transform="translate(15.9995 15.9998)"/>
</clipPath>
</defs>
</svg>
