<svg width="20" height="17" viewBox="0 0 20 17" fill="none" xmlns="http://www.w3.org/2000/svg">
<path d="M0 0.185551C0 0.296881 2.28742 4.23056 5.05447 8.94355C9.55553 16.5883 10.1458 17.4418 10.5886 16.848C10.8468 16.4769 11.0682 15.9945 11.0682 15.8089C11.0682 15.5863 9.33417 12.469 7.19432 8.90644C3.6525 2.96881 3.20977 1.8184 4.57485 2.33794C4.83311 2.44927 6.56712 5.1212 8.48561 8.31268C10.3672 11.5413 12.0274 13.9905 12.175 13.8421C12.9867 12.9143 20.181 0.408211 19.9965 0.22266C19.8858 0.11133 19.4431 0 19.0004 0C18.4101 0 17.5984 1.07619 15.311 5.04698C13.6877 7.83025 12.175 10.1311 11.9905 10.1311C11.6585 10.094 10.4779 8.31268 7.96909 3.97079L6.93606 2.22661H10.1089H13.3187L12.7284 3.37703C12.175 4.45322 12.0643 4.49033 11.474 3.93368C10.8837 3.41414 9.22348 3.08014 9.22348 3.48836C9.22348 3.71102 11.8798 8.16424 11.9905 8.16424C12.175 8.16424 16.6023 0.519541 16.6023 0.259771C16.6023 0.11133 12.876 0 8.30114 0C3.72629 0 0 0.0742188 0 0.185551Z" fill="black"/>
</svg>
