<svg width="9" height="11" viewBox="0 0 9 11" fill="none" xmlns="http://www.w3.org/2000/svg">
<path fill-rule="evenodd" clip-rule="evenodd" d="M8.16995 4.36283H7.61895V3.51888C7.61895 1.84469 6.18037 0.483398 4.4451 0.483398C2.70983 0.483398 1.27125 1.84469 1.27125 3.51888V4.36283H0.763878C0.480899 4.36283 0.283936 4.70315 0.283936 4.97491V10.1072C0.283936 10.3789 0.480899 10.4886 0.763878 10.4886H8.18366C8.46539 10.4886 8.61997 10.3789 8.61997 10.1072V4.97491C8.6075 4.70315 8.43797 4.36283 8.16995 4.36283ZM3.76944 8.71846L3.99383 7.46562C3.89543 7.40253 3.81427 7.31593 3.75769 7.21365C3.70111 7.11136 3.67087 6.9966 3.66971 6.87972C3.66971 6.45837 4.0225 6.11929 4.46006 6.11929C4.89637 6.11929 5.24916 6.45837 5.24916 6.87972C5.24916 7.13901 5.12325 7.31603 4.92504 7.45316L5.15067 8.71846H3.76944ZM2.11644 3.51888V4.36283H6.7725V3.51888C6.7725 2.27975 5.71289 1.28746 4.44385 1.28746C3.17481 1.28746 2.11644 2.29347 2.11644 3.51888Z" fill="#4F4F4F"/>
</svg>
