<svg width="13" height="15" viewBox="0 0 13 15" fill="none" xmlns="http://www.w3.org/2000/svg">
<path fill-rule="evenodd" clip-rule="evenodd" d="M12.122 5.71002H11.3289V4.49154C11.3274 2.07186 9.24664 0.10498 6.739 0.10498C4.23425 0.10498 2.15634 2.07186 2.15634 4.49154V5.71002H1.42092C1.01428 5.71002 0.72876 6.20174 0.72876 6.59541V14.0116C0.72876 14.4038 1.01428 14.561 1.42092 14.561H12.1451C12.5517 14.561 12.7766 14.4038 12.7766 14.0116V6.59397C12.7565 6.2003 12.5113 5.70858 12.1234 5.70858L12.122 5.71002ZM5.76277 12.0043L6.08866 10.1946C5.94666 10.1036 5.8295 9.97877 5.7477 9.83127C5.6659 9.68378 5.62202 9.51827 5.62001 9.34962C5.62001 8.73966 6.13048 8.24794 6.76208 8.24794C7.39367 8.24794 7.9027 8.73966 7.9027 9.34962C7.9027 9.7231 7.71956 9.97833 7.43405 10.1759L7.75994 12.0043H5.76277ZM3.37771 4.49154V5.71002H10.1046V4.49154C10.1046 2.70058 8.57611 1.26579 6.74189 1.26579C4.90623 1.26579 3.37771 2.72221 3.37771 4.49154Z" fill="#382C7C"/>
</svg>
